<svg width="93" height="48" viewBox="0 0 93 48" fill="none" xmlns="http://www.w3.org/2000/svg">
<path fill-rule="evenodd" clip-rule="evenodd" d="M4.58526 32.6715C12.9842 21.3649 27.7139 12.1901 45.6099 8.51643C61.5938 5.23524 76.985 6.98254 88.7654 12.4402C81.3645 24.8434 66.7141 34.9947 48.5143 38.7308C32.0153 42.1177 16.1204 39.5096 4.58526 32.6715Z" fill="#131313"/>
<mask id="mask0_216_392" style="mask-type:alpha" maskUnits="userSpaceOnUse" x="4" y="6" width="85" height="35">
<path fill-rule="evenodd" clip-rule="evenodd" d="M4.58526 32.6715C12.9842 21.3649 27.7139 12.1901 45.6099 8.51643C61.5938 5.23524 76.985 6.98254 88.7654 12.4402C81.3645 24.8434 66.7141 34.9947 48.5143 38.7308C32.0153 42.1177 16.1204 39.5096 4.58526 32.6715Z" fill="#131313"/>
</mask>
<g mask="url(#mask0_216_392)">
<path d="M33.8281 23.0807L34.2116 22.1849C34.2365 22.1268 34.311 22.1115 34.3568 22.1551L35.0693 22.8202C35.0831 22.8325 35.0923 22.8496 35.096 22.8677L36.2175 28.2341C36.2212 28.2523 36.2195 28.2715 36.2125 28.2881L35.829 29.1839C35.804 29.242 35.7296 29.2573 35.6838 29.2137L34.9713 28.5486C34.9574 28.5363 34.9483 28.5193 34.9445 28.5011L33.8231 23.1347C33.8193 23.1165 33.8211 23.0973 33.8281 23.0807Z" fill="#C83547"/>
<path d="M31.5402 22.6147L32.3197 22.031C32.3697 21.9933 32.4427 22.0171 32.4606 22.0768L32.7445 23.0087C32.7501 23.0265 32.7502 23.0453 32.7445 23.0635L31.0324 28.2721C31.0265 28.2894 31.0155 28.3049 31.0008 28.3164L30.2213 28.9001C30.1713 28.9378 30.0984 28.914 30.0804 28.8543L29.7965 27.9225C29.7909 27.9047 29.7908 27.8858 29.7965 27.8676L31.5086 22.659C31.5145 22.6417 31.5255 22.6262 31.5402 22.6147Z" fill="#C83547"/>
<path d="M29.7922 21.0644L30.7596 20.949C30.8224 20.9418 30.8728 20.9986 30.8588 21.0592L30.6394 22.0083C30.6355 22.0261 30.6258 22.0432 30.6113 22.0557L26.5242 25.71C26.5107 25.7222 26.4934 25.7305 26.4749 25.7324L25.5075 25.8478C25.4447 25.855 25.3943 25.7982 25.4083 25.7377L25.6277 24.7885C25.6316 24.7707 25.6413 24.7536 25.6558 24.7412L29.7429 21.0868C29.7564 21.0746 29.7736 21.0663 29.7922 21.0644Z" fill="#C83547"/>
<path d="M29.053 18.8514L29.9488 19.235C30.0069 19.2599 30.0221 19.3343 29.9786 19.3802L29.3134 20.0926C29.3011 20.1065 29.2841 20.1157 29.266 20.1194L23.8995 21.2409C23.8814 21.2446 23.8621 21.2429 23.8456 21.2359L22.9497 20.8524C22.8917 20.8274 22.8764 20.753 22.9199 20.7072L23.5851 19.9947C23.5974 19.9808 23.6144 19.9716 23.6325 19.9679L28.999 18.8464C29.0171 18.8427 29.0364 18.8444 29.053 18.8514Z" fill="#C83547"/>
<path d="M29.5204 16.562L30.1041 17.3415C30.1418 17.3915 30.118 17.4644 30.0583 17.4824L29.1264 17.7663C29.1087 17.7719 29.0898 17.772 29.0716 17.7662L23.863 16.0542C23.8457 16.0483 23.8302 16.0373 23.8187 16.0226L23.235 15.2431C23.1973 15.1931 23.2211 15.1201 23.2808 15.1022L24.2127 14.8182C24.2304 14.8127 24.2493 14.8126 24.2675 14.8183L29.4761 16.5304C29.4934 16.5363 29.5089 16.5473 29.5204 16.562Z" fill="#C83547"/>
<path d="M31.0691 14.8146L31.1845 15.782C31.1917 15.8448 31.1349 15.8953 31.0743 15.8812L30.1252 15.6618C30.1074 15.6579 30.0903 15.6482 30.0778 15.6337L26.4235 11.5467C26.4113 11.5331 26.403 11.5159 26.4011 11.4974L26.2857 10.53C26.2785 10.4671 26.3353 10.4167 26.3959 10.4307L27.345 10.6501C27.3628 10.654 27.3799 10.6638 27.3924 10.6782L31.0467 14.7653C31.0589 14.7789 31.0672 14.7961 31.0691 14.8146Z" fill="#C83547"/>
<path d="M33.2843 14.0742L32.9008 14.9701C32.8759 15.0281 32.8014 15.0434 32.7556 14.9999L32.0432 14.3347C32.0293 14.3224 32.0201 14.3054 32.0164 14.2872L30.8949 8.92083C30.8912 8.90268 30.8929 8.88341 30.8999 8.86684L31.2834 7.97103C31.3084 7.91294 31.3828 7.89767 31.4286 7.94122L32.1411 8.60637C32.155 8.61866 32.1641 8.63569 32.1679 8.65384L33.2893 14.0203C33.2931 14.0384 33.2913 14.0577 33.2843 14.0742Z" fill="#C83547"/>
<path d="M35.5725 14.542L34.793 15.1257C34.743 15.1634 34.6701 15.1396 34.6521 15.0799L34.3682 14.148C34.3626 14.1303 34.3625 14.1114 34.3683 14.0932L36.0803 8.88462C36.0862 8.86733 36.0972 8.85183 36.1119 8.84031L36.8914 8.25661C36.9414 8.21894 37.0144 8.24273 37.0323 8.30241L37.3163 9.23426C37.3218 9.25204 37.3219 9.27093 37.3162 9.28913L35.6041 14.4977C35.5982 14.515 35.5872 14.5305 35.5725 14.542Z" fill="#C83547"/>
<path d="M37.3203 16.0908L36.3528 16.2062C36.29 16.2134 36.2396 16.1566 36.2536 16.096L36.473 15.1469C36.4769 15.1291 36.4866 15.112 36.5011 15.0995L40.5882 11.4452C40.6018 11.433 40.619 11.4247 40.6375 11.4228L41.6049 11.3074C41.6677 11.3002 41.7182 11.357 41.7041 11.4176L41.4847 12.3667C41.4808 12.3845 41.4711 12.4016 41.4566 12.4141L37.3696 16.0684C37.356 16.0806 37.3388 16.0889 37.3203 16.0908Z" fill="#C83547"/>
<path d="M38.0597 18.3062L37.1639 17.9227C37.1058 17.8977 37.0905 17.8233 37.134 17.7775L37.7992 17.065C37.8115 17.0511 37.8285 17.042 37.8467 17.0382L43.2131 15.9168C43.2312 15.913 43.2505 15.9147 43.2671 15.9217L44.1629 16.3053C44.221 16.3302 44.2362 16.4046 44.1927 16.4505L43.5275 17.1629C43.5152 17.1768 43.4982 17.186 43.4801 17.1897L38.1136 18.3112C38.0955 18.3149 38.0762 18.3132 38.0597 18.3062Z" fill="#C83547"/>
<path d="M37.5923 20.5949L37.0086 19.8153C36.9709 19.7654 36.9947 19.6924 37.0544 19.6745L37.9863 19.3905C38.004 19.385 38.0229 19.3849 38.0411 19.3906L43.2497 21.1027C43.267 21.1086 43.2825 21.1196 43.294 21.1342L43.8777 21.9138C43.9154 21.9637 43.8916 22.0367 43.8319 22.0546L42.9001 22.3386C42.8823 22.3441 42.8634 22.3442 42.8452 22.3385L37.6366 20.6264C37.6193 20.6205 37.6038 20.6095 37.5923 20.5949Z" fill="#C83547"/>
<path d="M36.0427 22.3421L35.9273 21.3747C35.9201 21.3119 35.9769 21.2614 36.0375 21.2755L36.9866 21.4949C37.0044 21.4988 37.0215 21.5085 37.034 21.523L40.6883 25.61C40.7005 25.6236 40.7088 25.6408 40.7107 25.6593L40.8261 26.6267C40.8333 26.6896 40.7765 26.74 40.7159 26.726L39.7668 26.5066C39.749 26.5027 39.7319 26.4929 39.7194 26.4785L36.0651 22.3914C36.0529 22.3778 36.0446 22.3606 36.0427 22.3421Z" fill="#C83547"/>
<path d="M36.2568 30.7636L35.9186 29.8855C35.9134 29.8232 35.9723 29.7742 36.0326 29.7912L37.2343 29.9558C37.2523 29.9607 37.2687 29.9715 37.28 29.9852L41.0383 34.5323C41.0498 34.547 41.0572 34.5644 41.0591 34.5829L41.1356 35.5545C41.1408 35.6168 41.0818 35.6658 41.0216 35.6488L40.0825 35.3905C40.0644 35.3857 40.048 35.3749 40.0367 35.3611L36.2785 30.814C36.2669 30.7994 36.2596 30.782 36.2577 30.7635L36.2568 30.7636Z" fill="#C83547"/>
<path d="M35.855 30.8794L35.8048 29.9393C35.7841 29.8802 35.7101 29.8604 35.6614 29.8997L34.6327 30.5412C34.6181 30.5527 34.6082 30.5689 34.6034 30.5869L33.0338 36.2731C33.029 36.2911 33.0291 36.31 33.0355 36.3276L33.3628 37.2449C33.3835 37.304 33.4575 37.3238 33.5062 37.2845L34.2576 36.665C34.2722 36.6535 34.2821 36.6372 34.2869 36.6192L35.8565 30.933C35.8613 30.915 35.8612 30.8961 35.8548 30.8785L35.855 30.8794Z" fill="#C83547"/>
<path d="M29.7656 30.5146L29.9115 29.5853C29.9386 29.5286 30.0136 29.5161 30.0578 29.5609L31.0161 30.3042C31.0293 30.3176 31.0375 30.3348 31.0412 30.3529L32.0217 36.1701C32.0254 36.1883 32.0217 36.207 32.014 36.2246L31.5949 37.1041C31.5678 37.1607 31.4928 37.1733 31.4486 37.1285L30.7643 36.4348C30.7512 36.4215 30.7429 36.4042 30.7392 36.3861L29.7588 30.5689C29.755 30.5508 29.7588 30.5321 29.7665 30.5144L29.7656 30.5146Z" fill="#C83547"/>
<path d="M29.3608 30.4137L29.7871 29.5743C29.7981 29.5125 29.7453 29.4581 29.6832 29.4689L28.4718 29.5105C28.4536 29.5142 28.4364 29.5225 28.423 29.5356L24.2209 33.6751C24.2075 33.6882 24.1987 33.7052 24.1957 33.7228L24.0207 34.6808C24.0097 34.7426 24.0625 34.797 24.1246 34.7862L25.0856 34.6258C25.1037 34.6221 25.121 34.6138 25.1343 34.6007L29.3365 30.4612C29.3499 30.448 29.3587 30.4311 29.3617 30.4135L29.3608 30.4137Z" fill="#C83547"/>
<path d="M24.2687 27.0533L24.8598 26.321C24.9112 26.2859 24.9828 26.3119 24.9991 26.3728L25.4566 27.496C25.4612 27.514 25.4604 27.5331 25.4536 27.5505L23.3949 33.079C23.388 33.0965 23.3769 33.1111 23.3611 33.1218L22.558 33.6735C22.5065 33.7087 22.435 33.6827 22.4187 33.6217L22.1723 32.6793C22.1677 32.6613 22.1685 32.6423 22.1753 32.6248L24.234 27.0964C24.2408 27.0789 24.252 27.0643 24.2678 27.0535L24.2687 27.0533Z" fill="#C83547"/>
<path d="M23.968 26.762L24.7562 26.2484C24.7965 26.2004 24.7776 26.1268 24.7192 26.1047L23.6489 25.5348C23.6314 25.528 23.6124 25.5271 23.5944 25.5318L17.8853 27.0158C17.8674 27.0205 17.8514 27.0303 17.8393 27.0451L17.2087 27.7874C17.1684 27.8354 17.1873 27.9091 17.2457 27.9311L18.1584 28.2724C18.1759 28.2792 18.195 28.28 18.2129 28.2754L23.922 26.7913C23.94 26.7867 23.9559 26.7768 23.968 26.762Z" fill="#C83547"/>
<path d="M21.2386 21.3071L22.1167 20.9689C22.179 20.9636 22.228 21.0226 22.2111 21.0828L22.0464 22.2846C22.0416 22.3026 22.0307 22.319 22.017 22.3303L17.4699 26.0886C17.4552 26.1001 17.4378 26.1075 17.4193 26.1094L16.4477 26.1859C16.3854 26.1911 16.3364 26.1321 16.3534 26.0719L16.6117 25.1328C16.6165 25.1147 16.6273 25.0983 16.6411 25.087L21.1882 21.3288C21.2028 21.3172 21.2202 21.3099 21.2387 21.308L21.2386 21.3071Z" fill="#C83547"/>
<path d="M21.1239 20.9057L22.064 20.8555C22.1231 20.8349 22.1429 20.7608 22.1036 20.7121L21.4622 19.6835C21.4506 19.6688 21.4344 19.6589 21.4164 19.6541L15.7302 18.0845C15.7122 18.0797 15.6933 18.0798 15.6757 18.0862L14.7584 18.4135C14.6993 18.4342 14.6795 18.5082 14.7188 18.5569L15.3383 19.3083C15.3499 19.3229 15.3661 19.3329 15.3841 19.3377L21.0703 20.9072C21.0883 20.9121 21.1072 20.912 21.1248 20.9055L21.1239 20.9057Z" fill="#C83547"/>
<path d="M21.4881 14.8168L22.4174 14.9627C22.4741 14.9898 22.4866 15.0648 22.4418 15.109L21.6985 16.0673C21.6851 16.0804 21.6679 16.0887 21.6497 16.0924L15.8326 17.0729C15.8144 17.0766 15.7957 17.0729 15.778 17.0651L14.8986 16.6461C14.8419 16.619 14.8294 16.544 14.8742 16.4998L15.5679 15.8155C15.5812 15.8024 15.5984 15.7941 15.6166 15.7904L21.4338 14.81C21.4519 14.8062 21.4706 14.81 21.4883 14.8177L21.4881 14.8168Z" fill="#C83547"/>
<path d="M21.5894 14.411L22.4287 14.8373C22.4906 14.8483 22.545 14.7955 22.5341 14.7334L22.4926 13.522C22.4888 13.5038 22.4806 13.4866 22.4674 13.4732L18.328 9.27108C18.3148 9.2577 18.2979 9.24889 18.2802 9.24589L17.3223 9.07088C17.2604 9.05993 17.206 9.11272 17.2169 9.1748L17.3773 10.1358C17.381 10.1539 17.3892 10.1712 17.4024 10.1845L21.5419 14.3867C21.555 14.4001 21.5719 14.4089 21.5896 14.4119L21.5894 14.411Z" fill="#C83547"/>
<path d="M24.9501 9.31822L25.6824 9.90932C25.7175 9.96074 25.6916 10.0323 25.6306 10.0486L24.5074 10.5061C24.4894 10.5107 24.4704 10.5099 24.4529 10.5031L18.9244 8.44438C18.907 8.43756 18.8924 8.42637 18.8816 8.41062L18.3299 7.60749C18.2948 7.55607 18.3208 7.48453 18.3817 7.46824L19.3241 7.22182C19.3421 7.21719 19.3612 7.218 19.3786 7.22482L24.9071 9.28355C24.9246 9.29037 24.9391 9.30156 24.9499 9.31731L24.9501 9.31822Z" fill="#C83547"/>
<path d="M25.2393 9.01877L25.7529 9.80702C25.8009 9.84729 25.8745 9.82838 25.8966 9.76995L26.4665 8.69969C26.4734 8.68221 26.4742 8.66313 26.4695 8.64517L24.9855 2.93612C24.9809 2.91816 24.971 2.90222 24.9562 2.89013L24.2139 2.25946C24.1659 2.21919 24.0923 2.2381 24.0702 2.29653L23.7289 3.20921C23.7221 3.22668 23.7213 3.24576 23.7259 3.26372L25.21 8.97277C25.2146 8.99073 25.2245 9.00667 25.2393 9.01877Z" fill="#C83547"/>
<path d="M30.6955 6.28876L31.0337 7.16692C31.039 7.22921 30.98 7.2782 30.9198 7.26125L29.718 7.09656C29.7 7.09175 29.6836 7.08093 29.6723 7.06718L25.914 2.52007C25.9025 2.50542 25.8951 2.48801 25.8932 2.46949L25.8167 1.49789C25.8115 1.4356 25.8705 1.38661 25.9307 1.40356L26.8698 1.66187C26.8879 1.66669 26.9043 1.6775 26.9156 1.69125L30.6738 6.23836C30.6854 6.25302 30.6927 6.27042 30.6946 6.28895L30.6955 6.28876Z" fill="#C83547"/>
<path d="M31.0975 6.17414L31.1477 7.11426C31.1684 7.17338 31.2424 7.19317 31.2911 7.15386L32.3198 6.5124C32.3344 6.50088 32.3444 6.48466 32.3492 6.46665L33.9187 0.780448C33.9236 0.762437 33.9235 0.743543 33.917 0.725953L33.5897 -0.191326C33.569 -0.250449 33.495 -0.27024 33.4463 -0.230932L32.695 0.388595C32.6803 0.400115 32.6704 0.416335 32.6656 0.434345L31.096 6.12055C31.0912 6.13856 31.0913 6.15745 31.0977 6.17504L31.0975 6.17414Z" fill="#C83547"/>
<path d="M37.1869 6.53884L37.041 7.46815C37.0139 7.52479 36.9389 7.53734 36.8947 7.49251L35.9364 6.74921C35.9232 6.73583 35.915 6.71862 35.9113 6.70047L34.9308 0.883312C34.9271 0.865162 34.9308 0.846431 34.9386 0.828768L35.3576 -0.0506923C35.3847 -0.107333 35.4597 -0.119885 35.5039 -0.0750525L36.1882 0.618584C36.2013 0.631961 36.2096 0.649179 36.2133 0.667328L37.1937 6.48448C37.1975 6.50263 37.1937 6.52137 37.186 6.53903L37.1869 6.53884Z" fill="#C83547"/>
<path d="M37.5917 6.641L37.1654 7.48035C37.1544 7.54217 37.2072 7.59659 37.2693 7.58574L38.4807 7.54417C38.4988 7.54044 38.5161 7.53218 38.5294 7.51903L42.7316 3.37956C42.745 3.36641 42.7538 3.34947 42.7568 3.33183L42.9318 2.37386C42.9428 2.31203 42.89 2.25761 42.8279 2.26846L41.8669 2.42886C41.8487 2.43258 41.8315 2.44084 41.8181 2.45399L37.616 6.59346C37.6026 6.60661 37.5938 6.62355 37.5908 6.64119L37.5917 6.641Z" fill="#C83547"/>
<path d="M42.6838 10.0007L42.0927 10.733C42.0413 10.7681 41.9697 10.7421 41.9534 10.6812L41.4959 9.55799C41.4913 9.54003 41.4921 9.52095 41.4989 9.50347L43.5576 3.97503C43.5644 3.95756 43.5756 3.94297 43.5914 3.93217L44.3945 3.38051C44.4459 3.34536 44.5175 3.37135 44.5338 3.43231L44.7802 4.3747C44.7848 4.39267 44.784 4.41175 44.7772 4.42922L42.7184 9.95766C42.7116 9.97514 42.7004 9.98973 42.6847 10.0005L42.6838 10.0007Z" fill="#C83547"/>
<path d="M42.9843 10.289L42.1961 10.8026C42.1558 10.8505 42.1747 10.9242 42.2332 10.9463L43.3034 11.5162C43.3209 11.523 43.34 11.5238 43.3579 11.5192L49.067 10.0352C49.0849 10.0305 49.1009 10.0206 49.113 10.0059L49.7436 9.26359C49.7839 9.21561 49.765 9.14194 49.7066 9.11989L48.7939 8.7786C48.7764 8.77179 48.7573 8.77098 48.7394 8.77561L43.0303 10.2596C43.0124 10.2643 42.9964 10.2742 42.9843 10.289Z" fill="#C83547"/>
<path d="M45.713 15.7464L44.8349 16.0846C44.7726 16.0898 44.7236 16.0308 44.7405 15.9706L44.9052 14.7689C44.91 14.7508 44.9208 14.7344 44.9346 14.7231L49.4817 10.9649C49.4964 10.9533 49.5138 10.946 49.5323 10.9441L50.5039 10.8676C50.5662 10.8623 50.6152 10.9213 50.5982 10.9816L50.3399 11.9207C50.3351 11.9387 50.3243 11.9551 50.3105 11.9664L45.7634 15.7247C45.7488 15.7362 45.7314 15.7436 45.7128 15.7455L45.713 15.7464Z" fill="#C83547"/>
<path d="M45.8286 16.148L44.8885 16.1982C44.8294 16.2188 44.8096 16.2929 44.8489 16.3416L45.4904 17.3703C45.5019 17.3849 45.5181 17.3948 45.5361 17.3996L51.2223 18.9692C51.2403 18.974 51.2592 18.9739 51.2768 18.9675L52.1941 18.6402C52.2532 18.6195 52.273 18.5455 52.2337 18.4968L51.6142 17.7454C51.6027 17.7308 51.5864 17.7209 51.5684 17.716L45.8822 16.1465C45.8642 16.1417 45.8453 16.1417 45.8277 16.1482L45.8286 16.148Z" fill="#C83547"/>
<path d="M45.4644 22.2376L44.5351 22.0917C44.4784 22.0645 44.4659 21.9896 44.5107 21.9454L45.254 20.987C45.2674 20.9739 45.2846 20.9656 45.3028 20.9619L51.1199 19.9815C51.1381 19.9778 51.1568 19.9815 51.1745 19.9892L52.0539 20.4082C52.1106 20.4354 52.1231 20.5103 52.0783 20.5545L51.3847 21.2388C51.3713 21.252 51.3541 21.2602 51.3359 21.264L45.5188 22.2444C45.5006 22.2481 45.4819 22.2444 45.4642 22.2367L45.4644 22.2376Z" fill="#C83547"/>
<path d="M45.363 22.6424L44.5237 22.2161C44.4619 22.2051 44.4074 22.2579 44.4183 22.32L44.4599 23.5314C44.4636 23.5495 44.4718 23.5668 44.485 23.5801L48.6245 27.7823C48.6376 27.7957 48.6546 27.8045 48.6722 27.8075L49.6302 27.9825C49.692 27.9934 49.7464 27.9407 49.7356 27.8786L49.5752 26.9176C49.5714 26.8994 49.5632 26.8822 49.55 26.8688L45.4106 22.6667C45.3974 22.6533 45.3805 22.6445 45.3628 22.6415L45.363 22.6424Z" fill="#C83547"/>
<path d="M42.0024 27.7347L41.2701 27.1436C41.235 27.0922 41.261 27.0206 41.3219 27.0044L42.4451 26.5468C42.4631 26.5422 42.4822 26.543 42.4997 26.5498L48.0281 28.6085C48.0456 28.6154 48.0602 28.6265 48.071 28.6423L48.6226 29.4454C48.6578 29.4969 48.6318 29.5684 48.5708 29.5847L47.6284 29.8311C47.6105 29.8357 47.5914 29.8349 47.5739 29.8281L42.0455 27.7694C42.028 27.7626 42.0134 27.7514 42.0026 27.7356L42.0024 27.7347Z" fill="#C83547"/>
<path d="M41.7121 28.0344L41.1985 27.2461C41.1505 27.2059 41.0769 27.2248 41.0548 27.2832L40.4849 28.3535C40.478 28.3709 40.4772 28.39 40.4819 28.408L41.9659 34.117C41.9705 34.135 41.9804 34.1509 41.9952 34.163L42.7375 34.7937C42.7855 34.834 42.8591 34.8151 42.8812 34.7566L43.2225 33.8439C43.2293 33.8265 43.2301 33.8074 43.2255 33.7894L41.7414 28.0804C41.7368 28.0624 41.7269 28.0465 41.7121 28.0344Z" fill="#C83547"/>
</g>
</svg>
