<svg width="92" height="48" viewBox="0 0 92 48" fill="none" xmlns="http://www.w3.org/2000/svg">
<path fill-rule="evenodd" clip-rule="evenodd" d="M88.2347 32.6715C79.8357 21.3649 65.106 12.1901 47.21 8.51643C31.2261 5.23523 15.835 6.98254 4.05453 12.4402C11.4555 24.8434 26.1058 34.9947 44.3056 38.7308C60.8046 42.1177 76.6995 39.5096 88.2347 32.6715Z" fill="#131313"/>
<mask id="mask0_216_439" style="mask-type:alpha" maskUnits="userSpaceOnUse" x="4" y="6" width="85" height="35">
<path fill-rule="evenodd" clip-rule="evenodd" d="M88.2342 32.6709C79.835 21.3647 65.1054 12.1905 47.2098 8.51701C31.2261 5.23603 15.8352 6.98339 4.05489 12.441C11.4561 24.8437 26.1063 34.9945 44.3058 38.7303C60.8045 42.117 76.6991 39.5089 88.2342 32.6709Z" fill="#131313"/>
</mask>
<g mask="url(#mask0_216_439)">
<path d="M39.688 22.4088L39.3045 21.513C39.2795 21.4549 39.2051 21.4397 39.1593 21.4832L38.4468 22.1484C38.4329 22.1607 38.4238 22.1777 38.42 22.1958L37.2986 27.5623C37.2949 27.5804 37.2966 27.5997 37.3036 27.6163L37.6871 28.5121C37.7121 28.5702 37.7865 28.5854 37.8323 28.5419L38.5448 27.8767C38.5587 27.8644 38.5678 27.8474 38.5716 27.8292L39.693 22.4628C39.6967 22.4447 39.695 22.4254 39.688 22.4088Z" fill="#C83547"/>
<path d="M41.9759 21.9429L41.1963 21.3592C41.1464 21.3215 41.0734 21.3453 41.0555 21.405L40.7715 22.3368C40.766 22.3546 40.7659 22.3735 40.7716 22.3917L42.4837 27.6003C42.4896 27.6175 42.5006 27.633 42.5153 27.6446L43.2948 28.2283C43.3448 28.2659 43.4178 28.2421 43.4357 28.1825L43.7196 27.2506C43.7252 27.2328 43.7253 27.2139 43.7196 27.1957L42.0074 21.9872C42.0015 21.9699 41.9905 21.9544 41.9759 21.9429Z" fill="#C83547"/>
<path d="M43.7238 20.3935L42.7564 20.2782C42.6936 20.271 42.6432 20.3278 42.6572 20.3883L42.8766 21.3374C42.8805 21.3553 42.8902 21.3724 42.9047 21.3848L46.9918 25.0391C47.0054 25.0514 47.0226 25.0596 47.0411 25.0615L48.0085 25.1769C48.0713 25.1841 48.1218 25.1273 48.1077 25.0668L47.8883 24.1176C47.8844 24.0998 47.8747 24.0827 47.8602 24.0703L43.7731 20.416C43.7596 20.4037 43.7423 20.3955 43.7238 20.3935Z" fill="#C83547"/>
<path d="M44.463 18.1796L43.5672 18.5632C43.5091 18.5881 43.4939 18.6625 43.5374 18.7083L44.2026 19.4208C44.2149 19.4347 44.2319 19.4439 44.25 19.4476L49.6165 20.569C49.6346 20.5727 49.6539 20.571 49.6704 20.564L50.5663 20.1805C50.6243 20.1555 50.6396 20.0811 50.5961 20.0353L49.9309 19.3228C49.9186 19.309 49.9016 19.2998 49.8834 19.2961L44.517 18.1746C44.4989 18.1709 44.4796 18.1726 44.463 18.1796Z" fill="#C83547"/>
<path d="M43.9956 15.8902L43.4119 16.6697C43.3742 16.7197 43.398 16.7926 43.4577 16.8106L44.3895 17.0945C44.4073 17.1001 44.4262 17.1001 44.4444 17.0944L49.6529 15.3823C49.6702 15.3764 49.6857 15.3654 49.6972 15.3507L50.2809 14.5712C50.3186 14.5212 50.2948 14.4483 50.2351 14.4303L49.3033 14.1464C49.2855 14.1408 49.2666 14.1407 49.2484 14.1465L44.0399 15.8586C44.0226 15.8645 44.0071 15.8755 43.9956 15.8902Z" fill="#C83547"/>
<path d="M42.4468 14.1428L42.3314 15.1102C42.3242 15.173 42.381 15.2234 42.4416 15.2094L43.3907 14.99C43.4085 14.9861 43.4256 14.9764 43.4381 14.9619L47.0924 10.8748C47.1046 10.8612 47.1129 10.844 47.1148 10.8255L47.2301 9.85809C47.2374 9.79526 47.1806 9.74483 47.12 9.75888L46.1709 9.97826C46.1531 9.98217 46.1359 9.99189 46.1235 10.0064L42.4692 14.0935C42.457 14.107 42.4487 14.1243 42.4468 14.1428Z" fill="#C83547"/>
<path d="M40.2316 13.4024L40.6151 14.2982C40.6401 14.3563 40.7145 14.3716 40.7603 14.328L41.4728 13.6628C41.4866 13.6506 41.4958 13.6335 41.4995 13.6154L42.621 8.24895C42.6247 8.2308 42.623 8.21154 42.616 8.19497L42.2324 7.29916C42.2075 7.24108 42.1331 7.2258 42.0873 7.26935L41.3748 7.93451C41.3609 7.9468 41.3517 7.96383 41.348 7.98198L40.2266 13.3484C40.2229 13.3666 40.2246 13.3858 40.2316 13.4024Z" fill="#C83547"/>
<path d="M37.9434 13.8701L38.7229 14.4538C38.7729 14.4915 38.8459 14.4677 38.8638 14.408L39.1477 13.4762C39.1533 13.4584 39.1534 13.4395 39.1477 13.4213L37.4355 8.21277C37.4296 8.19548 37.4186 8.17999 37.404 8.16847L36.6244 7.58478C36.5745 7.5471 36.5015 7.57089 36.4836 7.63057L36.1996 8.56243C36.1941 8.5802 36.194 8.5991 36.1997 8.6173L37.9118 13.8258C37.9177 13.8431 37.9287 13.8586 37.9434 13.8701Z" fill="#C83547"/>
<path d="M36.1958 15.4199L37.1632 15.5353C37.226 15.5425 37.2764 15.4857 37.2624 15.4252L37.043 14.476C37.0391 14.4582 37.0294 14.4411 37.0149 14.4287L32.9278 10.7744C32.9142 10.7621 32.897 10.7539 32.8785 10.7519L31.9111 10.6366C31.8482 10.6294 31.7978 10.6862 31.8119 10.7467L32.0313 11.6958C32.0352 11.7137 32.0449 11.7308 32.0594 11.7432L36.1465 15.3975C36.16 15.4098 36.1772 15.418 36.1958 15.4199Z" fill="#C83547"/>
<path d="M35.4563 17.6353L36.3521 17.2518C36.4102 17.2268 36.4254 17.1524 36.3819 17.1066L35.7167 16.3941C35.7044 16.3802 35.6874 16.3711 35.6693 16.3673L30.3028 15.2459C30.2847 15.2422 30.2654 15.2439 30.2489 15.2509L29.353 15.6344C29.295 15.6594 29.2797 15.7338 29.3232 15.7796L29.9884 16.4921C30.0007 16.506 30.0177 16.5151 30.0359 16.5189L35.4023 17.6403C35.4204 17.644 35.4397 17.6423 35.4563 17.6353Z" fill="#C83547"/>
<path d="M35.9237 19.923L36.5074 19.1434C36.5451 19.0935 36.5213 19.0205 36.4616 19.0026L35.5298 18.7186C35.512 18.7131 35.4931 18.713 35.4749 18.7187L30.2664 20.4309C30.2491 20.4368 30.2336 20.4478 30.2221 20.4624L29.6384 21.242C29.6007 21.2919 29.6245 21.3649 29.6842 21.3828L30.616 21.6668C30.6338 21.6723 30.6527 21.6724 30.6709 21.6667L35.8794 19.9546C35.8967 19.9487 35.9122 19.9376 35.9237 19.923Z" fill="#C83547"/>
<path d="M37.4734 21.6712L37.5887 20.7038C37.596 20.641 37.5392 20.5905 37.4786 20.6046L36.5295 20.824C36.5116 20.8279 36.4945 20.8376 36.4821 20.8521L32.8278 24.9392C32.8155 24.9527 32.8073 24.97 32.8054 24.9885L32.69 25.9559C32.6828 26.0187 32.7396 26.0691 32.8002 26.0551L33.7493 25.8357C33.7671 25.8318 33.7842 25.8221 33.7967 25.8076L37.451 21.7205C37.4632 21.7069 37.4715 21.6897 37.4734 21.6712Z" fill="#C83547"/>
<path d="M37.2593 30.0898L37.5975 29.2117C37.6027 29.1494 37.5437 29.1004 37.4835 29.1173L36.2818 29.282C36.2637 29.2868 36.2473 29.2977 36.236 29.3114L32.4778 33.8586C32.4663 33.8732 32.4589 33.8906 32.457 33.9091L32.3805 34.8807C32.3753 34.943 32.4343 34.992 32.4945 34.9751L33.4337 34.7167C33.4517 34.7119 33.4681 34.7011 33.4794 34.6874L37.2376 30.1402C37.2491 30.1256 37.2565 30.1082 37.2584 30.0896L37.2593 30.0898Z" fill="#C83547"/>
<path d="M37.6611 30.2056L37.7113 29.2655C37.732 29.2064 37.806 29.1866 37.8547 29.2259L38.8834 29.8674C38.898 29.8789 38.9079 29.8951 38.9128 29.9131L40.4824 35.5993C40.4872 35.6173 40.4871 35.6362 40.4807 35.6538L40.1534 36.5711C40.1327 36.6302 40.0587 36.65 40.01 36.6107L39.2586 35.9912C39.2439 35.9797 39.234 35.9634 39.2292 35.9454L37.6596 30.2592C37.6548 30.2412 37.6549 30.2223 37.6613 30.2047L37.6611 30.2056Z" fill="#C83547"/>
<path d="M43.7506 29.8417L43.6047 28.9124C43.5776 28.8558 43.5026 28.8432 43.4584 28.8881L42.5001 29.6314C42.4869 29.6447 42.4787 29.662 42.4749 29.6801L41.4946 35.4973C41.4908 35.5154 41.4946 35.5342 41.5023 35.5518L41.9213 36.4313C41.9485 36.4879 42.0235 36.5005 42.0676 36.4556L42.7519 35.762C42.7651 35.7486 42.7733 35.7314 42.777 35.7133L43.7574 29.8961C43.7611 29.8779 43.7574 29.8592 43.7497 29.8415L43.7506 29.8417Z" fill="#C83547"/>
<path d="M44.1553 29.7409L43.729 28.9015C43.718 28.8397 43.7708 28.7853 43.8329 28.7961L45.0443 28.8377C45.0625 28.8414 45.0797 28.8497 45.0931 28.8628L49.2953 33.0023C49.3086 33.0154 49.3175 33.0323 49.3205 33.05L49.4955 34.008C49.5064 34.0698 49.4536 34.1242 49.3916 34.1134L48.4306 33.953C48.4124 33.9492 48.3952 33.941 48.3818 33.9278L44.1796 29.7884C44.1662 29.7753 44.1574 29.7583 44.1544 29.7407L44.1553 29.7409Z" fill="#C83547"/>
<path d="M49.2474 26.3805L48.6562 25.6482C48.6048 25.6131 48.5333 25.6391 48.517 25.7L48.0595 26.8232C48.0548 26.8412 48.0556 26.8603 48.0625 26.8777L50.1213 32.4062C50.1281 32.4236 50.1393 32.4382 50.155 32.449L50.9582 33.0007C51.0096 33.0358 51.0811 33.0098 51.0974 32.9489L51.3438 32.0065C51.3484 31.9885 51.3476 31.9694 51.3408 31.952L49.282 26.4235C49.2752 26.4061 49.264 26.3915 49.2483 26.3807L49.2474 26.3805Z" fill="#C83547"/>
<path d="M49.5481 26.0893L48.7598 25.5757C48.7195 25.5277 48.7384 25.454 48.7969 25.432L49.8671 24.862C49.8846 24.8552 49.9037 24.8544 49.9216 24.859L55.6307 26.343C55.6487 26.3476 55.6646 26.3575 55.6767 26.3723L56.3074 27.1145C56.3477 27.1625 56.3287 27.2362 56.2703 27.2583L55.3576 27.5995C55.3402 27.6064 55.3211 27.6072 55.3031 27.6025L49.5941 26.1186C49.5761 26.1139 49.5602 26.104 49.5481 26.0893Z" fill="#C83547"/>
<path d="M52.2774 20.6343L51.3993 20.2961C51.337 20.2909 51.288 20.3498 51.3049 20.4101L51.4696 21.6118C51.4744 21.6298 51.4853 21.6462 51.499 21.6576L56.0462 25.4157C56.0608 25.4273 56.0782 25.4346 56.0967 25.4365L57.0683 25.513C57.1306 25.5183 57.1796 25.4593 57.1627 25.3991L56.9043 24.4599C56.8995 24.4419 56.8887 24.4255 56.875 24.4142L52.3278 20.656C52.3132 20.6445 52.2958 20.6371 52.2772 20.6352L52.2774 20.6343Z" fill="#C83547"/>
<path d="M52.3921 20.2329L51.452 20.1827C51.3929 20.1621 51.3731 20.088 51.4124 20.0394L52.0539 19.0107C52.0654 18.996 52.0816 18.9861 52.0996 18.9813L57.7858 17.4117C57.8038 17.4068 57.8227 17.4069 57.8403 17.4134L58.7576 17.7407C58.8167 17.7613 58.8365 17.8354 58.7972 17.8841L58.1777 18.6354C58.1661 18.6501 58.1499 18.66 58.1319 18.6648L52.4457 20.2345C52.4277 20.2393 52.4088 20.2392 52.3912 20.2327L52.3921 20.2329Z" fill="#C83547"/>
<path d="M52.0279 14.143L51.0986 14.2889C51.0419 14.3161 51.0294 14.391 51.0742 14.4352L51.8175 15.3935C51.8309 15.4067 51.8481 15.415 51.8663 15.4187L57.6834 16.399C57.7016 16.4028 57.7203 16.3991 57.738 16.3913L58.6174 15.9723C58.6741 15.9451 58.6866 15.8702 58.6418 15.826L57.9481 15.1417C57.9348 15.1286 57.9175 15.1203 57.8994 15.1166L52.0822 14.1362C52.0641 14.1325 52.0453 14.1362 52.0277 14.1439L52.0279 14.143Z" fill="#C83547"/>
<path d="M51.9265 13.7372L51.0872 14.1635C51.0254 14.1745 50.9709 14.1217 50.9818 14.0596L51.0233 12.8482C51.0271 12.8301 51.0353 12.8128 51.0485 12.7995L55.1879 8.59727C55.2011 8.58389 55.218 8.57507 55.2356 8.57207L56.1936 8.39706C56.2554 8.38611 56.3099 8.43889 56.299 8.50097L56.1386 9.46197C56.1349 9.48012 56.1266 9.49734 56.1135 9.51072L51.9741 13.7129C51.9609 13.7263 51.944 13.7351 51.9263 13.7381L51.9265 13.7372Z" fill="#C83547"/>
<path d="M48.5658 8.64543L47.8335 9.23655C47.7984 9.28797 47.8243 9.3595 47.8853 9.37579L49.0085 9.83332C49.0265 9.83795 49.0455 9.83714 49.063 9.83033L54.5914 7.77153C54.6089 7.76472 54.6235 7.75353 54.6343 7.73778L55.1859 6.93463C55.2211 6.88322 55.1951 6.81168 55.1341 6.79539L54.1917 6.54898C54.1738 6.54435 54.1547 6.54516 54.1372 6.55198L48.6088 8.61077C48.5913 8.61758 48.5767 8.62877 48.5659 8.64452L48.5658 8.64543Z" fill="#C83547"/>
<path d="M48.2765 8.34496L47.7629 9.13321C47.7149 9.17348 47.6413 9.15458 47.6192 9.09615L47.0493 8.02589C47.0425 8.00841 47.0416 7.98933 47.0463 7.97137L48.5303 2.26231C48.5349 2.24435 48.5448 2.22841 48.5596 2.21631L49.3018 1.58564C49.3498 1.54537 49.4235 1.56427 49.4455 1.62271L49.7868 2.53538C49.7936 2.55285 49.7945 2.57194 49.7898 2.5899L48.3058 8.29896C48.3012 8.31692 48.2913 8.33286 48.2765 8.34496Z" fill="#C83547"/>
<path d="M42.8204 5.61498L42.4822 6.49315C42.477 6.55544 42.536 6.60443 42.5962 6.58747L43.7979 6.42278C43.8159 6.41796 43.8323 6.40715 43.8437 6.3934L47.6019 1.84625C47.6134 1.83159 47.6207 1.81419 47.6226 1.79567L47.6991 0.824063C47.7044 0.761773 47.6454 0.712784 47.5852 0.729739L46.646 0.988057C46.628 0.992871 46.6116 1.00369 46.6003 1.01744L42.8421 5.56459C42.8306 5.57924 42.8232 5.59665 42.8213 5.61517L42.8204 5.61498Z" fill="#C83547"/>
<path d="M36.3289 5.86602L36.4748 6.79532C36.5019 6.85196 36.5769 6.86452 36.6211 6.81968L37.5794 6.07638C37.5926 6.063 37.6008 6.04578 37.6046 6.02763L38.5849 0.210464C38.5886 0.192315 38.5849 0.173583 38.5772 0.155921L38.1582 -0.723536C38.131 -0.780176 38.056 -0.792727 38.0118 -0.747894L37.3276 -0.0542511C37.3144 -0.0408733 37.3062 -0.0236556 37.3024 -0.00550648L36.3221 5.81166C36.3184 5.82981 36.3221 5.84854 36.3298 5.8662L36.3289 5.86602Z" fill="#C83547"/>
<path d="M35.9241 5.96719L36.3505 6.80653C36.3614 6.86836 36.3087 6.92277 36.2466 6.91192L35.0352 6.87036C35.017 6.86664 34.9998 6.85837 34.9864 6.84522L30.7842 2.7058C30.7708 2.69265 30.762 2.67571 30.759 2.65807L30.584 1.70009C30.573 1.63827 30.6258 1.58385 30.6879 1.5947L31.6489 1.75508C31.6671 1.75881 31.6843 1.76707 31.6977 1.78022L35.8999 5.91964C35.9132 5.93279 35.9221 5.94973 35.9251 5.96737L35.9241 5.96719Z" fill="#C83547"/>
<path d="M30.8321 9.32789L31.4233 10.0601C31.4747 10.0953 31.5462 10.0693 31.5625 10.0083L32.02 8.88515C32.0247 8.86719 32.0239 8.84811 32.017 8.83063L29.9582 3.30221C29.9514 3.28474 29.9402 3.27015 29.9245 3.25935L29.1213 2.7077C29.0699 2.67255 28.9984 2.69854 28.9821 2.7595L28.7357 3.7019C28.7311 3.71986 28.7319 3.73894 28.7387 3.75642L30.7975 9.28484C30.8043 9.30231 30.8155 9.3169 30.8312 9.3277L30.8321 9.32789Z" fill="#C83547"/>
<path d="M30.5316 9.61611L31.3198 10.1297C31.3601 10.1777 31.3412 10.2514 31.2828 10.2734L30.2125 10.8434C30.1951 10.8502 30.176 10.851 30.158 10.8464L24.4489 9.36239C24.431 9.35776 24.415 9.34787 24.4029 9.33309L23.7723 8.59082C23.732 8.54284 23.7509 8.46917 23.8093 8.44712L24.722 8.10582C24.7395 8.099 24.7586 8.09819 24.7765 8.10283L30.4856 9.58681C30.5036 9.59144 30.5195 9.60133 30.5316 9.61611Z" fill="#C83547"/>
<path d="M27.803 15.0726L28.6811 15.4108C28.7434 15.416 28.7924 15.357 28.7754 15.2968L28.6107 14.095C28.6059 14.077 28.5951 14.0606 28.5814 14.0493L24.0342 10.2911C24.0196 10.2796 24.0022 10.2722 23.9836 10.2703L23.012 10.1938C22.9497 10.1886 22.9007 10.2476 22.9177 10.3078L23.176 11.2469C23.1808 11.2649 23.1917 11.2814 23.2054 11.2927L27.7526 15.0509C27.7672 15.0624 27.7846 15.0697 27.8031 15.0717L27.803 15.0726Z" fill="#C83547"/>
<path d="M27.6872 15.4752L28.6274 15.5254C28.6865 15.546 28.7063 15.62 28.667 15.6687L28.0255 16.6974C28.014 16.7121 27.9978 16.722 27.9798 16.7268L22.2936 18.2964C22.2756 18.3012 22.2567 18.3011 22.2391 18.2947L21.3218 17.9674C21.2627 17.9467 21.2429 17.8727 21.2822 17.824L21.9017 17.0726C21.9132 17.058 21.9294 17.0481 21.9475 17.0433L27.6336 15.4736C27.6517 15.4688 27.6706 15.4689 27.6881 15.4754L27.6872 15.4752Z" fill="#C83547"/>
<path d="M28.0517 21.5647L28.981 21.4188C29.0376 21.3917 29.0502 21.3167 29.0053 21.2725L28.262 20.3142C28.2487 20.3011 28.2314 20.2928 28.2133 20.2891L22.3961 19.3087C22.378 19.305 22.3592 19.3087 22.3416 19.3164L21.4621 19.7355C21.4055 19.7626 21.3929 19.8376 21.4378 19.8818L22.1314 20.566C22.1448 20.5792 22.162 20.5874 22.1801 20.5912L27.9973 21.5715C28.0155 21.5753 28.0342 21.5715 28.0519 21.5638L28.0517 21.5647Z" fill="#C83547"/>
<path d="M28.153 21.9695L28.9923 21.5432C29.0541 21.5323 29.1086 21.585 29.0977 21.6471L29.0561 22.8585C29.0524 22.8767 29.0442 22.8939 29.031 22.9073L24.8916 27.1095C24.8784 27.1229 24.8615 27.1317 24.8439 27.1347L23.8859 27.3097C23.8241 27.3206 23.7696 27.2679 23.7805 27.2058L23.9409 26.2448C23.9446 26.2266 23.9529 26.2094 23.966 26.196L28.1054 21.9938C28.1186 21.9805 28.1355 21.9716 28.1532 21.9686L28.153 21.9695Z" fill="#C83547"/>
<path d="M31.5137 27.0619L32.246 26.4707C32.2811 26.4193 32.2551 26.3478 32.1942 26.3315L31.071 25.874C31.053 25.8693 31.0339 25.8702 31.0165 25.877L25.488 27.9358C25.4706 27.9426 25.456 27.9538 25.4452 27.9695L24.8935 28.7727C24.8584 28.8241 24.8844 28.8956 24.9453 28.9119L25.8877 29.1583C25.9057 29.1629 25.9248 29.1621 25.9422 29.1553L31.4707 27.0965C31.4881 27.0897 31.5027 27.0785 31.5135 27.0628L31.5137 27.0619Z" fill="#C83547"/>
<path d="M31.8039 27.3606L32.3175 26.5723C32.3655 26.532 32.4392 26.5509 32.4612 26.6094L33.0312 27.6796C33.038 27.6971 33.0388 27.7162 33.0342 27.7342L31.5502 33.4432C31.5456 33.4612 31.5357 33.4771 31.5209 33.4892L30.7786 34.1199C30.7307 34.1602 30.657 34.1413 30.6349 34.0828L30.2936 33.1701C30.2868 33.1527 30.286 33.1336 30.2907 33.1156L31.7746 27.4066C31.7793 27.3886 31.7892 27.3727 31.8039 27.3606Z" fill="#C83547"/>
</g>
</svg>
