<svg width="105" height="105" viewBox="0 0 105 105" fill="none" xmlns="http://www.w3.org/2000/svg">
<path d="M51.0666 1.40799C51.8624 0.626345 53.1376 0.626345 53.9334 1.40799L57.073 4.49205C57.7347 5.14201 58.7509 5.2654 59.5489 4.79267L63.3354 2.54961C64.2951 1.9811 65.5333 2.2863 66.1188 3.23567L68.4292 6.98147C68.9161 7.7709 69.8733 8.1339 70.7612 7.86588L74.9744 6.59415C76.0423 6.27183 77.1715 6.86448 77.5128 7.9264L78.8596 12.1163C79.1435 12.9993 79.9859 13.5808 80.9122 13.5331L85.3074 13.3066C86.4213 13.2492 87.3759 14.0948 87.4532 15.2076L87.7581 19.598C87.8224 20.5233 88.5012 21.2895 89.412 21.4648L93.7336 22.2968C94.829 22.5076 95.5534 23.5572 95.3621 24.6561L94.6075 28.9919C94.4485 29.9057 94.9242 30.8121 95.7666 31.2003L99.7636 33.0423C100.777 33.5091 101.229 34.7015 100.78 35.7228L99.0098 39.752C98.6367 40.6012 98.8817 41.5951 99.6067 42.1736L103.047 44.9186C103.919 45.6143 104.072 46.8803 103.392 47.7645L100.709 51.253C100.144 51.9882 100.144 53.0118 100.709 53.747L103.392 57.2355C104.072 58.1197 103.919 59.3857 103.047 60.0814L99.6067 62.8264C98.8817 63.4049 98.6367 64.3988 99.0098 65.248L100.78 69.2772C101.229 70.2985 100.777 71.4909 99.7636 71.9577L95.7666 73.7997C94.9242 74.1879 94.4485 75.0943 94.6075 76.0081L95.3621 80.3439C95.5534 81.4428 94.829 82.4924 93.7336 82.7032L89.412 83.5351C88.5012 83.7105 87.8224 84.4767 87.7581 85.402L87.4532 89.7924C87.3759 90.9052 86.4213 91.7508 85.3074 91.6934L80.9122 91.4669C79.9859 91.4192 79.1435 92.0007 78.8596 92.8837L77.5128 97.0736C77.1715 98.1355 76.0423 98.7282 74.9744 98.4058L70.7612 97.1341C69.8733 96.8661 68.9161 97.2291 68.4292 98.0185L66.1188 101.764C65.5333 102.714 64.2951 103.019 63.3354 102.45L59.5489 100.207C58.7509 99.7346 57.7347 99.858 57.073 100.508L53.9334 103.592C53.1376 104.374 51.8624 104.374 51.0666 103.592L47.927 100.508C47.2653 99.858 46.2491 99.7346 45.4511 100.207L41.6646 102.45C40.7049 103.019 39.4667 102.714 38.8812 101.764L36.5708 98.0185C36.0839 97.2291 35.1268 96.8661 34.2388 97.1341L30.0256 98.4058C28.9577 98.7282 27.8285 98.1355 27.4872 97.0736L26.1404 92.8837C25.8565 92.0007 25.0141 91.4192 24.0878 91.4669L19.6926 91.6934C18.5787 91.7508 17.6241 90.9052 17.5468 89.7924L17.2419 85.402C17.1776 84.4767 16.4988 83.7105 15.588 83.5351L11.2664 82.7032C10.171 82.4924 9.4466 81.4428 9.63785 80.3439L10.3925 76.0081C10.5515 75.0943 10.0758 74.1879 9.2334 73.7997L5.23643 71.9577C4.2234 71.4909 3.77118 70.2985 4.21986 69.2772L5.99017 65.248C6.36326 64.3988 6.11828 63.4049 5.3933 62.8264L1.95329 60.0814C1.08142 59.3857 0.927705 58.1197 1.60774 57.2355L4.29086 53.747C4.85633 53.0118 4.85633 51.9882 4.29086 51.253L1.60774 47.7645C0.927705 46.8803 1.08142 45.6143 1.95329 44.9186L5.3933 42.1736C6.11828 41.5951 6.36326 40.6012 5.99017 39.752L4.21986 35.7228C3.77118 34.7015 4.2234 33.5091 5.23643 33.0423L9.2334 31.2003C10.0758 30.8121 10.5515 29.9057 10.3925 28.9919L9.63785 24.6561C9.4466 23.5572 10.171 22.5076 11.2664 22.2968L15.588 21.4648C16.4988 21.2895 17.1776 20.5233 17.2419 19.598L17.5468 15.2076C17.6241 14.0948 18.5787 13.2492 19.6926 13.3066L24.0878 13.5331C25.0141 13.5808 25.8565 12.9993 26.1404 12.1163L27.4872 7.9264C27.8285 6.86448 28.9577 6.27183 30.0256 6.59415L34.2388 7.86588C35.1267 8.1339 36.0839 7.7709 36.5708 6.98147L38.8812 3.23567C39.4667 2.2863 40.7049 1.9811 41.6646 2.54961L45.4511 4.79267C46.2491 5.2654 47.2653 5.14201 47.927 4.49205L51.0666 1.40799Z" fill="#131313"/>
<path d="M51.4197 61.0703L52.4707 59.557C52.539 59.4589 52.6826 59.4589 52.7509 59.557L53.8177 61.0598C53.8387 61.0879 53.8492 61.1229 53.8492 61.1579L53.886 71.5238C53.886 71.5589 53.8755 71.5939 53.8562 71.6219L52.8052 73.1353C52.7369 73.2334 52.5933 73.2334 52.525 73.1353L51.4583 71.6324C51.4372 71.6044 51.4267 71.5694 51.4267 71.5343L51.39 61.1684C51.39 61.1334 51.4005 61.0984 51.4197 61.0703Z" fill="#C83547"/>
<path d="M47.3596 59.3364L49.0254 58.5517C49.1322 58.5009 49.2583 58.5727 49.2688 58.6901L49.4405 60.524C49.444 60.559 49.437 60.5941 49.4195 60.6256L44.268 69.6217C44.2505 69.6515 44.2243 69.676 44.1927 69.6918L42.527 70.4765C42.4201 70.5273 42.294 70.4555 42.2835 70.3381L42.1118 68.5042C42.1083 68.4692 42.1153 68.4342 42.1329 68.4026L47.2843 59.4065C47.3018 59.3767 47.3281 59.3522 47.3596 59.3364Z" fill="#C83547"/>
<path d="M44.7112 55.8025L46.5469 55.9567C46.666 55.9672 46.7378 56.0915 46.6888 56.1984L45.9216 57.8729C45.9076 57.9044 45.883 57.9325 45.8515 57.95L36.8921 63.1644C36.8623 63.182 36.8273 63.1907 36.7923 63.1872L34.9566 63.0331C34.8375 63.0226 34.7657 62.8982 34.8147 62.7914L35.5819 61.1168C35.5959 61.0853 35.6205 61.0573 35.652 61.0398L44.6114 55.8253C44.6412 55.8078 44.6762 55.799 44.7112 55.8025Z" fill="#C83547"/>
<path d="M44.184 51.4194L45.6974 52.4704C45.7955 52.5387 45.7955 52.6823 45.6974 52.7506L44.1945 53.8174C44.1665 53.8384 44.1314 53.8489 44.0964 53.8489L33.7305 53.8857C33.6955 53.8857 33.6604 53.8752 33.6324 53.8559L32.119 52.8049C32.0209 52.7366 32.0209 52.593 32.119 52.5247L33.6219 51.458C33.6499 51.4369 33.685 51.4264 33.72 51.4264L44.0859 51.3896C44.1209 51.3896 44.156 51.4002 44.184 51.4194Z" fill="#C83547"/>
<path d="M45.9198 47.36L46.7045 49.0257C46.7553 49.1326 46.6835 49.2587 46.5661 49.2692L44.7322 49.4409C44.6972 49.4444 44.6621 49.4373 44.6306 49.4198L35.6344 44.2684C35.6047 44.2509 35.5801 44.2246 35.5644 44.1931L34.7797 42.5273C34.7289 42.4205 34.8007 42.2944 34.918 42.2839L36.752 42.1122C36.787 42.1087 36.822 42.1157 36.8536 42.1332L45.8497 47.2846C45.8795 47.3022 45.904 47.3284 45.9198 47.36Z" fill="#C83547"/>
<path d="M49.4527 44.7119L49.2986 46.5476C49.2881 46.6667 49.1637 46.7385 49.0569 46.6894L47.3823 45.9222C47.3508 45.9082 47.3228 45.8837 47.3053 45.8522L42.0908 36.8928C42.0733 36.863 42.0645 36.828 42.068 36.793L42.2222 34.9573C42.2327 34.8382 42.357 34.7664 42.4639 34.8154L44.1384 35.5826C44.1699 35.5966 44.198 35.6211 44.2155 35.6527L49.43 44.612C49.4475 44.6418 49.4562 44.6769 49.4527 44.7119Z" fill="#C83547"/>
<path d="M53.837 44.1844L52.786 45.6978C52.7177 45.7959 52.5741 45.7959 52.5058 45.6978L51.439 44.1949C51.418 44.1669 51.4075 44.1319 51.4075 44.0968L51.3707 33.7309C51.3707 33.6959 51.3812 33.6609 51.4005 33.6328L52.4515 32.1195C52.5198 32.0214 52.6634 32.0214 52.7317 32.1195L53.7984 33.6223C53.8194 33.6504 53.83 33.6854 53.83 33.7204L53.8667 44.0863C53.8667 44.1214 53.8562 44.1564 53.837 44.1844Z" fill="#C83547"/>
<path d="M57.8971 45.9193L56.2314 46.7041C56.1245 46.7549 55.9984 46.683 55.9879 46.5657L55.8162 44.7318C55.8127 44.6967 55.8197 44.6617 55.8373 44.6302L60.9887 35.634C61.0062 35.6042 61.0325 35.5797 61.064 35.564L62.7298 34.7792C62.8366 34.7284 62.9627 34.8003 62.9732 34.9176L63.1449 36.7515C63.1484 36.7866 63.1414 36.8216 63.1239 36.8531L57.9725 45.8493C57.9549 45.8791 57.9287 45.9036 57.8971 45.9193Z" fill="#C83547"/>
<path d="M60.5455 49.4519L58.7099 49.2977C58.5907 49.2872 58.5189 49.1629 58.568 49.056L59.3352 47.3815C59.3492 47.35 59.3737 47.3219 59.4052 47.3044L68.3646 42.0899C68.3944 42.0724 68.4294 42.0637 68.4645 42.0672L70.3001 42.2213C70.4192 42.2318 70.491 42.3562 70.442 42.463L69.6748 44.1375C69.6608 44.1691 69.6363 44.1971 69.6047 44.2146L60.6454 49.4291C60.6156 49.4466 60.5806 49.4554 60.5455 49.4519Z" fill="#C83547"/>
<path d="M61.0728 53.8373L59.5594 52.7864C59.4613 52.7181 59.4613 52.5744 59.5594 52.5061L61.0623 51.4394C61.0903 51.4184 61.1253 51.4079 61.1604 51.4079L71.5263 51.3711C71.5613 51.3711 71.5963 51.3816 71.6244 51.4009L73.1377 52.4518C73.2358 52.5201 73.2358 52.6638 73.1377 52.7321L71.6349 53.7988C71.6068 53.8198 71.5718 53.8303 71.5368 53.8303L61.1709 53.8671C61.1358 53.8671 61.1008 53.8566 61.0728 53.8373Z" fill="#C83547"/>
<path d="M59.3369 57.8972L58.5522 56.2314C58.5014 56.1246 58.5732 55.9985 58.6906 55.988L60.5245 55.8163C60.5595 55.8128 60.5945 55.8198 60.6261 55.8373L69.6222 60.9887C69.652 61.0063 69.6765 61.0325 69.6923 61.0641L70.477 62.7298C70.5278 62.8367 70.456 62.9628 70.3386 62.9733L68.5047 63.1449C68.4697 63.1485 68.4347 63.1414 68.4031 63.1239L59.407 57.9725C59.3772 57.955 59.3527 57.9287 59.3369 57.8972Z" fill="#C83547"/>
<path d="M55.8023 60.5449L55.9564 58.7092C55.9669 58.5901 56.0913 58.5183 56.1981 58.5674L57.8727 59.3346C57.9042 59.3486 57.9322 59.3731 57.9497 59.4046L63.1642 68.364C63.1817 68.3938 63.1905 68.4288 63.187 68.4638L63.0328 70.2995C63.0223 70.4186 62.898 70.4904 62.7911 70.4414L61.1166 69.6742C61.0851 69.6602 61.057 69.6357 61.0395 69.6041L55.825 60.6447C55.8075 60.615 55.7988 60.5799 55.8023 60.5449Z" fill="#C83547"/>
<path d="M52.9974 76.2218L52.7049 74.4667C52.7189 74.3493 52.8468 74.281 52.9519 74.3353L55.1151 75.0973C55.1466 75.113 55.1729 75.1393 55.1886 75.1691L60.4206 85.02C60.4364 85.0516 60.4434 85.0866 60.4399 85.1216L60.2122 86.9503C60.1982 87.0676 60.0703 87.1359 59.9652 87.0816L58.324 86.2461C58.2925 86.2304 58.2662 86.2041 58.2504 86.1743L53.0184 76.3234C53.0027 76.2919 52.9957 76.2568 52.9992 76.2218H52.9974Z" fill="#C83547"/>
<path d="M52.2092 76.2836L52.4737 74.5233C52.4579 74.4059 52.3283 74.3411 52.2232 74.3954L50.074 75.1924C50.0425 75.2082 50.018 75.2344 50.0022 75.266L44.9331 85.201C44.9174 85.2325 44.9104 85.2675 44.9156 85.3026L45.1731 87.126C45.1889 87.2433 45.3185 87.3081 45.4236 87.2538L47.0508 86.392C47.0823 86.3763 47.1068 86.35 47.1226 86.3185L52.1917 76.3835C52.2075 76.3519 52.2145 76.3169 52.2092 76.2819V76.2836Z" fill="#C83547"/>
<path d="M41.069 73.2941L41.6926 71.6283C41.7644 71.5337 41.908 71.539 41.9729 71.6388L43.4652 73.3799C43.4845 73.4097 43.4932 73.4447 43.4932 73.4798L43.0974 84.6269C43.0974 84.6619 43.0834 84.6952 43.0623 84.725L41.9518 86.1945C41.88 86.2891 41.7364 86.2839 41.6716 86.184L40.6679 84.6391C40.6487 84.6093 40.6399 84.5743 40.6399 84.5393L41.0358 73.3922C41.0358 73.3571 41.0498 73.3239 41.0708 73.2941H41.069Z" fill="#C83547"/>
<path d="M40.358 72.9532L41.4667 71.5607C41.5105 71.4503 41.4334 71.3295 41.3143 71.326L39.0548 70.9424C39.0197 70.9424 38.9847 70.9511 38.9549 70.9704L29.5979 77.0397C29.5682 77.0589 29.5454 77.087 29.5331 77.1185L28.8448 78.8263C28.801 78.9366 28.878 79.0575 28.9971 79.061L30.8381 79.1293C30.8731 79.1293 30.9081 79.1205 30.9379 79.1013L40.2949 73.032C40.3247 73.0128 40.3474 72.9847 40.3597 72.9532H40.358Z" fill="#C83547"/>
<path d="M32.2043 64.7924L33.5776 63.6609C33.6862 63.6154 33.8088 63.6907 33.8158 63.8098L34.2362 66.0641C34.2379 66.0991 34.2292 66.1341 34.2099 66.1639L28.2948 75.6207C28.2755 75.6505 28.2492 75.6733 28.2159 75.6873L26.5187 76.4037C26.4101 76.4492 26.2874 76.3739 26.2804 76.2548L26.1823 74.4157C26.1806 74.3806 26.1894 74.3456 26.2086 74.3158L32.1237 64.859C32.143 64.8292 32.1693 64.8064 32.2026 64.7924H32.2043Z" fill="#C83547"/>
<path d="M31.7576 64.1397L33.4128 63.4881C33.5057 63.4145 33.4987 63.2709 33.3988 63.2078L31.6332 61.7452C31.6034 61.726 31.5684 61.7172 31.5334 61.719L20.395 62.297C20.36 62.2987 20.3267 62.311 20.2987 62.3338L18.8484 63.4688C18.7555 63.5424 18.7625 63.686 18.8624 63.7491L20.423 64.7282C20.4528 64.7475 20.4878 64.7562 20.5229 64.7545L31.6612 64.1765C31.6963 64.1747 31.7296 64.1624 31.7576 64.1397Z" fill="#C83547"/>
<path d="M28.7764 52.9986L30.5315 52.7061C30.6489 52.7201 30.7172 52.8479 30.6629 52.953L29.9009 55.1162C29.8852 55.1478 29.8589 55.174 29.8291 55.1898L19.9782 60.4218C19.9467 60.4376 19.9116 60.4446 19.8766 60.4411L18.0479 60.2134C17.9306 60.1994 17.8623 60.0715 17.9166 59.9664L18.7521 58.3251C18.7678 58.2936 18.7941 58.2673 18.8239 58.2516L28.6748 53.0196C28.7064 53.0038 28.7414 52.9968 28.7764 53.0003V52.9986Z" fill="#C83547"/>
<path d="M28.7169 52.2104L30.4772 52.4749C30.5946 52.4591 30.6594 52.3295 30.6051 52.2244L29.8081 50.0752C29.7924 50.0437 29.7661 50.0191 29.7346 50.0034L19.7995 44.9343C19.768 44.9185 19.733 44.9115 19.6979 44.9168L17.8745 45.1742C17.7572 45.19 17.6924 45.3196 17.7467 45.4247L18.6085 47.0519C18.6242 47.0835 18.6505 47.108 18.682 47.1238L28.617 52.1929C28.6486 52.2086 28.6836 52.2156 28.7186 52.2104H28.7169Z" fill="#C83547"/>
<path d="M31.7069 41.0698L33.3726 41.6933C33.4672 41.7651 33.462 41.9088 33.3621 41.9736L31.6211 43.4659C31.5913 43.4852 31.5562 43.494 31.5212 43.494L20.3741 43.0981C20.3391 43.0981 20.3058 43.0841 20.276 43.0631L18.8064 41.9526C18.7118 41.8808 18.7171 41.7371 18.8169 41.6723L20.3618 40.6687C20.3916 40.6494 20.4266 40.6406 20.4617 40.6406L31.6088 41.0365C31.6438 41.0365 31.6771 41.0505 31.7069 41.0715V41.0698Z" fill="#C83547"/>
<path d="M32.0484 40.3586L33.4409 41.4674C33.5513 41.5112 33.6721 41.4341 33.6756 41.315L34.0592 39.0554C34.0592 39.0204 34.0505 38.9854 34.0312 38.9556L27.962 29.5986C27.9427 29.5688 27.9147 29.5461 27.8831 29.5338L26.1753 28.8454C26.065 28.8016 25.9441 28.8787 25.9406 28.9978L25.8723 30.8387C25.8723 30.8738 25.8811 30.9088 25.9003 30.9386L31.9696 40.2956C31.9889 40.3253 32.0169 40.3481 32.0484 40.3604V40.3586Z" fill="#C83547"/>
<path d="M40.2091 32.2048L41.3406 33.578C41.3861 33.6866 41.3108 33.8093 41.1917 33.8163L38.9374 34.2366C38.9024 34.2384 38.8674 34.2296 38.8376 34.2104L29.3808 28.2953C29.351 28.276 29.3282 28.2497 29.3142 28.2164L28.5978 26.5191C28.5522 26.4105 28.6276 26.2879 28.7467 26.2809L30.5858 26.1828C30.6209 26.1811 30.6559 26.1898 30.6857 26.2091L40.1425 32.1242C40.1723 32.1435 40.1951 32.1698 40.2091 32.203V32.2048Z" fill="#C83547"/>
<path d="M40.8589 31.7589L41.5105 33.4141C41.5841 33.5069 41.7277 33.4999 41.7908 33.4001L43.2533 31.6345C43.2726 31.6047 43.2814 31.5697 43.2796 31.5346L42.7016 20.3963C42.6998 20.3613 42.6876 20.328 42.6648 20.3L41.5298 18.8496C41.4562 18.7568 41.3126 18.7638 41.2495 18.8637L40.2704 20.4243C40.2511 20.4541 40.2424 20.4891 40.2441 20.5242L40.8221 31.6625C40.8239 31.6975 40.8362 31.7308 40.8589 31.7589Z" fill="#C83547"/>
<path d="M52.0025 28.7772L52.295 30.5323C52.281 30.6497 52.1531 30.718 52.048 30.6637L49.8848 29.9017C49.8533 29.886 49.827 29.8597 49.8112 29.8299L44.5792 19.979C44.5635 19.9475 44.5565 19.9124 44.56 19.8774L44.7877 18.0487C44.8017 17.9314 44.9296 17.8631 45.0346 17.9174L46.6759 18.7529C46.7074 18.7686 46.7337 18.7949 46.7495 18.8247L51.9815 28.6756C51.9972 28.7071 52.0042 28.7422 52.0007 28.7772H52.0025Z" fill="#C83547"/>
<path d="M52.7907 28.7172L52.5262 30.4775C52.542 30.5949 52.6716 30.6597 52.7767 30.6054L54.9259 29.8084C54.9575 29.7927 54.982 29.7664 54.9977 29.7349L60.0668 19.7998C60.0826 19.7683 60.0896 19.7333 60.0844 19.6982L59.8269 17.8748C59.8111 17.7575 59.6815 17.6927 59.5764 17.747L57.9492 18.6088C57.9176 18.6245 57.8931 18.6508 57.8774 18.6823L52.8083 28.6173C52.7925 28.6489 52.7855 28.6839 52.7907 28.7189V28.7172Z" fill="#C83547"/>
<path d="M63.9308 31.7075L63.3072 33.3732C63.2354 33.4678 63.0918 33.4626 63.027 33.3627L61.5346 31.6217C61.5153 31.5919 61.5066 31.5568 61.5066 31.5218L61.9025 20.3747C61.9025 20.3397 61.9165 20.3064 61.9375 20.2766L63.048 18.807C63.1198 18.7124 63.2634 18.7177 63.3282 18.8175L64.3319 20.3624C64.3512 20.3922 64.3599 20.4273 64.3599 20.4623L63.9641 31.6094C63.9641 31.6444 63.9501 31.6777 63.929 31.7075H63.9308Z" fill="#C83547"/>
<path d="M64.642 32.0491L63.5332 33.4417C63.4894 33.552 63.5665 33.6729 63.6856 33.6764L65.9452 34.06C65.9802 34.06 66.0152 34.0512 66.045 34.0319L75.402 27.9627C75.4318 27.9434 75.4545 27.9154 75.4668 27.8839L76.1552 26.1761C76.199 26.0657 76.1219 25.9449 76.0028 25.9414L74.1619 25.873C74.1268 25.873 74.0918 25.8818 74.062 25.9011L64.705 31.9703C64.6753 31.9896 64.6525 32.0176 64.6402 32.0491H64.642Z" fill="#C83547"/>
<path d="M72.7956 40.2087L71.4224 41.3402C71.3138 41.3858 71.1912 41.3105 71.1841 41.1913L70.7638 38.9371C70.762 38.902 70.7708 38.867 70.79 38.8372L76.7052 29.3804C76.7244 29.3506 76.7507 29.3278 76.784 29.3138L78.4813 28.5974C78.5899 28.5519 78.7125 28.6272 78.7195 28.7463L78.8176 30.5855C78.8193 30.6205 78.8106 30.6555 78.7913 30.6853L72.8762 40.1421C72.8569 40.1719 72.8306 40.1947 72.7974 40.2087H72.7956Z" fill="#C83547"/>
<path d="M73.2423 40.8601L71.5871 41.5117C71.4942 41.5853 71.5012 41.7289 71.6011 41.792L73.3667 43.2546C73.3965 43.2738 73.4315 43.2826 73.4665 43.2808L84.6049 42.7028C84.6399 42.7011 84.6732 42.6888 84.7012 42.666L86.1515 41.531C86.2444 41.4574 86.2374 41.3138 86.1375 41.2507L84.5769 40.2716C84.5471 40.2523 84.512 40.2436 84.477 40.2453L73.3387 40.8234C73.3036 40.8251 73.2703 40.8374 73.2423 40.8601Z" fill="#C83547"/>
<path d="M76.2217 52.003L74.4666 52.2955C74.3493 52.2815 74.281 52.1536 74.3353 52.0485L75.0972 49.8853C75.113 49.8538 75.1392 49.8275 75.169 49.8117L85.02 44.5797C85.0515 44.564 85.0865 44.557 85.1216 44.5605L86.9502 44.7882C87.0676 44.8022 87.1359 44.93 87.0816 45.0351L86.2461 46.6764C86.2303 46.7079 86.204 46.7342 86.1743 46.7499L76.3233 51.9819C76.2918 51.9977 76.2568 52.0047 76.2217 52.0012V52.003Z" fill="#C83547"/>
<path d="M76.2831 52.7918L74.5227 52.5273C74.4054 52.5431 74.3406 52.6727 74.3949 52.7778L75.1918 54.927C75.2076 54.9585 75.2339 54.9831 75.2654 54.9988L85.2004 60.0679C85.232 60.0837 85.267 60.0907 85.302 60.0854L87.1254 59.828C87.2428 59.8122 87.3076 59.6826 87.2533 59.5775L86.3915 57.9503C86.3757 57.9187 86.3495 57.8942 86.3179 57.8784L76.3829 52.8093C76.3514 52.7936 76.3164 52.7866 76.2813 52.7918H76.2831Z" fill="#C83547"/>
<path d="M73.2931 63.931L71.6273 63.3075C71.5328 63.2357 71.538 63.092 71.6379 63.0272L73.3789 61.5349C73.4087 61.5156 73.4437 61.5068 73.4788 61.5068L84.6259 61.9027C84.6609 61.9027 84.6942 61.9167 84.724 61.9377L86.1936 63.0482C86.2882 63.12 86.2829 63.2637 86.1831 63.3285L84.6382 64.3321C84.6084 64.3514 84.5733 64.3602 84.5383 64.3602L73.3912 63.9643C73.3562 63.9643 73.3229 63.9503 73.2931 63.9293V63.931Z" fill="#C83547"/>
<path d="M72.9515 64.6427L71.559 63.5339C71.4486 63.4901 71.3278 63.5672 71.3243 63.6863L70.9407 65.9458C70.9407 65.9809 70.9494 66.0159 70.9687 66.0457L77.038 75.4027C77.0572 75.4324 77.0852 75.4552 77.1168 75.4675L78.8246 76.1558C78.9349 76.1996 79.0558 76.1226 79.0593 76.0035L79.1276 74.1625C79.1276 74.1275 79.1188 74.0925 79.0996 74.0627L73.0303 64.7057C73.0111 64.6759 72.983 64.6532 72.9515 64.6409V64.6427Z" fill="#C83547"/>
<path d="M64.7908 72.7967L63.6593 71.4235C63.6138 71.3149 63.6891 71.1923 63.8082 71.1852L66.0625 70.7649C66.0975 70.7631 66.1326 70.7719 66.1623 70.7911L75.6192 76.7063C75.6489 76.7255 75.6717 76.7518 75.6857 76.7851L76.4021 78.4824C76.4477 78.591 76.3723 78.7136 76.2532 78.7206L74.4141 78.8187C74.379 78.8204 74.344 78.8117 74.3142 78.7924L64.8574 72.8773C64.8276 72.858 64.8049 72.8317 64.7908 72.7985V72.7967Z" fill="#C83547"/>
<path d="M64.1393 73.2412L63.4877 71.586C63.4141 71.4931 63.2705 71.5001 63.2075 71.6L61.7449 73.3656C61.7256 73.3954 61.7169 73.4304 61.7186 73.4654L62.2966 84.6038C62.2984 84.6388 62.3106 84.6721 62.3334 84.7001L63.4684 86.1504C63.542 86.2433 63.6856 86.2363 63.7487 86.1364L64.7278 84.5758C64.7471 84.546 64.7559 84.5109 64.7541 84.4759L64.1761 73.3376C64.1743 73.3025 64.1621 73.2692 64.1393 73.2412Z" fill="#C83547"/>
</svg>
