<svg width="64" height="64" viewBox="0 0 64 64" fill="none" xmlns="http://www.w3.org/2000/svg">
<circle cx="32" cy="32" r="32" fill="#EC364C"/>
<path fill-rule="evenodd" clip-rule="evenodd" d="M32 14.6667C23.2104 14.6667 16 22.0807 16 31.3333C16 40.586 23.2104 48 32 48C40.7896 48 48 40.586 48 31.3333C48 22.0807 40.7896 14.6667 32 14.6667ZM13.3333 31.3333C13.3333 20.7037 21.6437 12 32 12C42.3563 12 50.6666 20.7037 50.6666 31.3333C50.6666 41.963 42.3563 50.6667 32 50.6667C21.6437 50.6667 13.3333 41.963 13.3333 31.3333Z" fill="#FFE8D6"/>
<path fill-rule="evenodd" clip-rule="evenodd" d="M40.7671 27.7604H34.1004V25.0938H40.7671V27.7604Z" fill="#FFE8D6"/>
<path fill-rule="evenodd" clip-rule="evenodd" d="M29.0664 27.7604H22.3998V25.0938H29.0664V27.7604Z" fill="#FFE8D6"/>
<path fill-rule="evenodd" clip-rule="evenodd" d="M30.4193 36.1065C30.2374 36.5753 30.1333 37.3198 30.1333 38.2663C30.1333 39.2128 30.2374 39.9573 30.4193 40.4261C30.508 40.6547 30.5906 40.7527 30.6277 40.7856C30.6353 40.7923 30.6387 40.7958 30.6428 40.7976C30.6475 40.7997 30.6531 40.7996 30.6667 40.7996C30.7273 40.7996 30.971 40.7516 31.2575 40.2681C31.5302 39.8079 31.7333 39.1026 31.7333 38.2663C31.7333 37.4299 31.5302 36.7247 31.2575 36.2645C30.971 35.7809 30.7273 35.7329 30.6667 35.7329C30.6531 35.7329 30.6475 35.7329 30.6428 35.7349C30.6387 35.7367 30.6353 35.7402 30.6277 35.7469C30.5906 35.7798 30.508 35.8778 30.4193 36.1065ZM28.4304 35.3349C28.7571 34.4928 29.4413 33.5996 30.6667 33.5996C31.7842 33.5996 32.6072 34.3575 33.0928 35.1769C33.5922 36.0197 33.8667 37.1144 33.8667 38.2663C33.8667 39.4182 33.5922 40.5129 33.0928 41.3556C32.6072 42.175 31.7842 42.9329 30.6667 42.9329C29.4413 42.9329 28.7571 42.0398 28.4304 41.1976C28.1068 40.3635 28 39.308 28 38.2663C28 37.2245 28.1068 36.1691 28.4304 35.3349Z" fill="#FFE8D6"/>
</svg>
