<svg width="106" height="66" viewBox="0 0 106 66" fill="none" xmlns="http://www.w3.org/2000/svg">
<rect x="0.318909" y="7.13086" width="101.645" height="58.6058" rx="29.3029" transform="rotate(-3.47147 0.318909 7.13086)" fill="#F1DDCE"/>
<path fill-rule="evenodd" clip-rule="evenodd" d="M30.2261 20.0515C22.1408 20.725 16.1322 27.8255 16.8057 35.9109C17.4792 43.9962 24.5796 50.0048 32.665 49.3313C40.7504 48.6578 46.7589 41.5574 46.0855 33.472C45.412 25.3866 38.3115 19.378 30.2261 20.0515ZM14.3625 36.1144C13.5766 26.6796 20.5879 18.3942 30.0226 17.6083C39.4574 16.8224 47.7428 23.8337 48.5287 33.2685C49.3146 42.7032 42.3033 50.9886 32.8685 51.7745C23.4338 52.5604 15.1483 45.5491 14.3625 36.1144Z" fill="#C93547"/>
<path fill-rule="evenodd" clip-rule="evenodd" d="M42.0954 31.2278L35.2852 33.2343L34.5923 30.8826L41.4025 28.8761L42.0954 31.2278Z" fill="#C93547"/>
<path fill-rule="evenodd" clip-rule="evenodd" d="M22.7355 34.2886L29.8324 34.0961L29.766 31.6453L22.669 31.8378L22.7355 34.2886Z" fill="#C93547"/>
<path fill-rule="evenodd" clip-rule="evenodd" d="M37.8496 41.4085C37.9933 41.1946 38.1255 40.8126 38.0842 40.3165C38.0429 39.8203 37.8493 39.4654 37.6721 39.2782C37.5862 39.1875 37.5256 39.153 37.4942 39.1406C37.4653 39.158 37.4112 39.2021 37.3415 39.3058C37.1978 39.5197 37.0656 39.9017 37.1069 40.3979C37.1482 40.894 37.3418 41.2489 37.519 41.4361C37.6048 41.5268 37.6655 41.5613 37.6969 41.5737C37.7258 41.5563 37.7799 41.5122 37.8496 41.4085ZM37.6737 41.5839C37.6735 41.5834 37.6769 41.5819 37.6843 41.5805C37.6775 41.5836 37.6738 41.5843 37.6737 41.5839ZM37.7104 41.5783C37.7179 41.5785 37.7215 41.5794 37.7214 41.5799C37.7214 41.5804 37.7177 41.5803 37.7104 41.5783ZM37.5174 39.1304C37.5175 39.1309 37.5141 39.1324 37.5068 39.1338C37.5136 39.1307 37.5173 39.13 37.5174 39.1304ZM37.4807 39.136C37.4732 39.1358 37.4696 39.1349 37.4696 39.1344C37.4697 39.134 37.4734 39.134 37.4807 39.136ZM37.9008 44.022C39.52 43.8871 40.696 42.137 40.5274 40.1129C40.3588 38.0889 38.9095 36.5574 37.2903 36.6923C35.671 36.8272 34.4951 38.5773 34.6637 40.6014C34.8323 42.6254 36.2816 44.1569 37.9008 44.022Z" fill="#C93547"/>
<path fill-rule="evenodd" clip-rule="evenodd" d="M55.3522 18.2515L56.9022 16.7698L63.5868 18.8509L62.858 21.1918L58.2852 19.7681L60.9106 29.7669L58.5393 30.3896L55.3522 18.2515Z" fill="#C93547"/>
<path fill-rule="evenodd" clip-rule="evenodd" d="M55.5652 28.8801C54.258 29.2233 53.4766 30.5613 53.8198 31.8685C54.163 33.1758 55.501 33.9572 56.8082 33.614C58.1155 33.2707 58.8969 31.9328 58.5537 30.6255C58.2104 29.3183 56.8725 28.5368 55.5652 28.8801ZM51.4485 32.4912C50.7614 29.8743 52.3257 27.1959 54.9426 26.5088C57.5595 25.8217 60.2379 27.386 60.925 30.0029C61.6121 32.6198 60.0477 35.2982 57.4309 35.9853C54.814 36.6724 52.1356 35.108 51.4485 32.4912Z" fill="#C93547"/>
<path fill-rule="evenodd" clip-rule="evenodd" d="M68.9587 17.4263L70.5088 15.9446L77.1934 18.0257L76.4646 20.3666L71.8917 18.9429L74.5172 28.9417L72.1459 29.5644L68.9587 17.4263Z" fill="#C93547"/>
<path fill-rule="evenodd" clip-rule="evenodd" d="M69.1718 28.0549C67.8646 28.3981 67.0831 29.7361 67.4264 31.0433C67.7696 32.3506 69.1076 33.132 70.4148 32.7888C71.722 32.4455 72.5035 31.1076 72.1602 29.8003C71.817 28.4931 70.479 27.7117 69.1718 28.0549ZM65.0551 31.666C64.3679 29.0491 65.9323 26.3707 68.5492 25.6836C71.166 24.9965 73.8444 26.5608 74.5316 29.1777C75.2187 31.7946 73.6543 34.473 71.0374 35.1601C68.4206 35.8472 65.7422 34.2828 65.0551 31.666Z" fill="#C93547"/>
<path fill-rule="evenodd" clip-rule="evenodd" d="M82.5653 16.6011L84.1153 15.1194L90.7999 17.2005L90.0711 19.5414L85.4983 18.1177L88.1237 28.1165L85.7524 28.7392L82.5653 16.6011Z" fill="#C93547"/>
<path fill-rule="evenodd" clip-rule="evenodd" d="M82.7783 27.2297C81.4711 27.5729 80.6897 28.9109 81.0329 30.2181C81.3761 31.5254 82.7141 32.3068 84.0213 31.9636C85.3286 31.6203 86.11 30.2824 85.7668 28.9751C85.4235 27.6679 84.0856 26.8865 82.7783 27.2297ZM78.6616 30.8408C77.9745 28.2239 79.5388 25.5455 82.1557 24.8584C84.7726 24.1713 87.451 25.7356 88.1381 28.3525C88.8252 30.9694 87.2608 33.6478 84.644 34.3349C82.0271 35.022 79.3487 33.4577 78.6616 30.8408Z" fill="#C93547"/>
</svg>
