<svg width="62" height="62" viewBox="0 0 62 62" fill="none" xmlns="http://www.w3.org/2000/svg">
<circle cx="31" cy="31" r="31" fill="#131313"/>
<path fill-rule="evenodd" clip-rule="evenodd" d="M31 13.9505C22.3333 13.9505 15.2417 21.2577 15.2417 30.3546C15.2417 39.4515 22.3333 46.7588 31 46.7588C39.6667 46.7588 46.7583 39.4515 46.7583 30.3546C46.7583 21.2577 39.6667 13.9505 31 13.9505ZM13.175 30.3546C13.175 20.1906 21.1191 11.8838 31 11.8838C40.8809 11.8838 48.825 20.1906 48.825 30.3546C48.825 40.5187 40.8809 48.8255 31 48.8255C21.1191 48.8255 13.175 40.5187 13.175 30.3546ZM28.1581 26.6358H21.6998V24.5691H28.1581V26.6358ZM39.4931 26.6358H33.0347V24.5691H39.4931V26.6358ZM29.4687 34.979C29.2925 35.4331 29.1917 36.1544 29.1917 37.0713C29.1917 37.9882 29.2925 38.7095 29.4687 39.1636C29.5546 39.3851 29.6346 39.48 29.6706 39.5119C29.6779 39.5184 29.6812 39.5218 29.6852 39.5235C29.6897 39.5255 29.6952 39.5255 29.7083 39.5255C29.7671 39.5255 30.0031 39.479 30.2807 39.0105C30.5449 38.5647 30.7417 37.8815 30.7417 37.0713C30.7417 36.2611 30.5449 35.5779 30.2807 35.132C30.0031 34.6636 29.7671 34.6171 29.7083 34.6171C29.6952 34.6171 29.6897 34.617 29.6852 34.619C29.6812 34.6208 29.6779 34.6242 29.6706 34.6307C29.6346 34.6626 29.5546 34.7575 29.4687 34.979ZM27.5419 34.2315C27.8584 33.4157 28.5212 32.5505 29.7083 32.5505C30.791 32.5505 31.5882 33.2847 32.0586 34.0785C32.5424 34.8949 32.8083 35.9554 32.8083 37.0713C32.8083 38.1872 32.5424 39.2477 32.0586 40.0641C31.5882 40.8579 30.791 41.5921 29.7083 41.5921C28.5212 41.5921 27.8584 40.7269 27.5419 39.911C27.2284 39.103 27.125 38.0805 27.125 37.0713C27.125 36.0621 27.2284 35.0396 27.5419 34.2315Z" fill="#C93547"/>
</svg>
