<svg width="199" height="68" viewBox="0 0 199 68" fill="none" xmlns="http://www.w3.org/2000/svg">
<rect x="0.394165" y="13.6748" width="157.645" height="54" rx="27" transform="rotate(-3.88684 0.394165 13.6748)" fill="#EC364C"/>
<circle cx="169.935" cy="29.218" r="27" transform="rotate(-3.88684 169.935 29.218)" fill="#EC364C"/>
<path d="M27.9255 45.8657L25.4021 46.0371L25.0025 40.156L18.9214 32.0629L21.9246 31.8588L26.1202 37.7963L29.495 31.3445L32.4773 31.1419L27.526 39.9845L27.9255 45.8657ZM34.0602 38.6816L39.712 38.2976C39.2639 36.9452 38.3214 36.0245 36.7781 36.1294C35.1305 36.2413 34.2905 37.1365 34.0602 38.6816ZM42.4202 40.2297L34.1616 40.7908C34.6433 42.3294 35.7208 43.3876 37.4518 43.27C38.4529 43.202 39.4896 42.7334 40.1059 41.9373L41.9958 43.2336C40.9769 44.5809 39.269 45.3464 37.5797 45.4612C34.2638 45.6865 31.8357 43.2535 31.6118 39.9583C31.3908 36.7049 33.4593 34.155 36.7127 33.9339C39.7785 33.7257 42.1482 36.2255 42.3522 39.2286L42.4202 40.2297ZM53.332 38.6712C52.71 37.2259 51.2782 35.2699 49.4012 35.3975C47.2948 35.5406 46.2626 37.3078 46.3958 39.2682C46.519 41.0826 47.9795 42.5337 49.773 42.4119C51.7125 42.2801 52.8865 40.4404 53.332 38.6712ZM56.6647 43.934L54.2872 44.0956L54.2004 42.5092L54.1398 41.9266C53.2422 43.5171 51.9267 44.5074 49.9246 44.6434C46.7338 44.8602 44.2559 42.6191 44.0391 39.4283C43.8096 36.0497 45.8668 33.3329 49.2453 33.1034C51.1432 32.9745 52.7378 33.9346 53.7115 35.3141L53.5571 33.0409L55.8929 32.8822C56.0161 34.6966 56.1034 36.5973 55.6261 38.5153C56.2665 40.2317 56.54 42.0988 56.6647 43.934ZM61.2895 43.5989L58.9538 43.7576L57.8514 27.5322L60.1872 27.3736L60.7355 35.4445L61.0684 34.7933C61.8299 33.3588 63.0896 32.1628 64.6954 32.0537C67.3649 31.8723 69.1039 33.7236 69.2853 36.3931L69.7359 43.025L67.4001 43.1837L66.9495 36.5518C66.8645 35.3004 66.2945 34.3125 64.8555 34.4103C64.2716 34.45 63.7715 34.7982 63.3965 35.138C61.2451 37.086 61.1304 40.9488 61.2895 43.5989ZM74.4666 42.7036L72.1308 42.8623L71.0284 26.637L73.3642 26.4783L73.9125 34.5492L74.2454 33.8981C75.007 32.4635 76.2666 31.2675 77.8724 31.1584C80.5419 30.977 82.2809 32.8283 82.4623 35.4978L82.9129 42.1297L80.5771 42.2884L80.1265 35.6565C80.0415 34.4052 79.4716 33.4173 78.0326 33.515C77.4486 33.5547 76.9485 33.903 76.5735 34.2427C74.4221 36.1907 74.3075 40.0536 74.4666 42.7036ZM91.6832 29.6334L91.9793 33.9922L96.4215 33.6903C97.6728 33.6053 98.6797 32.6989 98.5919 31.4058C98.5026 30.092 97.2932 29.2523 96.1253 29.3316L91.6832 29.6334ZM92.488 41.4792L89.9645 41.6506L88.9883 27.2814L95.9539 26.8082C98.5622 26.6519 100.931 28.5232 101.115 31.2344C101.223 32.8194 100.528 33.998 99.1873 34.9271L98.9261 35.0915L99.1905 35.2831C100.906 36.4864 101.63 38.8048 101.773 40.9112L99.0616 41.0954C98.9029 38.7596 97.9011 36.0411 94.9189 36.2438L92.1451 36.4322L92.488 41.4792ZM104.259 40.6794L103.517 29.7513L105.936 29.5869L106.678 40.515L104.259 40.6794ZM102.837 26.5291C102.77 25.5489 103.399 24.9404 104.338 24.8767C105.297 24.8115 105.982 25.3307 106.049 26.3109C106.114 27.2702 105.506 27.8772 104.546 27.9424C103.608 28.0061 102.902 27.4884 102.837 26.5291ZM110.702 44.4529L111.627 42.3368C112.641 42.7707 113.748 43.0307 115.02 42.9443C118.232 42.7261 119.429 40.6125 118.881 37.7794C117.993 39.2016 116.546 40.117 114.669 40.2445C111.478 40.4613 109.001 38.2202 108.775 34.9042C108.554 31.6508 110.61 28.9132 113.822 28.695C115.886 28.5547 117.482 29.5357 118.456 30.9152L118.302 28.642L120.637 28.4833C120.761 30.2977 120.848 32.1984 120.371 34.1164C120.898 35.4005 121.348 37.088 121.359 39.0986C121.352 42.7027 119.216 44.8801 115.171 45.155C113.669 45.257 112.084 45.0504 110.702 44.4529ZM118.139 34.268C117.517 32.8227 116.023 30.871 114.146 30.9986C112.039 31.1417 111.007 32.9089 111.129 34.7024C111.264 36.6837 112.724 38.1348 114.518 38.013C116.457 37.8812 117.694 36.0373 118.139 34.268ZM126.034 39.1999L123.698 39.3586L122.596 23.1333L124.932 22.9746L125.48 31.0456L125.813 30.3944C126.575 28.9599 127.834 27.7639 129.44 27.6548C132.11 27.4734 133.849 29.3247 134.03 31.9941L134.481 38.6261L132.145 38.7848L131.694 32.1528C131.609 30.9015 131.039 29.9136 129.6 30.0114C129.016 30.0511 128.516 30.3993 128.141 30.7391C125.99 32.6871 125.875 36.5499 126.034 39.1999ZM142.204 35.7966L143.487 37.4066C142.713 38.0458 141.887 38.521 140.907 38.5876C138.988 38.7179 137.45 37.3558 137.318 35.4163L136.903 29.3057L135.234 29.4191L135.104 27.5004L136.772 27.3871L136.551 24.1337L138.866 23.9764L139.087 27.2298L142.32 27.0102L142.45 28.9288L139.218 29.1485L139.634 35.2799C139.682 35.989 140.235 36.4123 140.923 36.3656C141.424 36.3316 141.846 36.0724 142.204 35.7966Z" fill="#FFE8D6"/>
<path fill-rule="evenodd" clip-rule="evenodd" d="M169.155 18.0161C162.977 18.4359 158.31 23.7843 158.729 29.9622C159.149 36.1401 164.497 40.8081 170.675 40.3883C176.853 39.9686 181.521 34.6201 181.101 28.4422C180.682 22.2643 175.333 17.5964 169.155 18.0161ZM156.862 30.0891C156.373 22.8801 161.82 16.6391 169.029 16.1493C176.237 15.6595 182.479 21.1064 182.968 28.3154C183.458 35.5243 178.011 41.7654 170.802 42.2552C163.593 42.7449 157.352 37.298 156.862 30.0891Z" fill="#FFE8D6"/>
<path fill-rule="evenodd" clip-rule="evenodd" d="M167.501 26.5674L162.087 26.9352L161.96 25.0684L167.374 24.7005L167.501 26.5674Z" fill="#FFE8D6"/>
<path fill-rule="evenodd" clip-rule="evenodd" d="M177.208 25.9082L171.795 26.276L171.668 24.4092L177.081 24.0414L177.208 25.9082Z" fill="#FFE8D6"/>
<path fill-rule="evenodd" clip-rule="evenodd" d="M163.921 30.1665C163.921 30.1662 163.92 30.1659 164.71 29.6648C165.501 29.1637 165.5 29.1634 165.5 29.1632L165.5 29.1627L165.499 29.1619L165.499 29.1611C165.499 29.161 165.499 29.1616 165.5 29.1629C165.502 29.1655 165.505 29.1709 165.511 29.1789C165.521 29.1948 165.539 29.2212 165.564 29.2564C165.615 29.3269 165.693 29.4321 165.798 29.5599C166.008 29.8169 166.32 30.1577 166.72 30.4902C167.528 31.1611 168.625 31.7431 169.956 31.6527C171.287 31.5623 172.296 30.8372 173.005 30.0632C173.357 29.6796 173.619 29.2998 173.793 29.0167C173.88 28.8759 173.943 28.761 173.983 28.6844C174.003 28.6461 174.018 28.6176 174.026 28.6003C174.03 28.5916 174.033 28.5858 174.035 28.583C174.035 28.5816 174.035 28.581 174.035 28.5811L174.035 28.5819L174.035 28.5828L174.034 28.5833C174.034 28.5836 174.034 28.5839 174.885 28.9735C175.735 29.3631 175.735 29.3635 175.735 29.3638L175.735 29.3646L175.734 29.3664L175.732 29.3708L175.726 29.3835C175.721 29.3935 175.715 29.4068 175.707 29.423C175.691 29.4554 175.669 29.4999 175.64 29.5547C175.582 29.6642 175.498 29.8157 175.388 29.996C175.167 30.355 174.835 30.8362 174.384 31.3276C173.49 32.3036 172.066 33.3848 170.083 33.5195C168.1 33.6543 166.543 32.7756 165.525 31.9295C165.012 31.5036 164.617 31.0718 164.35 30.7459C164.216 30.5823 164.113 30.4434 164.041 30.3427C164.005 30.2923 163.977 30.2513 163.957 30.2213C163.947 30.2063 163.939 30.1941 163.933 30.1848L163.925 30.173L163.922 30.1689L163.921 30.1672L163.921 30.1665Z" fill="#FFE8D6"/>
<path fill-rule="evenodd" clip-rule="evenodd" d="M172.723 29.0311C172.723 29.0311 172.723 29.031 173.34 28.328C173.958 27.625 173.958 27.625 173.958 27.6249L173.958 27.6253L173.963 27.6297C173.968 27.6338 173.976 27.6405 173.986 27.6495C174.007 27.6674 174.039 27.6942 174.079 27.7276C174.16 27.7946 174.274 27.887 174.405 27.9872C174.685 28.1998 174.985 28.4018 175.203 28.501C175.43 28.6038 175.793 28.6975 176.15 28.7673C176.319 28.8003 176.469 28.8248 176.577 28.8409C176.631 28.849 176.674 28.8549 176.702 28.8587C176.716 28.8606 176.727 28.862 176.733 28.8628L176.74 28.8637L176.741 28.8638C176.741 28.8637 176.74 28.8637 176.628 29.7925C176.516 30.7214 176.516 30.7213 176.516 30.7213L176.514 30.7211L176.51 30.7206L176.497 30.719C176.487 30.7177 176.472 30.7158 176.453 30.7133C176.416 30.7083 176.364 30.701 176.3 30.6914C176.171 30.6721 175.993 30.6431 175.792 30.6038C175.409 30.529 174.866 30.4029 174.43 30.205C174.01 30.0142 173.571 29.7037 173.272 29.4763C173.115 29.3566 172.98 29.247 172.884 29.1672C172.835 29.1272 172.797 29.0943 172.769 29.0709C172.756 29.0591 172.745 29.0498 172.737 29.043L172.728 29.0349L172.725 29.0325L172.723 29.0311Z" fill="#FFE8D6"/>
</svg>
