<svg width="184" height="39" viewBox="0 0 184 39" fill="none" xmlns="http://www.w3.org/2000/svg">
<path d="M175.11 29.437C174.942 29.885 174.662 30.053 174.214 29.941C173.766 29.885 173.542 29.661 173.486 29.213C173.43 29.045 173.486 28.821 173.598 28.597C173.71 28.373 173.766 28.149 173.878 27.925C174.158 27.029 174.438 26.133 174.718 25.293C174.998 24.509 175.278 23.669 175.614 22.773C175.894 21.877 176.23 20.925 176.622 19.861C176.958 18.797 177.406 17.565 177.854 16.109C178.302 14.709 178.862 13.085 179.478 11.181C180.094 9.27704 180.822 7.09304 181.718 4.57304C181.718 4.46104 181.774 4.23704 181.886 3.95704C181.942 3.73304 181.998 3.45304 182.11 3.17304C182.222 2.94904 182.334 2.72504 182.502 2.50104C182.614 2.27704 182.838 2.16504 183.062 2.16504C183.398 2.16504 183.678 2.22104 183.79 2.44504C183.902 2.66904 183.902 2.89304 183.902 3.17304C183.846 3.50904 183.734 3.78904 183.622 4.12504C183.51 4.46104 183.398 4.68504 183.398 4.79704C181.998 8.94104 180.598 13.029 179.254 17.117C177.91 21.205 176.51 25.293 175.11 29.437ZM172.982 34.197C172.478 34.197 172.142 34.085 171.974 33.749C171.75 33.413 171.694 33.077 171.75 32.685C171.75 32.349 171.918 32.013 172.198 31.677C172.422 31.397 172.758 31.229 173.206 31.229C173.654 31.229 173.934 31.397 174.102 31.733C174.27 32.069 174.326 32.405 174.326 32.741C174.326 33.133 174.158 33.469 173.934 33.749C173.71 34.085 173.374 34.197 172.982 34.197Z" fill="#CCC2B4"/>
<path d="M163.246 24.6768C162.462 25.3488 161.622 25.7407 160.726 25.9648C159.774 26.1887 158.822 26.1327 157.926 25.7407C157.702 26.3007 157.478 26.8047 157.366 27.3647C157.254 27.9247 157.198 28.3727 157.31 28.8207C157.366 29.2687 157.534 29.6607 157.87 29.9407C158.206 30.2767 158.71 30.3888 159.382 30.3888C160.502 30.3888 161.622 30.1647 162.798 29.6607C163.918 29.1567 165.038 28.5408 166.158 27.7568C167.222 26.9727 168.23 26.1887 169.238 25.2927C170.19 24.4527 171.03 23.6687 171.814 22.9967C172.038 22.8288 172.206 22.7727 172.43 22.7727C172.654 22.8287 172.822 22.9407 172.99 23.0527C173.102 23.2208 173.214 23.3888 173.214 23.6128C173.214 23.8368 173.158 24.0048 172.99 24.1728C171.926 25.1808 170.806 26.1888 169.63 27.1408C168.454 28.1488 167.278 28.9887 166.102 29.7727C164.87 30.5567 163.694 31.1167 162.518 31.5647C161.342 32.0127 160.278 32.1807 159.27 32.1248C158.318 32.1248 157.534 31.9007 156.974 31.4527C156.414 31.0047 155.966 30.5007 155.742 29.8287C155.518 29.2127 155.406 28.5408 155.462 27.7568C155.462 27.0287 155.63 26.3007 155.966 25.6287C156.414 24.5647 157.03 23.5567 157.87 22.6047C158.71 21.6528 159.55 20.8687 160.446 20.3088C160.726 20.1408 161.062 19.9728 161.454 19.8048C161.846 19.6368 162.238 19.5247 162.63 19.4688C163.022 19.4688 163.414 19.5247 163.75 19.6367C164.086 19.7487 164.422 20.0287 164.646 20.3647C164.87 20.7567 164.926 21.1488 164.926 21.5408C164.926 21.9887 164.814 22.3807 164.646 22.7727C164.478 23.1647 164.254 23.5008 164.03 23.8368C163.75 24.1728 163.47 24.4527 163.246 24.6768ZM158.766 24.2847C159.382 24.5087 159.998 24.4527 160.558 24.2288C161.118 24.0048 161.678 23.7248 162.238 23.3328C162.518 23.1087 162.798 22.7728 163.078 22.3248C163.358 21.8767 163.47 21.5408 163.358 21.3167C163.246 21.2047 163.134 21.0927 162.91 21.0927C162.686 21.0927 162.518 21.1488 162.294 21.2048C162.07 21.3168 161.846 21.3727 161.678 21.4847C161.454 21.5967 161.342 21.7087 161.286 21.7087C160.838 22.0448 160.39 22.3807 159.942 22.8288C159.494 23.2767 159.102 23.7807 158.766 24.2847Z" fill="#CCC2B4"/>
<path d="M150.052 17.2852C150.5 17.5652 150.78 17.9572 150.948 18.5172C151.116 19.0772 151.172 19.6372 151.172 20.1972C151.172 20.8132 151.06 21.3732 150.836 21.9332C150.612 22.4932 150.388 22.9412 150.108 23.2212C149.772 23.5012 149.548 23.6132 149.324 23.6132C149.1 23.6132 148.876 23.5572 148.764 23.4452C148.596 23.3332 148.484 23.1092 148.484 22.8852C148.484 22.6612 148.54 22.3812 148.764 22.1012C148.876 21.8772 149.044 21.5972 149.212 21.2612C149.324 20.9252 149.436 20.5332 149.548 20.1972C149.604 19.8612 149.604 19.5812 149.604 19.3012C149.548 19.0212 149.38 18.7972 149.156 18.6852C148.764 18.5732 148.316 18.6852 147.868 19.0212C147.364 19.4132 146.86 19.8612 146.412 20.4212C145.964 20.9812 145.516 21.5972 145.124 22.1572C144.732 22.7732 144.452 23.2212 144.34 23.4452C144.116 23.8372 143.78 24.3972 143.444 25.1812C143.108 25.9652 142.828 26.7492 142.66 27.5332C142.436 28.3172 142.436 29.0452 142.604 29.6052C142.716 30.1652 143.22 30.4452 144.004 30.4452C145.18 30.4452 146.356 30.1652 147.588 29.6052C148.82 29.0452 149.996 28.4292 151.172 27.6452C152.348 26.8612 153.468 26.0772 154.532 25.2372C155.596 24.3972 156.604 23.6692 157.5 22.9972C157.724 22.8292 158.004 22.7732 158.228 22.8292C158.452 22.8852 158.676 22.9972 158.788 23.1652C158.9 23.3892 158.9 23.6132 158.788 23.8932C158.676 24.2292 158.452 24.5092 158.116 24.7332C157.108 25.4612 155.988 26.3012 154.812 27.1972C153.58 28.0932 152.348 28.9332 151.06 29.7172C149.772 30.5012 148.484 31.1172 147.14 31.5652C145.796 32.0692 144.452 32.2372 143.164 32.0132C142.044 31.9012 141.372 31.4532 141.092 30.6692C140.756 29.9412 140.7 29.1012 140.812 28.1492C140.924 27.1972 141.148 26.2452 141.484 25.2932C141.82 24.3972 142.156 23.6692 142.492 23.1092C142.772 22.6052 143.22 21.9332 143.78 21.0932C144.34 20.3092 144.956 19.5252 145.628 18.8532C146.3 18.1812 147.028 17.6772 147.812 17.2852C148.596 16.9492 149.324 16.9492 150.052 17.2852Z" fill="#CCC2B4"/>
<path d="M143.737 24.1729C142.841 25.0129 141.833 25.9649 140.713 26.9729C139.537 27.9809 138.361 28.9329 137.129 29.7169C135.897 30.5569 134.665 31.1729 133.489 31.5649C132.257 31.9569 131.193 31.9569 130.185 31.5089C129.401 31.1729 128.953 30.6129 128.841 29.8289C128.729 29.0449 128.729 28.1489 128.953 27.2529C129.121 26.3569 129.345 25.4609 129.681 24.6209C130.017 23.7809 130.241 23.1649 130.465 22.7169C130.633 22.3809 130.801 21.9329 131.025 21.4289C131.249 20.9249 131.473 20.5329 131.809 20.1969C131.921 20.0849 132.089 19.9729 132.313 19.9169C132.481 19.8609 132.649 19.8609 132.817 19.8609C132.929 19.9169 133.097 20.0289 133.209 20.1409C133.321 20.3089 133.321 20.5329 133.321 20.7569C133.265 21.1489 133.097 21.5409 132.817 21.9889C132.537 22.4369 132.313 22.7729 132.145 23.1089C131.977 23.4449 131.753 24.0049 131.529 24.6769C131.249 25.4049 131.025 26.1329 130.857 26.8609C130.633 27.5889 130.577 28.2609 130.577 28.8769C130.577 29.4929 130.745 29.8849 131.193 30.0529C131.585 30.2769 132.089 30.2769 132.705 30.1089C133.321 29.9409 133.993 29.6609 134.721 29.2689C135.393 28.9329 136.121 28.4849 136.905 27.9249C137.689 27.3649 138.417 26.8049 139.145 26.1889C139.817 25.6289 140.489 25.0129 141.105 24.4529C141.665 23.8929 142.169 23.4449 142.561 22.9969C142.785 22.7729 143.065 22.6049 143.345 22.6049C143.569 22.6049 143.793 22.6609 143.961 22.8289C144.073 22.9969 144.129 23.2209 144.129 23.4449C144.129 23.7249 143.961 23.9489 143.737 24.1729ZM135.057 15.3809C135.225 15.4929 135.393 15.6049 135.505 15.8289C135.617 16.0529 135.617 16.3329 135.561 16.5569C135.449 17.0049 135.169 17.4529 134.777 17.7889C134.329 18.1809 133.937 18.2369 133.601 18.0129C133.265 17.8449 133.153 17.5089 133.153 17.0049C133.153 16.5569 133.265 16.1089 133.545 15.7729C133.993 15.2129 134.497 15.1009 135.057 15.3809Z" fill="#CCC2B4"/>
<path d="M100.015 37.9488C99.6786 37.7808 99.5106 37.3328 99.6226 36.6608C99.6786 35.9888 99.8466 35.2048 100.127 34.4208C100.351 33.6368 100.631 32.8528 100.967 32.1248C101.247 31.3968 101.415 30.8928 101.527 30.6128C102.927 26.6928 104.159 23.2208 105.223 20.2528C106.231 17.3408 107.183 14.7088 108.023 12.4128C108.863 10.1168 109.647 8.04479 110.431 6.25279C111.159 4.46079 111.943 2.66879 112.783 0.932784C112.839 0.820786 112.951 0.652785 113.119 0.484783C113.231 0.316786 113.399 0.204784 113.623 0.0927851C113.791 -0.0192168 113.959 -0.0192168 114.127 0.0367858C114.295 0.0927851 114.463 0.260783 114.575 0.596785C114.631 0.820786 114.575 1.10079 114.407 1.38079C114.239 1.66078 114.127 1.88479 114.071 2.10879C111.943 6.81279 109.983 11.5728 108.303 16.3888C106.567 21.2048 104.887 26.0768 103.207 30.8928C105.783 26.7488 108.471 22.7168 111.159 18.9088C113.847 15.1008 116.871 11.6848 120.231 8.66078C120.567 8.32479 121.127 7.93278 121.799 7.37278C122.471 6.81279 123.143 6.36478 123.927 5.91678C124.711 5.52479 125.439 5.24479 126.167 5.07678C126.895 4.96479 127.511 5.07678 128.071 5.52479C128.519 5.86078 128.799 6.36478 128.911 7.03679C129.023 7.70878 129.023 8.43678 128.967 9.16478C128.911 9.94878 128.799 10.6768 128.631 11.3488C128.463 12.0768 128.351 12.6368 128.239 13.0848C128.015 13.8128 127.735 14.7088 127.399 15.8288C127.063 16.9488 126.671 18.1808 126.279 19.5248C125.887 20.8688 125.495 22.2128 125.103 23.6128C124.711 25.0128 124.431 26.3568 124.207 27.5888C123.983 28.8768 123.815 30.0528 123.815 31.0608C123.759 32.0688 123.927 32.8528 124.263 33.4128C124.487 33.8048 124.543 34.1408 124.487 34.3648C124.431 34.6448 124.319 34.8128 124.151 34.9248C123.927 35.0368 123.703 35.0368 123.479 34.9248C123.255 34.8688 123.031 34.7008 122.807 34.4208C122.247 33.7488 121.967 32.7968 121.911 31.5648C121.855 30.3328 121.967 28.9888 122.247 27.5328C122.471 26.0768 122.863 24.5648 123.311 22.9968C123.759 21.4288 124.263 19.8608 124.767 18.2928C125.215 16.7808 125.663 15.3808 126.111 14.0368C126.559 12.6928 126.839 11.5728 127.063 10.6768C127.063 10.5088 127.119 10.2288 127.231 9.83679C127.343 9.50078 127.399 9.10879 127.399 8.71678C127.399 8.32479 127.399 7.93278 127.343 7.59679C127.287 7.26079 127.175 6.98078 126.951 6.81279C126.727 6.70078 126.447 6.70078 126.111 6.75679C125.775 6.86878 125.495 6.98078 125.159 7.14878C124.823 7.31678 124.543 7.48478 124.263 7.65278C123.927 7.87678 123.703 7.98878 123.591 8.10079C121.799 9.33279 120.007 10.9568 118.215 12.9168C116.423 14.8768 114.743 16.9488 113.119 19.1328C111.439 21.3728 109.927 23.5568 108.471 25.7968C107.015 28.0368 105.727 30.0528 104.607 31.8448C104.159 32.5168 103.767 33.1328 103.431 33.6928C103.095 34.3088 102.703 34.9248 102.367 35.5408C102.255 35.7648 102.087 35.9888 101.975 36.3248C101.807 36.6608 101.639 36.9968 101.471 37.2768C101.247 37.5568 101.023 37.7808 100.799 37.9488C100.519 38.1168 100.239 38.1168 100.015 37.9488Z" fill="#CCC2B4"/>
<path d="M94.2724 33.8055C93.8244 33.8055 93.5444 33.6935 93.3764 33.4135C93.2084 33.1335 93.1524 32.8535 93.2084 32.5175C93.2084 32.1815 93.3764 31.9015 93.6004 31.6215C93.8244 31.3975 94.1044 31.2295 94.4964 31.2295C94.8324 31.2295 95.1124 31.3975 95.2804 31.6775C95.4484 31.9575 95.5044 32.2375 95.5044 32.5735C95.4484 32.9095 95.3364 33.1895 95.1124 33.4135C94.8884 33.6935 94.6084 33.8055 94.2724 33.8055Z" fill="#CCC2B4"/>
<path d="M88.5302 33.8055C88.0822 33.8055 87.8023 33.6935 87.6343 33.4135C87.4663 33.1335 87.4103 32.8535 87.4663 32.5175C87.4663 32.1815 87.6342 31.9015 87.8582 31.6215C88.0822 31.3975 88.3622 31.2295 88.7542 31.2295C89.0902 31.2295 89.3703 31.3975 89.5383 31.6775C89.7063 31.9575 89.7622 32.2375 89.7622 32.5735C89.7062 32.9095 89.5943 33.1895 89.3703 33.4135C89.1463 33.6935 88.8662 33.8055 88.5302 33.8055Z" fill="#CCC2B4"/>
<path d="M82.7881 33.8055C82.3401 33.8055 82.0601 33.6935 81.8921 33.4135C81.7241 33.1335 81.6681 32.8535 81.7241 32.5175C81.7241 32.1815 81.8921 31.9015 82.1161 31.6215C82.3401 31.3975 82.6201 31.2295 83.0121 31.2295C83.3481 31.2295 83.6281 31.3975 83.7961 31.6775C83.9641 31.9575 84.0201 32.2375 84.0201 32.5735C83.9641 32.9095 83.8521 33.1895 83.6281 33.4135C83.4041 33.6935 83.1241 33.8055 82.7881 33.8055Z" fill="#CCC2B4"/>
<path d="M58.8315 17.789C59.1675 17.733 59.4475 17.845 59.6715 18.181C59.8955 18.517 59.9515 18.797 59.7835 19.077C58.9995 20.533 58.3275 22.045 57.7115 23.725C57.0955 25.405 56.5355 27.085 56.0315 28.653C56.6475 27.925 57.3195 27.085 58.1035 26.077C58.8875 25.069 59.6715 24.061 60.5115 23.053C61.2955 22.045 62.1355 21.093 62.9195 20.197C63.7035 19.301 64.4875 18.573 65.2715 17.901C65.6075 17.565 66.0555 17.285 66.5035 16.949C66.9515 16.669 67.3995 16.613 67.9035 16.725C68.3515 16.893 68.6875 17.229 68.7995 17.789C68.9115 18.349 68.9675 18.797 69.0235 19.133C69.0235 19.805 69.0235 20.533 69.0235 21.317C68.9675 22.101 68.9115 22.885 68.7995 23.557C68.6875 24.285 68.6315 24.901 68.5755 25.461C68.4635 26.021 68.4075 26.357 68.4075 26.581C68.7435 26.077 69.1915 25.517 69.6955 24.845C70.1435 24.173 70.7035 23.557 71.2635 22.941C71.8235 22.381 72.3835 21.821 73.0555 21.373C73.6715 20.925 74.3435 20.645 75.0155 20.533C75.6875 20.421 76.1915 20.477 76.5275 20.701C76.8075 20.925 76.9755 21.261 77.0875 21.709C77.0875 22.157 77.0875 22.605 76.9755 23.165C76.8635 23.725 76.8075 24.285 76.6955 24.789C76.5835 25.349 76.4715 25.797 76.4155 26.245C76.3595 26.693 76.4155 27.029 76.5835 27.253C76.6955 27.477 76.8075 27.589 76.9195 27.589C77.0315 27.589 77.1995 27.589 77.3675 27.533C77.4795 27.533 77.6475 27.477 77.8715 27.365C78.0395 27.309 78.2075 27.309 78.4315 27.309C78.7115 27.421 78.9355 27.533 79.0475 27.757C79.1595 27.981 79.2155 28.261 79.1035 28.541C78.9915 28.877 78.7115 29.045 78.2635 29.157C77.8155 29.269 77.4795 29.269 77.1995 29.269C76.1355 29.381 75.4635 29.101 75.2395 28.541C74.9595 27.981 74.8475 27.365 74.9595 26.581C75.0155 25.797 75.1275 25.013 75.3515 24.173C75.5195 23.389 75.5755 22.717 75.4635 22.213C74.5675 22.493 73.8395 22.885 73.1675 23.445C72.4955 24.005 71.9355 24.621 71.3755 25.293C70.8155 25.965 70.3115 26.693 69.8635 27.421C69.4155 28.149 68.9675 28.765 68.5755 29.325C68.3515 29.661 68.1275 29.885 67.9035 30.109C67.6795 30.333 67.3995 30.389 67.1195 30.389C66.8955 30.389 66.7275 30.277 66.6155 30.053C66.5035 29.829 66.4475 29.493 66.4475 29.101C66.4475 28.261 66.5595 27.365 66.7275 26.413C66.8395 25.517 67.0075 24.565 67.1195 23.613C67.2315 22.717 67.3435 21.821 67.4555 20.925C67.5115 20.029 67.4555 19.189 67.3435 18.405C66.3355 19.189 65.3275 20.029 64.4315 21.037C63.5355 22.045 62.6395 23.053 61.7995 24.117C60.9035 25.181 60.0635 26.245 59.2795 27.309C58.4395 28.429 57.5995 29.437 56.8155 30.333C56.7035 30.501 56.5355 30.725 56.3115 30.949C56.0875 31.229 55.8075 31.509 55.5835 31.733C55.3595 31.957 55.0795 32.181 54.7995 32.293C54.5195 32.405 54.2395 32.405 54.0155 32.181C53.7915 32.069 53.6235 31.789 53.6235 31.453C53.6235 31.117 53.6235 30.781 53.6795 30.445C53.7355 30.109 53.7915 29.717 53.9035 29.381C54.0155 29.045 54.0715 28.821 54.1835 28.597C54.6315 26.973 55.1355 25.405 55.7515 23.837C56.3115 22.269 56.9835 20.757 57.7115 19.301C57.8235 19.077 57.9355 18.741 58.1035 18.405C58.2715 18.069 58.4955 17.901 58.8315 17.789Z" fill="#CCC2B4"/>
<path d="M32.6908 17.789C33.0268 17.733 33.3068 17.845 33.5308 18.181C33.7548 18.517 33.8108 18.797 33.6428 19.077C32.8588 20.533 32.1869 22.045 31.5709 23.725C30.9549 25.405 30.3949 27.085 29.8909 28.653C30.5069 27.925 31.1788 27.085 31.9628 26.077C32.7468 25.069 33.5308 24.061 34.3708 23.053C35.1548 22.045 35.9949 21.093 36.7789 20.197C37.5629 19.301 38.3469 18.573 39.1309 17.901C39.4669 17.565 39.9149 17.285 40.3629 16.949C40.8109 16.669 41.2589 16.613 41.7629 16.725C42.2109 16.893 42.5469 17.229 42.6589 17.789C42.7709 18.349 42.8269 18.797 42.8829 19.133C42.8829 19.805 42.8829 20.533 42.8829 21.317C42.8269 22.101 42.7709 22.885 42.6589 23.557C42.5469 24.285 42.4908 24.901 42.4348 25.461C42.3228 26.021 42.2668 26.357 42.2668 26.581C42.6028 26.077 43.0509 25.517 43.5549 24.845C44.0029 24.173 44.5629 23.557 45.1229 22.941C45.6829 22.381 46.2428 21.821 46.9148 21.373C47.5308 20.925 48.2029 20.645 48.8749 20.533C49.5469 20.421 50.0509 20.477 50.3869 20.701C50.6669 20.925 50.8349 21.261 50.9468 21.709C50.9468 22.157 50.9468 22.605 50.8349 23.165C50.7229 23.725 50.6669 24.285 50.5549 24.789C50.4429 25.349 50.3309 25.797 50.2748 26.245C50.2188 26.693 50.2749 27.029 50.4429 27.253C50.5549 27.477 50.6669 27.589 50.7789 27.589C50.8909 27.589 51.0589 27.589 51.2269 27.533C51.3389 27.533 51.5068 27.477 51.7309 27.365C51.8988 27.309 52.0669 27.309 52.2909 27.309C52.5709 27.421 52.7949 27.533 52.9069 27.757C53.0189 27.981 53.0748 28.261 52.9628 28.541C52.8508 28.877 52.5709 29.045 52.1229 29.157C51.6749 29.269 51.3389 29.269 51.0588 29.269C49.9949 29.381 49.3229 29.101 49.0989 28.541C48.8189 27.981 48.7069 27.365 48.8189 26.581C48.8749 25.797 48.9868 25.013 49.2108 24.173C49.3788 23.389 49.4348 22.717 49.3228 22.213C48.4268 22.493 47.6989 22.885 47.0269 23.445C46.3549 24.005 45.7949 24.621 45.2349 25.293C44.6749 25.965 44.1709 26.693 43.7229 27.421C43.2749 28.149 42.8268 28.765 42.4348 29.325C42.2108 29.661 41.9869 29.885 41.7629 30.109C41.5389 30.333 41.2589 30.389 40.9789 30.389C40.7549 30.389 40.5869 30.277 40.4748 30.053C40.3628 29.829 40.3069 29.493 40.3069 29.101C40.3069 28.261 40.4188 27.365 40.5868 26.413C40.6988 25.517 40.8669 24.565 40.9789 23.613C41.0909 22.717 41.2028 21.821 41.3148 20.925C41.3708 20.029 41.3149 19.189 41.2029 18.405C40.1949 19.189 39.1869 20.029 38.2909 21.037C37.3949 22.045 36.4989 23.053 35.6589 24.117C34.7629 25.181 33.9229 26.245 33.1389 27.309C32.2989 28.429 31.4589 29.437 30.6749 30.333C30.5629 30.501 30.3949 30.725 30.1709 30.949C29.9469 31.229 29.6669 31.509 29.4429 31.733C29.2189 31.957 28.9388 32.181 28.6588 32.293C28.3788 32.405 28.0988 32.405 27.8748 32.181C27.6508 32.069 27.4828 31.789 27.4828 31.453C27.4828 31.117 27.4828 30.781 27.5388 30.445C27.5948 30.109 27.6508 29.717 27.7628 29.381C27.8748 29.045 27.9309 28.821 28.0429 28.597C28.4909 26.973 28.9948 25.405 29.6108 23.837C30.1708 22.269 30.8429 20.757 31.5709 19.301C31.6829 19.077 31.7948 18.741 31.9628 18.405C32.1308 18.069 32.3548 17.901 32.6908 17.789Z" fill="#CCC2B4"/>
<path d="M27.534 17.3975C27.198 18.7415 26.75 20.1415 26.134 21.7095C25.462 23.2775 24.734 24.8455 23.838 26.4135C22.942 27.9815 21.878 29.4375 20.758 30.8935C19.638 32.3495 18.406 33.5815 17.118 34.5895C15.774 35.6535 14.374 36.4375 12.918 36.9975C11.462 37.5575 9.95 37.6695 8.438 37.4455C6.87 37.2215 5.582 36.6615 4.63 35.7095C3.678 34.7575 3.006 33.5815 2.558 32.1815C2.446 31.8455 2.334 31.5655 2.278 31.2295C2.222 30.8935 2.166 30.5575 2.11 30.2215C1.942 29.4375 1.662 28.7095 1.326 27.9815C0.934 27.3095 0.654 26.5255 0.486 25.6855C-0.018 23.6695 -0.13 21.7095 0.15 19.6935C0.43 17.7335 0.878 15.8855 1.494 14.1495C2.11 12.3575 2.95 10.6215 4.014 8.99748C5.078 7.42948 6.31 6.02949 7.71 4.85349C9.11 3.73349 10.678 2.83748 12.414 2.22149C14.094 1.66149 15.942 1.43749 17.958 1.54948C20.086 1.77348 21.822 2.33348 23.222 3.34148C24.622 4.34948 25.686 5.63748 26.47 7.09349C27.254 8.60549 27.702 10.2295 27.87 12.0215C27.982 13.8135 27.87 15.6055 27.534 17.3975ZM25.686 17.0615C26.022 15.3815 26.19 13.7015 26.078 12.0775C25.966 10.5095 25.63 9.05348 25.014 7.82149C24.342 6.58949 23.446 5.52549 22.27 4.68549C21.038 3.90149 19.526 3.39749 17.734 3.17349C15.83 3.06148 14.15 3.28548 12.582 3.90149C11.014 4.57348 9.558 5.41348 8.326 6.53349C7.094 7.65349 5.974 8.99748 5.078 10.4535C4.182 11.9095 3.454 13.4215 2.95 14.9335C2.39 16.5015 2.054 18.0135 1.886 19.5815C1.718 21.1495 1.718 22.6055 1.942 24.0055C2.054 22.9415 2.166 21.7655 2.39 20.5335C2.614 19.3015 2.894 18.0135 3.23 16.7255C3.566 15.4375 3.958 14.2055 4.518 12.9735C5.022 11.7415 5.638 10.6215 6.366 9.61349C6.59 9.33349 6.814 9.16549 7.038 9.05348C7.262 8.99748 7.486 8.99748 7.654 9.05348C7.822 9.16549 7.934 9.27748 7.99 9.50148C8.046 9.72548 7.99 10.0055 7.766 10.3415C6.87 11.6295 6.142 13.0295 5.582 14.4855C5.022 15.9975 4.574 17.5095 4.238 19.0775C3.902 20.6455 3.678 22.2695 3.566 23.8375C3.454 25.4615 3.51 27.0295 3.622 28.4855C3.902 28.8215 4.294 29.1015 4.854 29.3255C5.414 29.6055 5.75 29.9415 5.862 30.2775C5.918 30.6135 5.862 30.8935 5.75 31.0055C5.638 31.1735 5.47 31.2855 5.246 31.2855C5.022 31.2855 4.798 31.2855 4.574 31.2295C4.35 31.1735 4.126 31.1175 4.014 31.0055C4.35 32.2935 4.854 33.3575 5.638 34.1975C6.366 35.0935 7.43 35.5415 8.774 35.6535C10.23 35.7655 11.686 35.5415 13.03 34.9815C14.374 34.4215 15.606 33.6935 16.782 32.6855C17.902 31.6775 18.966 30.5575 19.974 29.2135C20.982 27.9255 21.822 26.5815 22.606 25.1255C23.334 23.7255 23.95 22.3255 24.51 20.9255C25.014 19.5255 25.406 18.2375 25.686 17.0615Z" fill="#CCC2B4"/>
</svg>
