<svg width="20" height="21" viewBox="0 0 20 21" fill="none" xmlns="http://www.w3.org/2000/svg">
<path fill-rule="evenodd" clip-rule="evenodd" d="M11.3137 1.91421C10.5327 1.13317 9.26634 1.13316 8.48529 1.91421L1.41422 8.98528C0.633176 9.76633 0.633176 11.0327 1.41422 11.8137L8.48529 18.8848C9.26634 19.6658 10.5327 19.6658 11.3137 18.8848L18.3848 11.8137C19.1658 11.0327 19.1658 9.76633 18.3848 8.98528L11.3137 1.91421ZM7.69962 12.5992C8.91458 13.8142 10.8844 13.8142 12.0994 12.5992C13.3144 11.3843 13.3144 9.41443 12.0994 8.19946C10.8844 6.9845 8.91458 6.9845 7.69962 8.19946C6.48465 9.41443 6.48465 11.3843 7.69962 12.5992Z" fill="#F45252"/>
</svg>
