<svg width="149" height="99" viewBox="0 0 149 99" fill="none" xmlns="http://www.w3.org/2000/svg">
<path d="M104.047 37.0868C104.01 37.2066 103.97 37.3252 103.938 37.4457C103.853 37.7691 103.781 38.097 103.686 38.4179C103.538 38.9195 103.381 39.4179 103.218 39.9145C103.122 40.2056 102.933 40.4459 102.753 40.6907C102.564 40.9469 102.444 41.2291 102.377 41.5468C102.306 41.8823 102.182 42.207 102.071 42.5323C101.953 42.8786 101.826 43.2223 101.698 43.5654C101.546 43.9769 101.411 44.3961 101.231 44.7956C100.96 45.3955 100.669 45.9878 100.363 46.57C99.9594 47.3361 99.5478 48.0983 99.1101 48.8454C98.6138 49.692 98.0807 50.5164 97.5723 51.356C97.3821 51.6699 97.2491 52.0086 97.139 52.3637C97.0258 52.7296 96.8546 53.0854 96.6631 53.4189C96.2458 54.1476 95.8138 54.8693 95.3601 55.5757C94.8626 56.3519 94.3466 57.1167 93.816 57.8701C93.4324 58.4149 92.8973 58.7884 92.2789 59.0294C92.0288 59.127 91.7565 59.1917 91.4893 59.2183C91.1966 59.2469 90.9873 59.3693 90.8505 59.6153C90.617 60.0358 90.3969 60.4645 90.1653 60.8862C89.7276 61.684 89.3217 62.502 88.8388 63.2719C88.0117 64.591 86.9746 65.7515 85.9427 66.9132C85.4948 67.4174 85.015 67.8873 84.5067 68.3306C84.104 68.6819 83.887 69.1252 83.7941 69.656C83.6452 70.5083 83.6637 71.3651 83.7159 72.2155C83.7534 72.8274 83.8647 73.4394 84.0836 74.0323C84.2325 74.4363 84.4316 74.8136 84.5862 75.2112C84.639 75.3476 84.688 75.4877 84.716 75.6311C84.765 75.8847 84.7166 76.1244 84.501 76.2855C84.2497 76.4732 83.964 76.5246 83.6656 76.3946C83.2953 76.2335 83.0898 75.9101 82.9085 75.5791C82.6973 75.1922 82.5776 74.768 82.437 74.3507C82.3142 73.9873 82.3321 73.6252 82.2958 73.2612C82.2252 72.5497 82.1405 71.8394 82.0655 71.1279C82.0426 70.911 82.033 70.6928 82.0133 70.4183C81.8447 70.514 81.7181 70.5768 81.601 70.6535C80.7758 71.1938 79.9564 71.7456 79.0644 72.1742C78.6782 72.3601 78.2818 72.53 77.8791 72.6752C77.456 72.8281 77.0202 72.9466 76.5875 73.0716C76.4978 73.0976 76.3973 73.083 76.3031 73.0963C76.1053 73.1242 75.9087 73.1604 75.7108 73.1895C75.5855 73.2079 75.4595 73.232 75.3335 73.2327C74.4326 73.2358 73.5311 73.2365 72.6302 73.2301C72.4845 73.2289 72.3388 73.1883 72.1931 73.1648C72.0684 73.1445 71.9431 73.1046 71.819 73.1058C71.4315 73.1103 71.0765 72.9784 70.7107 72.8794C69.9122 72.6638 69.2034 72.2586 68.4788 71.8825C67.8203 71.5407 67.1522 71.2154 66.474 70.8749C66.4384 70.9421 66.3989 70.9846 66.3945 71.0302C66.3423 71.5547 66.2991 72.0798 66.2462 72.6036C66.2272 72.7907 66.1884 72.9758 66.1591 73.1616C66.1445 73.2555 66.1196 73.3493 66.1184 73.4432C66.1107 73.9708 65.9065 74.4452 65.7328 74.9297C65.5521 75.4357 65.2811 75.8911 64.9916 76.3407C64.816 76.6134 64.5647 76.6546 64.2816 76.6533C63.987 76.6521 63.763 76.5049 63.6517 76.2532C63.5493 76.0204 63.5626 75.7604 63.674 75.5163C63.861 75.1072 64.0633 74.7033 64.2218 74.2835C64.3955 73.8243 64.5182 73.3493 64.6175 72.8649C64.8268 71.8464 64.6875 70.8216 64.7282 69.8012C64.739 69.5304 64.627 69.3066 64.44 69.1233C63.8534 68.5494 63.2617 67.9805 62.6706 67.4117C62.4887 67.2367 62.3156 67.1815 62.0509 67.3147C61.5941 67.5442 61.0947 67.6869 60.6309 67.9032C59.8439 68.2697 59.1962 68.8246 58.7088 69.5336C58.3354 70.0777 58.0128 70.6611 57.715 71.2509C57.3899 71.8946 57.1233 72.5668 56.8237 73.2231C56.5806 73.7558 56.3211 74.2809 56.078 74.8136C55.8483 75.3171 55.6409 75.8308 55.4043 76.3312C55.2598 76.6368 55.0441 76.8778 54.6624 76.8861C54.0714 76.8994 53.7163 76.3952 53.9397 75.8219C54.1362 75.3159 54.3659 74.8225 54.5803 74.3234C54.8775 73.6316 55.1599 72.9327 55.4749 72.2491C55.8471 71.4405 56.2396 70.6415 56.6398 69.8462C56.8504 69.4277 57.0705 69.0098 57.3308 68.6204C57.9135 67.7478 58.6808 67.0775 59.6555 66.6596C60.1372 66.4535 60.6328 66.2759 61.1017 66.0451C61.6978 65.7515 62.2081 65.3304 62.6993 64.8846C63.3864 64.2606 64.0716 63.6289 64.6328 62.8914C65.4446 61.8228 66.2125 60.7213 66.9836 59.6229C67.2706 59.2139 67.4958 58.7611 67.7847 58.3533C68.0131 58.0306 68.2707 57.7192 68.5577 57.4478C69.2893 56.7559 70.0433 56.0875 70.7908 55.4121C70.9238 55.2923 71.0676 55.1838 71.2031 55.0671C71.5817 54.7399 71.8553 54.3448 72.0703 53.8889C72.3521 53.2921 72.4533 52.6725 72.4539 52.0251C72.4539 51.285 72.4629 50.5456 72.4565 49.8055C72.4552 49.6907 72.4304 49.5271 72.3541 49.4726C72.2319 49.3844 72.125 49.5353 72.0353 49.6108C71.7242 49.8721 71.5002 50.2057 71.3386 50.5728C71.0657 51.1949 70.8125 51.8259 70.5554 52.455C70.4772 52.6472 70.4072 52.8431 70.3448 53.041C70.1712 53.5921 69.7646 53.9421 69.276 54.1799C68.5513 54.5332 67.8037 54.8414 67.0632 55.1616C66.6973 55.3195 66.327 55.4698 65.9529 55.6074C65.3912 55.8135 64.8357 55.7698 64.2987 55.5136C63.5404 55.1521 62.9016 54.6239 62.2946 54.0556C61.9428 53.7259 61.5948 53.3917 61.2646 53.041C60.7918 52.5387 60.4457 51.9591 60.2192 51.3027C60.071 50.8734 60.022 50.4289 59.9272 49.9913C59.8273 49.529 59.8127 49.0686 59.8343 48.6057C59.8464 48.3457 59.8922 48.0799 59.9705 47.8314C60.2377 46.9822 60.6035 46.1819 61.3428 45.6289C61.617 45.4234 61.9237 45.2541 62.2342 45.1064C62.6395 44.9136 63.0613 44.7544 63.4793 44.5895C63.8884 44.4278 64.3019 44.2769 64.7136 44.1215C64.8911 44.0543 65.073 43.9959 65.2461 43.9186C65.505 43.8025 65.7557 43.7943 66.0045 43.9363C66.2233 44.0613 66.4498 44.1754 66.6579 44.3175C66.9315 44.5045 67.2267 44.6276 67.5492 44.6967C67.9074 44.7741 68.2631 44.8666 68.6226 44.937C69.0177 45.0144 69.339 45.2262 69.6374 45.4754C69.9116 45.7044 70.1495 45.9663 70.3512 46.2656C70.5777 46.6017 70.9104 46.83 71.2432 47.0532C71.38 47.1452 71.5015 47.2695 71.7051 47.2543C71.7216 47.1928 71.7605 47.13 71.7484 47.078C71.6975 46.8535 71.6593 46.6201 71.5651 46.4134C71.3399 45.9187 71.0771 45.4412 70.8449 44.9497C70.663 44.5635 70.5001 44.1684 70.3372 43.774C70.1565 43.3339 69.8486 43.0181 69.4058 42.8526C69.0622 42.7238 68.7046 42.6312 68.3515 42.5272C67.9297 42.4023 67.5073 42.2793 67.0829 42.1613C66.677 42.0484 66.2666 41.9527 65.8632 41.8316C65.554 41.7383 65.2582 41.6007 64.9483 41.5119C64.6576 41.4282 64.3923 41.2684 64.071 41.2691C63.7586 41.2691 63.4895 41.3934 63.2324 41.5227C62.5498 41.8658 61.883 42.2419 61.2099 42.6052C61.0158 42.7099 60.8262 42.8247 60.629 42.9217C60.3579 43.0549 59.9686 42.9749 59.7484 42.7695C59.4437 42.486 59.4615 42.1119 59.583 41.8728C59.8483 41.3521 60.1384 40.8435 60.4101 40.3261C60.7359 39.7059 61.0438 39.0768 61.3753 38.4597C61.7277 37.8034 61.9472 37.095 62.2215 36.4076C62.4721 35.7791 62.8946 35.2528 63.4596 34.8577C64.1473 34.3757 64.8434 33.9052 65.5222 33.4112C65.8709 33.1575 66.2132 32.8861 66.5166 32.5823C66.9945 32.1042 67.5919 31.8264 68.1708 31.5131C68.7899 31.1783 69.4102 30.8454 69.9561 30.3945C70.2774 30.1288 70.5179 29.8009 70.7164 29.4394C70.8029 29.2828 70.8029 29.1566 70.7438 28.8484C70.5923 28.785 70.4415 28.8027 70.2882 28.8617C69.8397 29.0355 69.3848 29.1946 68.9407 29.3785C67.9933 29.7692 67.0224 30.1129 66.1343 30.6316C65.4185 31.0496 64.7237 31.5049 64.015 31.9348C63.4055 32.3046 62.7896 32.6629 62.1756 33.0256C61.5604 33.3896 60.935 33.7454 60.5399 34.3694C60.3344 34.6947 60.1664 35.0435 59.9832 35.3821C59.6587 35.9814 59.3349 36.5807 59.0123 37.1806C58.5765 37.9911 58.1426 38.8028 57.7068 39.6133C57.5687 39.8701 57.4396 40.132 57.2856 40.3787C57.0018 40.8353 56.3166 40.7529 56.029 40.4643C55.9711 40.4066 55.9088 40.3324 55.8935 40.2569C55.8267 39.938 55.7828 39.6139 55.7185 39.2943C55.6441 38.9239 55.5576 38.5561 55.4768 38.187C55.4252 37.953 55.3782 37.7178 55.3209 37.485C55.2376 37.1489 55.1472 36.8147 55.0588 36.4799C54.9602 36.1051 54.8755 35.7259 54.7559 35.358C54.6045 34.8919 54.4149 34.4379 54.2584 33.973C54.1553 33.6674 54.0109 33.3554 54.0771 33.0269C54.1496 32.6692 54.2616 32.3179 54.3806 31.9716C54.5911 31.359 54.817 30.7509 55.0416 30.1433C55.151 29.8485 55.2834 29.5625 55.3864 29.2657C55.562 28.7628 55.7116 28.2504 55.8922 27.7494C56.0691 27.2598 56.2396 26.7696 56.517 26.3187C56.818 25.8291 57.096 25.3225 57.3428 24.8043C57.6291 24.2038 57.7958 23.5589 57.8162 22.893C57.8257 22.5848 57.736 22.2728 57.6813 21.8942C57.5534 21.9906 57.4701 22.0324 57.416 22.0977C57.1558 22.4123 56.8841 22.7199 56.6525 23.0553C56.1168 23.8309 55.5894 24.6128 55.0842 25.4087C54.7534 25.9293 54.4588 26.4728 54.2743 27.0683C54.1477 27.4773 54.0179 27.887 53.8544 28.2821C53.6623 28.7457 53.4389 29.1972 53.2163 29.6474C52.9096 30.267 52.5705 30.8714 52.2823 31.4992C52.0596 31.9849 51.9387 32.5062 51.9044 33.0453C51.8738 33.5298 51.8305 34.0136 51.7847 34.4969C51.7466 34.897 51.8274 35.2686 51.9877 35.6352C52.1544 36.0182 52.2893 36.4146 52.4426 36.8033C52.6227 37.2599 52.8142 37.7127 52.9891 38.1712C53.1571 38.6107 53.3091 39.0565 53.472 39.4985C53.5732 39.7731 53.696 40.0401 53.7819 40.3191C53.883 40.6488 53.9791 40.9837 54.0319 41.3236C54.1057 41.7986 53.7074 42.2533 53.0947 42.115C52.9414 42.0801 52.7741 41.9337 52.692 41.7929C52.428 41.3414 52.2295 40.8575 52.0672 40.3571C51.9094 39.8695 51.7211 39.3919 51.5411 38.9125C51.3572 38.4229 51.1733 37.9327 50.9774 37.4476C50.747 36.8769 50.4665 36.3232 50.2775 35.7398C50.1363 35.3048 50.0631 34.8425 50.1267 34.3694C50.1872 33.921 50.2031 33.4663 50.2451 33.0155C50.2686 32.7643 50.31 32.5157 50.3329 32.2646C50.3602 31.9596 50.3704 31.6533 50.3984 31.3482C50.4289 31.0134 50.4703 30.6792 50.5066 30.345C50.5078 30.3342 50.511 30.3241 50.511 30.3139C50.5454 29.5872 50.7216 28.868 50.6497 28.1369C50.5816 27.4418 50.4143 26.7709 50.0548 26.1608C49.9651 26.0092 49.8716 25.859 49.7679 25.7163C49.7291 25.6624 49.6585 25.6313 49.5605 25.5584C49.4949 25.8697 49.4211 26.1374 49.3842 26.41C49.2901 27.1102 49.2125 27.8122 49.1278 28.5135C49.124 28.5453 49.1151 28.5757 49.1126 28.6074C49.0553 29.3101 48.9911 30.0127 48.9446 30.7166C48.8873 31.5797 48.8943 32.4504 48.783 33.3065C48.6908 34.013 48.6997 34.7169 48.6647 35.4221C48.6456 35.7994 48.5756 36.1742 48.5597 36.5515C48.5508 36.7697 48.6042 36.9904 48.6316 37.2092C48.6405 37.2821 48.6659 37.3544 48.6666 37.4267C48.6742 38.1065 48.8613 38.7489 49.0515 39.3938C49.1762 39.8162 49.2697 40.2487 49.3664 40.6787C49.4625 41.1067 49.5446 41.5379 49.6311 41.9679C49.6394 42.0091 49.6419 42.0516 49.6445 42.0941C49.6915 42.9902 49.7361 43.8862 49.7863 44.7817C49.8258 45.4875 49.8811 46.1927 49.9117 46.8991C49.9359 47.4585 49.932 48.0191 49.9416 48.579C49.9537 49.2975 49.9199 50.0205 49.9887 50.7333C50.1019 51.9039 50.0485 53.0765 50.1095 54.2465C50.1401 54.8357 50.1808 55.4248 50.2304 56.0133C50.2622 56.39 50.3055 56.7673 50.3679 57.1402C50.4232 57.4712 50.5244 57.7953 50.5829 58.1263C50.6542 58.529 50.7852 58.9209 50.7871 59.3369C50.7878 59.5012 50.845 59.6654 50.8768 59.8297C50.8851 59.8709 50.9004 59.9108 50.9048 59.9527C50.957 60.4448 50.9869 60.9401 51.0633 61.4284C51.1491 61.9719 51.1994 62.5141 51.2051 63.0645C51.2102 63.575 51.1765 64.0684 50.9634 64.5478C50.8291 64.8497 50.7655 65.1833 50.6764 65.5048C50.5148 66.0869 50.2368 66.6177 49.906 67.1143C49.4988 67.7256 49.054 68.3116 48.6195 68.9039C48.108 69.6008 47.4743 70.1912 46.9017 70.8349C46.6504 71.1171 46.3978 71.3974 46.1357 71.6695C45.9683 71.8432 45.7927 71.9967 45.5211 72.0163C45.1978 72.0398 44.9287 71.9187 44.7958 71.6656C44.666 71.419 44.6806 71.1133 44.8371 70.8476C45.138 70.3371 45.5281 69.8951 45.9448 69.4797C46.693 68.7339 47.3693 67.9298 47.968 67.0629C48.4617 66.3476 48.9338 65.6145 49.2315 64.7907C49.4237 64.2587 49.5598 63.7088 49.6496 63.1501C49.6744 62.9954 49.6686 62.8331 49.6534 62.6764C49.6196 62.3194 49.5872 61.9611 49.5255 61.6085C49.4186 61.0003 49.2831 60.3972 49.1737 59.7897C49.0916 59.3357 49.0362 58.8772 48.9618 58.4212C48.8956 58.0166 48.8205 57.6139 48.7493 57.2106C48.7417 57.1694 48.7283 57.1282 48.7251 57.0863C48.671 56.3513 48.6068 55.6169 48.568 54.8813C48.5152 53.8901 48.4808 52.8977 48.4413 51.9058C48.4197 51.3567 48.407 50.8075 48.3828 50.2589C48.3415 49.3305 48.3376 48.3977 48.2358 47.4762C48.143 46.6322 48.1506 45.7906 48.1302 44.9472C48.1251 44.7271 48.0297 44.5426 47.9228 44.3619C47.5869 43.7917 47.2185 43.2388 46.9182 42.6509C46.6338 42.0935 46.4022 41.5062 46.1802 40.9196C46.0071 40.4618 45.8907 39.983 45.7361 39.5181C45.5471 38.9506 45.4504 38.3633 45.3156 37.7831C45.0426 36.6105 44.9911 35.4265 45.0509 34.2349C45.0814 33.6274 45.1533 33.0193 45.3003 32.4238C45.3181 32.3528 45.327 32.2773 45.3289 32.2044C45.3391 31.7484 45.4765 31.3146 45.5535 30.8707C45.6318 30.4236 45.7609 29.9949 45.8799 29.5605C45.9817 29.1889 46.1051 28.8262 46.2705 28.4755C46.4709 28.0506 46.6351 27.6086 46.833 27.1818C47.0887 26.6314 47.3604 26.0879 47.6302 25.5438C47.8159 25.169 48.0093 24.7974 48.2021 24.4258C48.4751 23.9 48.8727 23.4618 49.2214 22.9887C49.7246 22.3045 50.1999 21.5999 50.6911 20.9068C50.915 20.591 51.1549 20.2859 51.3776 19.9695C52.0481 19.017 52.7066 18.0569 53.3823 17.1088C54.1312 16.058 54.9093 15.0307 55.7987 14.0896C56.5425 13.3019 57.2449 12.475 57.9963 11.6956C58.6847 10.9822 59.4736 10.3861 60.3554 9.92313C60.9764 9.5978 61.5986 9.27248 62.2348 8.9795C62.537 8.83998 62.871 8.76578 63.1949 8.6789C63.5798 8.57554 63.9647 8.44807 64.3579 8.40685C64.914 8.34851 65.4669 8.20265 66.0312 8.26543C66.4288 8.30919 66.8214 8.40178 67.219 8.44617C67.8235 8.51339 68.3776 8.74232 68.9388 8.94525C69.1685 9.02833 69.3765 8.96745 69.5718 8.88945C70.175 8.64846 70.7648 8.37451 71.3673 8.13036C71.7655 7.96864 72.1734 7.82723 72.5825 7.69469C72.7911 7.62683 73.0106 7.58751 73.2276 7.55517C73.6138 7.49746 74.0025 7.45434 74.3906 7.40614C74.4536 7.39853 74.523 7.40995 74.5796 7.38775C75.0994 7.18799 75.6472 7.26536 76.1823 7.22097C76.3381 7.20829 76.5061 7.22668 76.6257 7.09033H78.089C78.2914 7.27678 78.5522 7.24443 78.7838 7.22921C79.3246 7.19433 79.8209 7.42073 80.3489 7.44927C80.5576 7.46068 80.7657 7.51395 80.9705 7.56151C81.295 7.63698 81.6176 7.72449 81.9408 7.80693C82.3594 7.91347 82.787 7.99401 83.1948 8.13226C83.6694 8.2927 84.1307 8.49563 84.5907 8.69539C84.9845 8.86662 85.3821 9.03657 85.755 9.24775C86.4726 9.65361 87.1941 10.0563 87.8526 10.5567C88.3292 10.9188 88.8229 11.2618 89.2759 11.6512C90.6272 12.813 91.7788 14.1695 92.9616 15.493C93.7734 16.4017 94.5636 17.3295 95.3627 18.249C96.3896 19.4311 97.3382 20.6728 98.2493 21.9449C99.098 23.1308 99.9715 24.2989 100.818 25.4867C101.425 26.3384 102.032 27.1945 102.464 28.154C102.648 28.5637 102.812 28.9841 102.964 29.4071C103.145 29.9087 103.286 30.4249 103.477 30.9227C103.643 31.3584 103.687 31.8175 103.781 32.2659C103.876 32.7187 103.902 33.1848 103.965 33.6445C103.978 33.7365 104.02 33.8253 104.048 33.9153V37.0861L104.047 37.0868ZM72.5984 44.5407C72.6098 44.6682 72.5958 44.7728 72.6302 44.8584C72.7835 45.2446 72.9629 45.62 73.1093 46.0088C73.3052 46.5301 73.505 47.0532 73.4255 47.6303C73.4026 47.7965 73.4586 47.9392 73.575 48.0641C73.7875 48.293 73.9294 48.574 73.9815 48.8688C74.0973 49.5239 74.1508 50.1866 74.0916 50.8563C74.0388 51.4556 74.0038 52.0574 73.9943 52.6586C73.986 53.1906 73.8842 53.6961 73.7086 54.1945C73.5254 54.7164 73.241 55.1813 72.8885 55.5986C72.1276 56.4984 71.247 57.2759 70.3188 57.9982C69.7659 58.4282 69.262 58.9063 68.9426 59.5303C68.6499 60.1024 68.3153 60.6439 67.9367 61.1601C67.3972 61.8958 66.8551 62.6301 66.3048 63.3575C66.0516 63.6917 65.792 64.024 65.5082 64.3322C65.0043 64.8801 64.4788 65.4078 63.9647 65.9462C63.7618 66.158 63.7592 66.229 63.9514 66.4529C64.1092 66.6368 64.2727 66.8175 64.4419 66.9912C65.2372 67.8087 66.1336 68.5088 67.0562 69.1721C67.5588 69.533 68.0983 69.8456 68.6378 70.1506C69.2111 70.4753 69.7557 70.845 70.3786 71.0924C71.0237 71.3486 71.6898 71.4944 72.3636 71.5737C73.0017 71.6485 73.6539 71.6143 74.3003 71.6105C74.976 71.606 75.6497 71.5889 76.3222 71.4811C76.6391 71.4304 76.9445 71.3606 77.2295 71.2351C77.7754 70.9941 78.3194 70.7436 78.8391 70.4525C79.4887 70.0891 80.1352 69.7112 80.744 69.2844C81.4827 68.7663 82.2016 68.2146 82.89 67.6311C83.5218 67.0959 84.125 66.522 84.6963 65.9233C85.2231 65.371 85.7066 64.7755 86.1812 64.1762C86.6616 63.57 87.1439 62.9593 87.5568 62.3073C88.0091 61.5939 88.3915 60.8355 88.7885 60.0878C89.0672 59.5627 89.3312 59.03 89.5774 58.4891C89.755 58.099 89.9274 57.6995 90.0381 57.2873C90.1513 56.865 90.3059 56.4528 90.3479 56.0063C90.3899 55.5592 90.5604 55.1223 90.5871 54.6758C90.6355 53.8654 90.6253 53.0505 90.6266 52.2381C90.6266 51.9991 90.5922 51.9832 90.3517 51.9344C89.8835 51.8392 89.5953 51.4251 89.6761 50.9521C89.7098 50.7548 89.7505 50.5576 89.8027 50.3642C89.9369 49.8632 89.9426 49.3616 89.8103 48.8619C89.7142 48.4985 89.5984 48.1396 89.4992 47.7768C89.2924 47.0184 88.877 46.3817 88.3183 45.8433C87.894 45.4342 87.3984 45.1133 86.8887 44.8159C86.2907 44.4665 85.6595 44.2306 84.9578 44.2116C84.9056 44.2103 84.8541 44.19 84.8013 44.1837C84.55 44.1526 84.2986 44.1221 84.0467 44.0942C83.8329 44.0708 83.6669 44.1329 83.5243 44.3124C83.3379 44.5458 83.0777 44.7157 82.7952 44.7887C82.3371 44.9072 81.8663 45.0258 81.3974 45.0404C80.5875 45.0658 79.7712 45.1723 78.9651 44.9523C78.4593 44.814 77.9421 44.7151 77.4331 44.5883C77.1722 44.5236 77.1741 44.5134 77.0596 44.7633C76.8465 45.2262 76.6302 45.3575 76.1154 45.3258C75.9997 45.3188 75.8839 45.2985 75.7706 45.2732C75.4016 45.1907 75.018 45.2148 74.6534 45.0791C74.3709 44.9745 74.0611 44.9447 73.7665 44.8686C73.393 44.7722 73.0227 44.6618 72.599 44.5432L72.5984 44.5407ZM61.4624 49.1625C61.4293 49.6514 61.5076 50.1162 61.6832 50.5798C61.9778 51.3567 62.46 51.9895 63.081 52.5241C63.6231 52.9909 64.19 53.4285 64.7276 53.8996C64.9751 54.1165 65.2416 54.1191 65.5267 54.0696C65.6266 54.0518 65.715 53.9789 65.8123 53.9415C66.301 53.7531 66.7934 53.5749 67.2788 53.379C67.5416 53.2731 67.7936 53.1386 68.0506 53.0182C68.5201 52.7975 68.8879 52.5387 68.9979 51.9477C69.0896 51.4569 69.3631 50.9958 69.5788 50.5322C69.8524 49.9418 70.133 49.3533 70.5834 48.8669C70.6808 48.7617 70.6992 48.6463 70.5554 48.5467C70.4352 48.4636 70.3226 48.3698 70.2061 48.2816C69.6183 47.8364 69.0488 47.3748 68.6353 46.7488C68.5602 46.6347 68.419 46.5345 68.2879 46.4926C67.9195 46.3747 67.5353 46.3062 67.1669 46.1895C66.7279 46.05 66.2908 45.8978 65.8683 45.7152C65.6673 45.6283 65.4764 45.6131 65.2849 45.6644C65.012 45.738 64.7473 45.842 64.482 45.9422C64.0137 46.1198 63.5435 46.2948 63.0816 46.4888C62.7629 46.6226 62.4142 46.7285 62.1928 47.0146C61.7627 47.5713 61.4306 48.1725 61.4618 48.9094C61.4656 48.9938 61.4618 49.0787 61.4618 49.1631L61.4624 49.1625ZM91.8666 57.366C91.894 57.3907 91.9213 57.4148 91.9487 57.4395C92.0257 57.3837 92.1192 57.3412 92.1777 57.2702C92.5391 56.8333 92.9081 56.4008 93.2453 55.9461C93.5507 55.5345 93.8306 55.1026 94.1004 54.667C94.4293 54.1355 94.7449 53.5952 95.049 53.0492C95.2304 52.7239 95.4518 52.4297 95.5707 52.0568C95.7381 51.531 95.7177 51.0167 95.6477 50.4974C95.6184 50.2786 95.5084 50.0604 95.3958 49.8651C95.2806 49.6647 95.2055 49.6742 95.0331 49.8378C94.6756 50.1771 94.4516 50.6083 94.2588 51.0465C93.9013 51.8589 93.5755 52.6865 93.2485 53.5115C93.1219 53.8305 93.0303 54.1634 92.9177 54.4881C92.798 54.8344 92.6746 55.18 92.5493 55.5244C92.3781 55.9949 92.2032 56.4642 92.0295 56.9341C91.976 57.0787 91.9207 57.2226 91.8666 57.3672V57.366ZM83.0173 42.7999C82.7062 42.4188 82.3034 42.174 81.8911 41.8956C81.8027 42.1613 82.0095 42.2323 82.11 42.3344C82.3556 42.5843 82.6457 42.7752 83.0173 42.7999Z" fill="#EBEBEB"/>
<path d="M81.9063 91.1809C81.6741 91.0047 81.4432 90.8258 81.2084 90.6521C80.9558 90.4656 80.6937 90.2919 80.4475 90.0984C80.2432 89.9374 80.2451 89.8968 80.4774 89.7795C80.8712 89.5803 81.2561 89.3723 81.6086 89.1015C82.2416 88.6145 82.7283 88.019 82.9593 87.2517C83.0643 86.9029 83.1241 86.53 83.1387 86.166C83.1667 85.4488 83.1521 84.7296 83.1495 84.0118C83.1483 83.6427 83.126 83.6237 82.7417 83.6408C82.0438 83.6712 81.3465 83.708 80.6491 83.741C80.5753 83.7441 80.5009 83.7422 80.4265 83.7391C80.275 83.7327 80.193 83.6484 80.1815 83.5013C80.1446 83.039 80.1014 82.5767 80.0797 82.1137C80.0676 81.8588 80.1147 81.8201 80.373 81.8119C80.8706 81.796 81.3694 81.7966 81.8663 81.7757C82.2346 81.7599 82.6024 81.7212 82.9733 81.692C82.9892 81.6178 83.0115 81.5671 83.0096 81.5176C82.9873 80.8422 82.9682 80.1668 82.9345 79.4927C82.9205 79.2137 82.9338 79.1338 83.2157 79.1078C83.752 79.0583 84.2916 79.0469 84.8305 79.0342C84.9685 79.0311 85.0652 79.1731 85.0722 79.3526C85.083 79.6164 85.0779 79.8808 85.0869 80.1446C85.0983 80.4928 85.1072 80.8416 85.1358 81.1891C85.1626 81.5081 85.2192 81.562 85.5297 81.5398C85.9394 81.5106 86.3466 81.4453 86.7557 81.4136C87.1832 81.38 87.1826 81.3889 87.2023 81.7998C87.2195 82.1587 87.2443 82.517 87.2551 82.876C87.2659 83.252 87.2163 83.2914 86.8562 83.3294C86.5744 83.3592 86.2957 83.4226 86.0138 83.4581C85.8357 83.481 85.655 83.4879 85.4756 83.4886C85.2994 83.4886 85.2255 83.5729 85.2255 83.7397C85.2255 83.8558 85.2236 83.9718 85.2236 84.0885C85.2236 84.7854 85.244 85.4836 85.2192 86.18C85.2007 86.6949 85.1613 87.2143 85.0659 87.7197C84.903 88.5784 84.4888 89.3178 83.8717 89.9462C83.3951 90.4314 82.862 90.8271 82.2283 91.0839C82.1977 91.0966 82.1831 91.1492 82.1608 91.1829H81.9063V91.1809Z" fill="#EBEBEB"/>
<path d="M50.0846 82.8397C49.8861 82.7516 49.7016 82.8245 49.5177 82.8359C49.0323 82.8657 48.5469 82.8879 48.0614 82.9126C47.9144 82.9202 47.8476 82.8372 47.8375 82.7027C47.8037 82.2499 47.7617 81.7978 47.7452 81.3444C47.735 81.0666 47.8228 81.0006 48.1066 80.986C48.9305 80.9423 49.7544 80.896 50.5783 80.8491C50.7877 80.837 50.8856 80.7647 50.9334 80.5574C51.0441 80.0779 51.2216 79.6137 51.261 79.1165C51.2756 78.9314 51.3335 78.7456 51.3984 78.5699C51.4201 78.5116 51.5263 78.4469 51.5925 78.4488C51.7916 78.4557 51.9901 78.49 52.188 78.5204C52.3025 78.5382 52.4139 78.5724 52.5277 78.5915C52.8261 78.6422 53.1252 78.6891 53.4166 78.736C53.477 78.9802 53.4306 79.1609 53.3816 79.3601C53.3001 79.6898 53.1468 80.0113 53.164 80.3747C53.2206 80.3912 53.2626 80.4191 53.2969 80.4115C53.5922 80.3475 53.8861 80.2764 54.1807 80.2079C54.2621 80.1889 54.3429 80.1591 54.425 80.1528C54.6706 80.1344 54.6877 80.1604 54.7278 80.3982C54.7711 80.6563 54.8233 80.9131 54.8888 81.1661C54.9321 81.3329 55.0428 81.4116 55.2349 81.4236C55.6446 81.4503 56.0569 81.4858 56.4584 81.5663C56.9101 81.6576 57.3542 81.7895 57.7945 81.9284C58.2226 82.0635 58.6419 82.2277 59.0637 82.3837C59.2559 82.4548 59.3087 82.5499 59.2406 82.7497C59.1019 83.1555 58.9537 83.5582 58.7991 83.9584C58.7081 84.1924 58.6044 84.2602 58.3906 84.1626C57.9624 83.9672 57.5177 83.9901 57.08 84.0402C56.8058 84.0719 56.5201 84.1657 56.2796 84.3014C55.7522 84.5989 55.7604 84.9457 55.8762 85.4379C55.964 85.812 56.1224 86.1697 56.2478 86.535C56.347 86.8248 56.4711 87.0493 56.7988 87.1945C57.5654 87.5338 58.2964 87.9529 58.9899 88.4286C59.1706 88.5522 59.3278 88.7095 59.5085 88.8623C59.4423 88.9796 59.3978 89.0855 59.3297 89.175C59.0453 89.5498 58.7622 89.9258 58.4625 90.2879C58.2589 90.5333 58.229 90.5302 57.9821 90.319C57.5451 89.9442 57.1309 89.5421 56.6085 89.2377C56.5487 89.3747 56.4794 89.5022 56.4367 89.6385C56.2904 90.1015 55.9488 90.3964 55.5441 90.6044C55.2591 90.7509 54.9225 90.7959 54.6248 90.9221C54.1425 91.1256 53.6373 91.073 53.1544 91.0248C52.5093 90.9608 51.861 90.8041 51.3666 90.3336C51.0415 90.0241 50.7934 89.6576 50.8029 89.1756C50.8055 89.0278 50.7953 88.8801 50.7947 88.7323C50.7896 87.8179 51.3068 87.2535 52.0792 86.8844C52.6321 86.6206 53.2308 86.5724 53.8384 86.6053C54.1883 86.6244 54.2577 86.5045 54.1406 86.1767C53.9516 85.6484 53.9268 85.0948 54.0655 84.5608C54.1552 84.2146 54.4441 83.9622 54.7488 83.7681C55.0116 83.6007 55.2909 83.4586 55.5867 83.2919C55.4258 83.1251 55.2235 83.2056 55.0529 83.1682C54.878 83.1301 54.7005 83.0997 54.5223 83.0813C54.3346 83.0617 54.145 83.061 53.9504 83.0515C53.8937 82.7484 54.1406 82.5524 54.161 82.2582C54.0598 82.2518 53.9682 82.2303 53.8829 82.2436C53.6443 82.2816 53.4077 82.3336 53.1703 82.3825C53.017 82.4142 52.8656 82.4732 52.7116 82.4782C52.508 82.4852 52.4043 82.5898 52.3356 82.7585C52.2453 82.9798 52.1498 83.1986 52.0684 83.4225C51.7751 84.2311 51.3762 84.9882 50.9696 85.7435C50.5516 86.5204 50.0878 87.2668 49.5782 87.9859C49.4637 88.1476 49.365 88.322 49.2454 88.4799C49.0978 88.6753 49.0431 88.6822 48.823 88.5465C48.3515 88.2567 47.8826 87.9625 47.4137 87.6682C47.2795 87.5839 47.3024 87.5122 47.3997 87.3923C47.9475 86.7157 48.4667 86.0149 48.8974 85.2578C49.2639 84.6134 49.6024 83.9533 49.9427 83.295C50.0127 83.1593 50.0382 83.0001 50.0878 82.8378L50.0846 82.8397ZM53.4656 89.2777V89.2682C53.561 89.2682 53.6564 89.2669 53.7519 89.2682C54.0884 89.2733 54.3346 89.1204 54.5179 88.8465C54.6674 88.6226 54.6038 88.4495 54.3391 88.3804C54.2373 88.3537 54.1374 88.3144 54.0337 88.2998C53.6481 88.244 53.2607 88.1622 52.8885 88.367C52.6639 88.4907 52.585 88.6277 52.6149 88.875C52.6372 89.0583 52.8045 89.2251 53.0221 89.2555C53.1684 89.2758 53.3179 89.2714 53.4656 89.2777Z" fill="#EBEBEB"/>
<path d="M94.0533 83.7635C94.1328 83.7585 94.2174 83.7699 94.2899 83.7458C94.7646 83.5872 95.229 83.6063 95.7087 83.7502C96.1993 83.8973 96.5765 84.1586 96.8139 84.6139C96.9347 84.846 97.0435 85.0826 97.0435 85.3508C97.0448 86.1854 97.0448 87.0199 97.0397 87.8551C97.0385 88.0346 97.0747 88.1849 97.2255 88.3016C97.3368 88.3878 97.4539 88.4151 97.5824 88.3764C98.0443 88.2382 98.4407 87.9972 98.7696 87.6395C99.2856 87.0777 99.6744 86.4333 100.027 85.7643C100.085 85.6546 100.128 85.5366 100.181 85.4244C100.236 85.3064 100.33 85.2881 100.419 85.3965C100.651 85.68 100.878 85.9672 101.097 86.2609C101.272 86.4949 101.423 86.7466 101.601 86.9775C101.696 87.0998 101.676 87.1867 101.615 87.3174C101.275 88.0498 100.811 88.7055 100.258 89.2801C99.7469 89.8109 99.1323 90.237 98.4089 90.4457C97.9234 90.5858 97.4157 90.6981 96.9106 90.6055C96.2463 90.4837 95.5796 90.3334 95.2074 89.6663C95.0789 89.4355 94.9561 89.2053 94.9567 88.9326C94.9593 88.2249 94.9637 87.5171 94.9663 86.8094C94.9675 86.5031 94.9554 86.1962 94.9663 85.8905C94.9828 85.42 94.4802 85.2424 94.1633 85.342C93.6664 85.498 93.2974 85.8119 93.0137 86.2292C92.5479 86.9147 92.1967 87.6636 91.8513 88.4132C91.5675 89.0283 91.3137 89.6574 91.0401 90.277C90.9504 90.4806 90.8492 90.5269 90.6482 90.4558C90.1443 90.2789 89.6423 90.0956 89.1422 89.9079C88.9303 89.8286 88.8934 89.7202 88.9844 89.5198C89.4336 88.5293 89.8783 87.5368 90.3339 86.5488C90.5527 86.0744 90.7958 85.6108 91.0229 85.1403C91.3646 84.4332 91.6973 83.7223 92.0421 83.0171C92.2756 82.5396 92.525 82.0691 92.7662 81.5947C93.1256 80.8882 93.4838 80.1812 93.8446 79.4747C93.9305 79.3067 94.031 79.1456 94.1112 78.975C94.1843 78.8202 94.281 78.7803 94.4407 78.8469C94.8555 79.02 95.2736 79.1862 95.6909 79.3536C95.7781 79.3885 95.8665 79.4208 95.9556 79.4512C96.1923 79.5318 96.2521 79.6561 96.1318 79.8787C95.8067 80.4767 95.474 81.0709 95.1425 81.6651C94.7665 82.3392 94.3879 83.0121 94.0106 83.6855C94.0246 83.7115 94.0386 83.7375 94.0526 83.7635H94.0533Z" fill="#EBEBEB"/>
<path d="M61.8141 80.1538C61.9287 80.1284 62.0489 80.077 62.1673 80.0802C62.6864 80.0948 63.2049 80.1253 63.7235 80.15C63.9703 80.1614 63.9983 80.1804 63.9977 80.4296C63.9977 80.7252 64.0085 81.0258 63.9621 81.3156C63.8011 82.3137 63.8545 83.3189 63.845 84.3215C63.8412 84.754 63.8342 85.1871 63.9633 85.6107C64.0028 85.7395 63.9831 85.8841 64.0041 86.0198C64.0689 86.4447 64.1688 86.8619 64.3546 87.2519C64.4787 87.5126 64.4889 87.5075 64.765 87.661C65.211 87.576 65.3707 87.2025 65.5405 86.8613C65.6799 86.5816 65.7588 86.2728 65.8714 85.9798C65.9026 85.8993 65.9579 85.8283 66.0228 85.7166C66.2538 85.9976 66.4542 86.2367 66.6501 86.4802C66.8474 86.7262 67.0287 86.9856 67.2367 87.2215C67.4403 87.4523 67.4505 87.7073 67.3398 87.959C67.0236 88.6756 66.6336 89.3453 65.9904 89.8285C65.6926 90.0524 65.3764 90.1976 64.9845 90.2281C64.0467 90.2997 63.4372 89.8082 62.9206 89.1259C62.6075 88.7124 62.3804 88.2412 62.2392 87.7567C62.1055 87.2995 61.9255 86.841 61.928 86.3489C61.928 86.2861 61.9312 86.2151 61.9058 86.1612C61.7454 85.8213 61.7772 85.456 61.7766 85.1009C61.7741 83.5155 61.7868 81.9307 61.7951 80.3453C61.7951 80.2933 61.8065 80.2413 61.8161 80.1544L61.8141 80.1538Z" fill="#EBEBEB"/>
<path d="M77.9625 87.5401C78.1686 87.5274 78.2691 87.4266 78.3671 87.3124C78.572 87.0727 78.7826 86.8381 78.9906 86.6015C79.0746 86.5058 79.1516 86.398 79.3068 86.4709C79.4519 86.5388 79.5161 86.6447 79.4748 86.8368C79.429 87.0505 79.3514 87.2573 79.2909 87.4678C79.1694 87.8902 79.0256 88.3081 78.9378 88.7374C78.8837 89.0018 78.892 89.2859 78.9136 89.558C78.9633 90.1852 78.224 90.5454 77.7449 90.4401C77.2798 90.338 76.9254 90.0704 76.6767 89.6721C76.3115 89.0874 76.1219 88.4444 75.9723 87.7703C75.7058 86.5641 75.826 85.3567 75.8636 84.1499C75.8782 83.673 76.0124 83.1993 76.0894 82.7243C76.1479 82.3622 76.2008 81.9988 76.2599 81.6367C76.2816 81.5035 76.3153 81.3723 76.3452 81.2403C76.3592 81.1788 76.384 81.1192 76.391 81.0571C76.4444 80.5428 76.4998 80.0285 76.545 79.5135C76.5749 79.1749 76.5952 79.1375 76.9178 79.1666C77.4026 79.2104 77.8861 79.2694 78.369 79.3309C78.5446 79.3537 78.6362 79.4533 78.6254 79.6321C78.6076 79.9245 78.5643 80.2155 78.5287 80.5073C78.5198 80.5802 78.4956 80.6512 78.4867 80.7241C78.432 81.1611 78.3938 81.5999 78.3219 82.0343C78.266 82.3736 78.1648 82.7053 78.0935 83.042C78.035 83.3191 77.9956 83.5994 77.9402 83.8772C77.7436 84.869 77.7277 85.8697 77.8053 86.8723C77.8225 87.0975 77.9078 87.3175 77.9618 87.5395L77.9625 87.5401Z" fill="#EBEBEB"/>
<path d="M73.7098 85.9089C73.6704 85.9647 73.6316 86.0725 73.5546 86.122C73.0609 86.4416 72.5589 86.7485 72.0601 87.0605C71.9265 87.1442 71.8209 87.1284 71.7503 86.98C71.6612 86.7923 71.5715 86.6046 71.4869 86.4143C70.9645 85.2443 70.271 84.1909 69.3345 83.3069C69.1296 83.1135 68.8999 82.9455 68.6843 82.7628C68.5036 82.61 68.4985 82.5396 68.6836 82.388C69.0399 82.0957 69.4013 81.809 69.7665 81.5275C69.9605 81.3778 70.0153 81.3822 70.2119 81.5205C71.0682 82.1223 71.8183 82.8357 72.4329 83.6817C72.7638 84.1377 73.0704 84.6114 73.3726 85.087C73.4948 85.2798 73.5769 85.4979 73.6717 85.7072C73.6927 85.7535 73.692 85.81 73.7105 85.9083L73.7098 85.9089Z" fill="#EBEBEB"/>
<path d="M84.5544 48.4543C84.5449 48.5615 84.5277 48.6686 84.5277 48.7764C84.5245 49.5267 84.529 50.2769 84.5213 51.0264C84.5169 51.4399 84.438 51.8508 84.2401 52.2092C83.9163 52.7957 83.4149 53.2048 82.7342 53.279C82.369 53.3189 82.0178 53.1579 81.7442 52.8776C81.5565 52.6848 81.4324 52.4508 81.351 52.206C81.1678 51.6574 80.9922 51.1057 81.0195 50.5115C81.0284 50.3143 80.975 50.1145 80.954 49.9154C80.9451 49.8317 80.9374 49.7461 80.9444 49.663C80.9782 49.2425 81.0011 48.8208 81.0583 48.4036C81.092 48.1556 81.176 47.9127 81.2486 47.6711C81.3115 47.4625 81.3974 47.2602 81.4617 47.0515C81.6138 46.5594 82.1189 46.0362 82.7774 46.0819C83.6783 46.1447 84.3998 46.5391 85.0106 47.1745C85.3701 47.5474 85.6691 47.9615 85.8593 48.4454C85.9051 48.5615 85.9242 48.6889 85.9497 48.812C86.0209 49.1607 85.6538 49.3282 85.393 49.2216C85.1493 49.1221 84.9743 48.9508 84.8382 48.7314C84.7745 48.6293 84.7014 48.5336 84.6327 48.4346C84.6066 48.4416 84.5799 48.4486 84.5538 48.4549L84.5544 48.4543Z" fill="#EBEBEB"/>
<path d="M77.421 65.1627C77.2302 65.1082 77.0399 65.0632 76.856 64.9997C76.4482 64.8602 76.0461 64.7042 75.6358 64.5742C75.5492 64.5469 75.4271 64.5806 75.3386 64.623C75.2171 64.6808 75.1121 64.774 74.9995 64.8513C74.4791 65.2071 73.9491 65.2173 73.4026 64.9059C73.2117 64.7968 73.0062 64.7137 72.8084 64.6167C72.6448 64.5368 72.489 64.5501 72.3191 64.6129C71.8667 64.7803 71.4156 64.9579 70.9512 65.0822C70.7158 65.145 70.4511 65.1576 70.2068 65.0289C70.1076 64.9769 69.9797 64.9832 69.8709 64.9452C69.4357 64.793 69.1602 64.4683 68.97 64.0701C68.8396 63.798 68.9604 63.4606 69.2378 63.2304C69.5152 63.0002 69.7812 62.9913 70.0783 63.1772C70.2456 63.2818 70.4269 63.3706 70.6121 63.4391C70.7043 63.4733 70.8297 63.4739 70.9232 63.4416C71.3501 63.2945 71.7694 63.1258 72.1944 62.9742C72.5214 62.8575 72.8612 62.8651 73.1856 62.9634C73.3829 63.0231 73.5559 63.1575 73.7436 63.2514C73.9841 63.3712 74.2316 63.4137 74.453 63.2196C74.8577 62.8658 75.3425 62.8468 75.826 62.9235C76.0754 62.9634 76.3063 63.1226 76.5437 63.233C76.8599 63.3801 77.1793 63.5412 77.5387 63.467C77.7722 63.4188 77.9936 63.3129 78.2214 63.233C78.4835 63.141 78.738 63.1239 78.9721 63.3097C79.2101 63.498 79.3634 63.7289 79.3074 64.0453C79.254 64.3485 79.0288 64.533 78.7965 64.6972C78.5904 64.8431 78.3658 64.9534 78.1056 64.9928C77.881 65.0264 77.6628 65.1012 77.4217 65.1627H77.421Z" fill="#EBEBEB"/>
<path d="M73.9205 67.6415C73.4134 67.6802 72.9407 67.587 72.4972 67.3695C72.2065 67.2268 71.9965 67.0042 71.8858 66.6871C71.7675 66.3466 71.8413 66.0625 72.1053 65.8323C72.3611 65.6091 72.6766 65.6262 72.9375 65.7708C73.3778 66.0143 73.8339 66.0802 74.3124 66.0067C74.558 65.9686 74.7927 65.8627 75.0332 65.7904C75.3641 65.6909 75.6256 65.7873 75.854 66.0897C76.013 66.3003 76.0003 66.6262 75.8438 66.8824C75.6389 67.2173 75.3221 67.3784 74.969 67.5122C74.6216 67.6441 74.2666 67.6396 73.9205 67.6415Z" fill="#EBEBEB"/>
<path d="M75.7037 60.0195C75.6566 60.093 75.628 60.1761 75.5695 60.2211C75.448 60.315 75.3175 60.4038 75.1776 60.4653C75.0471 60.523 74.9307 60.4577 74.8544 60.341C74.7825 60.2306 74.6928 60.1361 74.7965 59.977C75.0045 59.6599 75.3506 59.5787 75.5797 59.8222C75.6267 59.8723 75.6541 59.9396 75.7031 60.0188L75.7037 60.0195Z" fill="#EBEBEB"/>
<path d="M72.4872 60.035C72.5616 59.9519 72.6182 59.8758 72.6876 59.813C72.8021 59.7097 72.9382 59.6285 73.0903 59.7129C73.2468 59.7991 73.3938 59.912 73.423 60.1079C73.465 60.3863 73.2551 60.5791 72.9987 60.4656C72.8059 60.3806 72.5928 60.2849 72.4872 60.035Z" fill="#EBEBEB"/>
<path d="M64.2007 48.4848C64.125 48.5672 64.0468 48.6465 63.9742 48.7315C63.7846 48.9553 63.6237 49.2046 63.3475 49.3422C63.1726 49.4297 63.128 49.4246 63.0008 49.2731C62.8016 49.0359 62.7921 48.7714 62.9149 48.5064C63.3431 47.5843 63.9895 46.8556 64.9108 46.4054C65.4267 46.153 65.9949 46.1416 66.5522 46.2348C66.7934 46.2747 66.9709 46.4637 67.0911 46.6844C67.2813 47.0338 67.4169 47.4023 67.5467 47.7796C67.8966 48.7987 67.8005 49.8394 67.756 50.8775C67.7439 51.1641 67.6173 51.4444 67.5587 51.7311C67.5148 51.946 67.4894 52.1629 67.3781 52.3595C67.1802 52.7083 66.9721 53.0368 66.5923 53.2327C66.2634 53.4027 65.9338 53.3995 65.6151 53.2759C65.0564 53.0596 64.704 52.6132 64.4724 52.0849C64.1377 51.3214 64.104 50.5192 64.2395 49.7036C64.3051 49.3098 64.3082 48.9128 64.2904 48.5165C64.2605 48.5057 64.2306 48.4956 64.2007 48.4848Z" fill="#EBEBEB"/>
</svg>
