<svg width="148" height="99" viewBox="0 0 148 99" fill="none" xmlns="http://www.w3.org/2000/svg">
<g clip-path="url(#clip0_559_308)">
<path d="M1.8362 58V42.0939H12.578V45.1007H5.4168V48.2222H11.7747V51.1601H5.4168V54.9932H13.1059V58H1.8362ZM14.8376 46.3401C15.419 46.1718 16.1688 46.0188 17.0869 45.881C18.005 45.728 18.969 45.6515 19.9789 45.6515C21.0042 45.6515 21.8534 45.7892 22.5267 46.0647C23.2153 46.3248 23.7585 46.6997 24.1563 47.1893C24.5542 47.679 24.8372 48.2605 25.0056 48.9337C25.1739 49.607 25.258 50.3568 25.258 51.1831V58H21.8381V51.5962C21.8381 50.4945 21.6927 49.7141 21.402 49.2551C21.1113 48.796 20.5681 48.5665 19.7724 48.5665C19.5275 48.5665 19.2674 48.5818 18.992 48.6124C18.7166 48.6277 18.4717 48.6507 18.2575 48.6813V58H14.8376V46.3401ZM30.58 51.5733C30.58 53.486 31.3527 54.4424 32.8982 54.4424C33.2501 54.4424 33.5791 54.3964 33.8852 54.3046C34.1912 54.2128 34.4513 54.1057 34.6655 53.9833V48.5206C34.4972 48.49 34.2983 48.467 34.0688 48.4517C33.8392 48.4211 33.5715 48.4058 33.2654 48.4058C32.3626 48.4058 31.6894 48.7042 31.2456 49.301C30.8019 49.8977 30.58 50.6552 30.58 51.5733ZM38.0855 56.4851C38.0855 58.4591 37.5805 59.9204 36.5706 60.8691C35.576 61.8331 34.0305 62.3151 31.9342 62.3151C31.1997 62.3151 30.4652 62.2462 29.7307 62.1085C28.9963 61.9861 28.3153 61.8178 27.688 61.6036L28.2847 58.7345C28.8203 58.9487 29.3788 59.117 29.9603 59.2394C30.557 59.3619 31.2303 59.4231 31.9801 59.4231C32.9594 59.4231 33.648 59.2088 34.0458 58.7804C34.459 58.3519 34.6655 57.8011 34.6655 57.1278V56.6917C34.2983 56.86 33.9158 56.9901 33.5179 57.0819C33.1354 57.1584 32.7146 57.1967 32.2555 57.1967C30.5876 57.1967 29.3099 56.707 28.4224 55.7277C27.5349 54.7331 27.0912 53.3483 27.0912 51.5733C27.0912 50.6858 27.2289 49.8824 27.5043 49.1633C27.7798 48.4288 28.1776 47.8014 28.6979 47.2812C29.2334 46.7609 29.8838 46.3631 30.6488 46.0876C31.4139 45.7969 32.2785 45.6515 33.2425 45.6515C33.6556 45.6515 34.0764 45.6745 34.5049 45.7204C34.9486 45.751 35.3847 45.7969 35.8132 45.8581C36.2416 45.9193 36.6471 45.9958 37.0297 46.0876C37.4275 46.1641 37.7794 46.2483 38.0855 46.3401V56.4851ZM44.0244 58H40.6045V45.927H44.0244V58ZM44.3458 42.4382C44.3458 43.0655 44.1392 43.5628 43.7261 43.9301C43.3282 44.282 42.8539 44.458 42.303 44.458C41.7521 44.458 41.2701 44.282 40.857 43.9301C40.4591 43.5628 40.2602 43.0655 40.2602 42.4382C40.2602 41.8108 40.4591 41.3211 40.857 40.9692C41.2701 40.602 41.7521 40.4183 42.303 40.4183C42.8539 40.4183 43.3282 40.602 43.7261 40.9692C44.1392 41.3211 44.3458 41.8108 44.3458 42.4382ZM46.5507 46.3401C47.1321 46.1718 47.8819 46.0188 48.8 45.881C49.7181 45.728 50.6821 45.6515 51.692 45.6515C52.7172 45.6515 53.5665 45.7892 54.2398 46.0647C54.9283 46.3248 55.4716 46.6997 55.8694 47.1893C56.2672 47.679 56.5503 48.2605 56.7186 48.9337C56.887 49.607 56.9711 50.3568 56.9711 51.1831V58H53.5512V51.5962C53.5512 50.4945 53.4058 49.7141 53.1151 49.2551C52.8244 48.796 52.2812 48.5665 51.4855 48.5665C51.2406 48.5665 50.9805 48.5818 50.7051 48.6124C50.4296 48.6277 50.1848 48.6507 49.9706 48.6813V58H46.5507V46.3401ZM58.8043 52.0553C58.8043 50.9842 58.9649 50.0508 59.2863 49.2551C59.6229 48.4441 60.059 47.7708 60.5946 47.2352C61.1301 46.6997 61.7422 46.2942 62.4308 46.0188C63.1347 45.7433 63.8538 45.6056 64.5883 45.6056C66.3021 45.6056 67.6563 46.1335 68.6509 47.1893C69.6455 48.2299 70.1428 49.7677 70.1428 51.8028C70.1428 52.0017 70.1352 52.2236 70.1199 52.4684C70.1046 52.698 70.0893 52.9045 70.074 53.0882H62.316C62.3925 53.792 62.7215 54.3505 63.303 54.7637C63.8844 55.1768 64.6648 55.3834 65.6441 55.3834C66.2715 55.3834 66.8836 55.3299 67.4803 55.2227C68.0924 55.1003 68.5897 54.955 68.9723 54.7866L69.4313 57.5639C69.2477 57.6557 69.0029 57.7475 68.6968 57.8393C68.3908 57.9311 68.0465 58.0077 67.664 58.0689C67.2967 58.1454 66.8989 58.2066 66.4704 58.2525C66.042 58.2984 65.6135 58.3213 65.1851 58.3213C64.0987 58.3213 63.15 58.1607 62.339 57.8393C61.5433 57.518 60.8777 57.0819 60.3421 56.531C59.8218 55.9649 59.4317 55.2992 59.1715 54.5342C58.9267 53.7691 58.8043 52.9428 58.8043 52.0553ZM66.8377 50.747C66.8224 50.4563 66.7688 50.1732 66.677 49.8977C66.6005 49.6223 66.4704 49.3775 66.2868 49.1633C66.1185 48.949 65.8966 48.7731 65.6212 48.6354C65.3611 48.4976 65.0321 48.4288 64.6342 48.4288C64.2517 48.4288 63.9227 48.4976 63.6473 48.6354C63.3718 48.7578 63.1423 48.9261 62.9587 49.1403C62.7751 49.3545 62.6297 49.607 62.5226 49.8977C62.4308 50.1732 62.3619 50.4563 62.316 50.747H66.8377ZM71.5196 52.0553C71.5196 50.9842 71.6803 50.0508 72.0016 49.2551C72.3383 48.4441 72.7744 47.7708 73.3099 47.2352C73.8455 46.6997 74.4576 46.2942 75.1461 46.0188C75.85 45.7433 76.5692 45.6056 77.3037 45.6056C79.0175 45.6056 80.3717 46.1335 81.3663 47.1893C82.3609 48.2299 82.8582 49.7677 82.8582 51.8028C82.8582 52.0017 82.8506 52.2236 82.8352 52.4684C82.8199 52.698 82.8046 52.9045 82.7893 53.0882H75.0314C75.1079 53.792 75.4369 54.3505 76.0183 54.7637C76.5998 55.1768 77.3802 55.3834 78.3595 55.3834C78.9869 55.3834 79.5989 55.3299 80.1957 55.2227C80.8078 55.1003 81.3051 54.955 81.6876 54.7866L82.1467 57.5639C81.9631 57.6557 81.7182 57.7475 81.4122 57.8393C81.1062 57.9311 80.7619 58.0077 80.3793 58.0689C80.0121 58.1454 79.6142 58.2066 79.1858 58.2525C78.7573 58.2984 78.3289 58.3213 77.9004 58.3213C76.814 58.3213 75.8653 58.1607 75.0543 57.8393C74.2586 57.518 73.593 57.0819 73.0575 56.531C72.5372 55.9649 72.147 55.2992 71.8869 54.5342C71.642 53.7691 71.5196 52.9428 71.5196 52.0553ZM79.553 50.747C79.5377 50.4563 79.4842 50.1732 79.3924 49.8977C79.3159 49.6223 79.1858 49.3775 79.0022 49.1633C78.8339 48.949 78.612 48.7731 78.3365 48.6354C78.0764 48.4976 77.7474 48.4288 77.3496 48.4288C76.967 48.4288 76.6381 48.4976 76.3626 48.6354C76.0872 48.7578 75.8577 48.9261 75.674 49.1403C75.4904 49.3545 75.3451 49.607 75.238 49.8977C75.1461 50.1732 75.0773 50.4563 75.0314 50.747H79.553ZM92.0848 48.9567C91.7787 48.8802 91.4192 48.8037 91.006 48.7272C90.5929 48.6354 90.1491 48.5894 89.6748 48.5894C89.4605 48.5894 89.2004 48.6124 88.8944 48.6583C88.6036 48.6889 88.3818 48.7272 88.2287 48.7731V58H84.8088V46.5696C85.4209 46.3554 86.1401 46.1565 86.9664 45.9729C87.8079 45.7739 88.7414 45.6745 89.7666 45.6745C89.9502 45.6745 90.1721 45.6898 90.4322 45.7204C90.6923 45.7357 90.9524 45.7663 91.2126 45.8122C91.4727 45.8428 91.7328 45.8887 91.993 45.9499C92.2531 45.9958 92.475 46.057 92.6586 46.1335L92.0848 48.9567Z" fill="#0064F1"/>
<path d="M99.8399 40.1888C100.483 40.1888 101.072 40.2577 101.607 40.3954C102.143 40.5178 102.556 40.6402 102.847 40.7626L102.181 43.494C101.875 43.3563 101.538 43.2568 101.171 43.1956C100.819 43.1191 100.49 43.0808 100.184 43.0808C99.771 43.0808 99.4191 43.142 99.1283 43.2645C98.8529 43.3716 98.631 43.5246 98.4627 43.7235C98.3097 43.9224 98.1949 44.1596 98.1184 44.435C98.0572 44.7105 98.0266 45.0089 98.0266 45.3302V45.927H102.25V48.7731H98.0266V58H94.6067V45.2843C94.6067 43.7235 95.0428 42.4841 95.915 41.566C96.8025 40.6479 98.1108 40.1888 99.8399 40.1888ZM114.715 51.9405C114.715 52.8892 114.577 53.7614 114.301 54.5571C114.026 55.3375 113.628 56.0108 113.108 56.5769C112.588 57.1278 111.96 57.5563 111.226 57.8623C110.507 58.1683 109.696 58.3213 108.793 58.3213C107.905 58.3213 107.094 58.1683 106.36 57.8623C105.641 57.5563 105.021 57.1278 104.501 56.5769C103.98 56.0108 103.575 55.3375 103.284 54.5571C102.993 53.7614 102.848 52.8892 102.848 51.9405C102.848 50.9918 102.993 50.1273 103.284 49.3469C103.59 48.5665 104.003 47.9009 104.524 47.35C105.059 46.7992 105.687 46.3707 106.406 46.0647C107.14 45.7586 107.936 45.6056 108.793 45.6056C109.665 45.6056 110.461 45.7586 111.18 46.0647C111.914 46.3707 112.542 46.7992 113.062 47.35C113.582 47.9009 113.988 48.5665 114.278 49.3469C114.569 50.1273 114.715 50.9918 114.715 51.9405ZM111.226 51.9405C111.226 50.8847 111.012 50.0584 110.583 49.4616C110.17 48.8496 109.573 48.5435 108.793 48.5435C108.012 48.5435 107.408 48.8496 106.98 49.4616C106.551 50.0584 106.337 50.8847 106.337 51.9405C106.337 52.9963 106.551 53.8379 106.98 54.4653C107.408 55.0774 108.012 55.3834 108.793 55.3834C109.573 55.3834 110.17 55.0774 110.583 54.4653C111.012 53.8379 111.226 52.9963 111.226 51.9405ZM123.951 48.9567C123.645 48.8802 123.286 48.8037 122.872 48.7272C122.459 48.6354 122.016 48.5894 121.541 48.5894C121.327 48.5894 121.067 48.6124 120.761 48.6583C120.47 48.6889 120.248 48.7272 120.095 48.7731V58H116.675V46.5696C117.287 46.3554 118.006 46.1565 118.833 45.9729C119.674 45.7739 120.608 45.6745 121.633 45.6745C121.817 45.6745 122.038 45.6898 122.299 45.7204C122.559 45.7357 122.819 45.7663 123.079 45.8122C123.339 45.8428 123.599 45.8887 123.859 45.9499C124.119 45.9958 124.341 46.057 124.525 46.1335L123.951 48.9567ZM124.872 51.9635C124.872 51.0913 125.009 50.2726 125.285 49.5076C125.576 48.7272 125.989 48.0539 126.524 47.4877C127.06 46.9063 127.71 46.4472 128.475 46.1106C129.24 45.7739 130.113 45.6056 131.092 45.6056C131.735 45.6056 132.324 45.6668 132.859 45.7892C133.395 45.8963 133.915 46.057 134.42 46.2712L133.709 49.0026C133.387 48.8802 133.035 48.7731 132.653 48.6813C132.27 48.5894 131.842 48.5435 131.367 48.5435C130.357 48.5435 129.6 48.8572 129.095 49.4846C128.605 50.112 128.361 50.9383 128.361 51.9635C128.361 53.0499 128.59 53.8915 129.049 54.4883C129.524 55.085 130.342 55.3834 131.505 55.3834C131.918 55.3834 132.362 55.3452 132.836 55.2686C133.311 55.1921 133.747 55.0697 134.145 54.9014L134.627 57.7016C134.229 57.8699 133.731 58.0153 133.135 58.1377C132.538 58.2601 131.88 58.3213 131.161 58.3213C130.059 58.3213 129.11 58.1607 128.315 57.8393C127.519 57.5027 126.861 57.0513 126.341 56.4851C125.836 55.919 125.461 55.2533 125.216 54.4883C124.987 53.7079 124.872 52.8663 124.872 51.9635ZM135.077 52.0553C135.077 50.9842 135.237 50.0508 135.559 49.2551C135.895 48.4441 136.331 47.7708 136.867 47.2352C137.403 46.6997 138.015 46.2942 138.703 46.0188C139.407 45.7433 140.126 45.6056 140.861 45.6056C142.575 45.6056 143.929 46.1335 144.923 47.1893C145.918 48.2299 146.415 49.7677 146.415 51.8028C146.415 52.0017 146.408 52.2236 146.392 52.4684C146.377 52.698 146.362 52.9045 146.346 53.0882H138.588C138.665 53.792 138.994 54.3505 139.575 54.7637C140.157 55.1768 140.937 55.3834 141.917 55.3834C142.544 55.3834 143.156 55.3299 143.753 55.2227C144.365 55.1003 144.862 54.955 145.245 54.7866L145.704 57.5639C145.52 57.6557 145.275 57.7475 144.969 57.8393C144.663 57.9311 144.319 58.0077 143.936 58.0689C143.569 58.1454 143.171 58.2066 142.743 58.2525C142.314 58.2984 141.886 58.3213 141.458 58.3213C140.371 58.3213 139.422 58.1607 138.611 57.8393C137.816 57.518 137.15 57.0819 136.615 56.531C136.094 55.9649 135.704 55.2992 135.444 54.5342C135.199 53.7691 135.077 52.9428 135.077 52.0553ZM143.11 50.747C143.095 50.4563 143.041 50.1732 142.949 49.8977C142.873 49.6223 142.743 49.3775 142.559 49.1633C142.391 48.949 142.169 48.7731 141.894 48.6354C141.633 48.4976 141.304 48.4288 140.907 48.4288C140.524 48.4288 140.195 48.4976 139.92 48.6354C139.644 48.7578 139.415 48.9261 139.231 49.1403C139.047 49.3545 138.902 49.607 138.795 49.8977C138.703 50.1732 138.634 50.4563 138.588 50.747H143.11Z" fill="#A6B1D1"/>
</g>
<defs>
<clipPath id="clip0_559_308">
<rect width="147.803" height="98.3121" fill="white" transform="translate(0.0987244 0.312012)"/>
</clipPath>
</defs>
</svg>
