<svg width="69" height="113" viewBox="0 0 69 113" fill="none" xmlns="http://www.w3.org/2000/svg">
<path d="M57.5155 74.4729C56.8858 74.4209 56.2276 74.364 55.9507 74.6457C55.4299 75.1831 56.7934 75.711 55.8631 76.1206C55.1861 76.4188 54.0687 75.1215 53.1762 74.1226C53.1526 74.9061 52.93 75.5548 52.646 75.943C52.3714 76.336 52.021 76.1655 51.8695 76.4638C51.7133 76.7621 51.9381 77.1456 51.7842 77.593C51.6209 78.0428 50.88 78.3245 50.7474 78.9778C50.6575 79.3945 50.8516 79.8774 51.0055 80.3627C52.6318 80.1212 54.3315 80.294 55.9507 80.5379C54.4924 79.153 56.9734 75.1784 58.8151 77.4154C58.5831 77.4936 58.3511 77.5906 58.1214 77.6782C58.6304 78.4168 58.4388 79.9153 59.4235 80.2798C60.4935 80.6728 60.7018 79.0394 60.6403 78.3671C60.5598 77.5172 59.7667 76.9633 59.691 76.1087C59.4708 76.0992 59.0613 76.0779 58.9122 75.9335C58.5808 75.64 58.8152 75.2636 58.5666 74.9795C58.3393 74.7451 57.764 74.7523 57.5155 74.4729ZM62.7187 79.1554C62.4654 79.7141 62.7045 79.9153 63.3247 79.7638C63.1519 79.5389 62.9199 79.3471 62.7187 79.1554Z" fill="#CF2B2B"/>
<path d="M53.1786 74.0372C53.1786 74.0561 53.1786 74.094 53.1786 74.1153C54.0687 75.1119 55.1837 76.4163 55.8678 76.1156C56.8005 75.7037 55.4369 75.1806 55.9506 74.6408C56.2299 74.352 56.8881 74.4207 57.5178 74.468C57.4705 74.4159 57.3568 74.4514 57.3426 74.3828C57.2408 73.8715 58.4292 73.5022 58.3819 72.998C58.3369 72.4914 57.861 72.2925 57.5154 72.1244C57.1698 71.9634 57.1769 72.2215 56.4762 71.9516C56.0667 71.793 55.4582 71.2746 54.8285 70.8271C54.8901 71.0828 55.1173 71.3551 54.8285 71.606C54.4095 71.9729 53.027 70.7798 52.4849 71.4308C51.9547 72.0652 53.1265 73.2536 53.1786 74.0372Z" fill="#CF2B2B"/>
<path d="M51.8742 76.9017C51.2422 76.7359 50.7664 76.3003 50.3142 76.2104C49.2774 75.9973 48.4157 76.4447 47.8854 76.2104C47.3528 75.9737 47.6747 75.6281 47.1965 75.4316C46.7207 75.228 45.6104 75.1214 45.1181 75.5168C44.8292 75.7488 44.8813 76.1086 44.86 76.4732C45.1464 76.6981 45.3572 77.0744 45.5489 77.4248C45.7501 77.1076 46.0247 76.9372 46.3277 77.6C46.6236 78.2415 46.4249 79.65 47.5493 79.4204C47.1516 79.0795 47.1043 78.6866 47.2842 78.2013C47.6535 79.8584 49.6254 78.3859 49.9781 79.6761C49.5 79.8039 49.1804 80.204 49.2017 80.7153C49.7793 80.3744 50.4065 80.4596 51.0173 80.3697C50.8658 79.8844 50.6717 79.4015 50.764 78.9848C50.8989 78.3267 51.6399 78.0474 51.8008 77.5976C51.8908 77.3112 51.8955 77.1218 51.8742 76.9017Z" fill="#CF2B2B"/>
<path d="M52.1346 65.1952C51.5925 64.5632 51.067 63.7394 50.6622 63.5429C49.8218 63.1381 49.952 63.2541 49.6253 63.4577C49.2915 63.6589 49.436 64.3998 49.0998 64.6768C48.766 64.949 48.2239 65.0059 47.8807 64.9325C47.5469 64.8709 47.5115 64.5442 47.1919 64.4969C46.8581 64.4519 46.2827 64.5655 46.0626 64.8472C45.8424 65.1289 45.8898 65.3254 45.975 65.7989C46.0579 66.2771 46.7988 67.1222 46.8509 67.6193C46.8959 68.1164 46.5503 67.9531 46.5858 68.5709C46.626 69.1912 47.6699 70.3156 47.6226 70.9974C47.5847 71.6792 46.7515 71.7312 46.9291 72.3018C47.1042 72.8699 48.3589 72.7563 48.8442 73.1729C49.3295 73.5848 49.6277 73.9588 49.7958 74.5554C49.9355 75.0383 49.7413 75.6586 49.7106 76.2078C49.9449 76.1936 50.0585 76.151 50.3166 76.2078C50.7687 76.3001 51.2446 76.7356 51.879 76.899C51.8672 76.7641 51.8175 76.577 51.879 76.4658C52.0353 76.1722 52.3856 76.3332 52.6555 75.9402C52.9372 75.5473 53.1574 74.9034 53.1858 74.1246C53.2047 73.3434 51.9477 72.0816 52.4898 71.4377C53.0319 70.7867 54.4144 71.9751 54.831 71.6129C55.1246 71.3572 54.8949 71.0826 54.831 70.8341C54.3623 70.505 53.8438 70.2778 53.6142 69.9629C53.0815 69.2409 53.3822 68.4975 53.0082 68.1425C52.6294 67.7803 52.2081 68.0786 51.7915 67.7945C51.3796 67.5175 50.7403 67.037 50.7545 66.4972C50.7663 65.9575 51.3464 65.4935 51.7062 65.2757C51.8672 65.1786 51.9902 65.1763 52.1417 65.1905H52.1371L52.1346 65.1952Z" fill="#CF2B2B"/>
<path d="M46.7634 67.8775C45.6673 67.7402 44.4553 67.5484 43.8966 67.7923C43.0847 68.1521 43.5676 68.6018 43.2054 68.6681C42.8432 68.7249 42.6752 67.9295 42.3343 68.1379C41.9887 68.3509 42.526 69.2529 42.4171 69.6127C42.32 69.9796 41.9721 70.053 41.8964 70.3063C41.8253 70.5572 41.7212 70.6732 41.8964 70.9975C42.0692 71.3242 43.2196 71.3313 43.1131 71.9516C43.0089 72.5789 41.3021 72.2048 40.9446 72.6428C40.7529 72.8795 40.8594 73.0926 40.8594 73.2488C40.928 73.2299 40.9518 73.0736 41.0346 73.0736C41.946 73.1233 42.5047 74.352 42.855 74.8893C43.2006 75.4291 42.9378 75.8031 43.2882 76.1061C43.6338 76.4044 44.318 76.0848 44.7607 76.3665C44.7914 76.3878 44.8175 76.4257 44.8411 76.4517C44.8648 76.0895 44.8198 75.7321 45.1063 75.5001C45.5939 75.0976 46.709 75.2065 47.1801 75.4149C47.6606 75.6113 47.3434 75.9593 47.8736 76.1937C48.2784 76.3665 48.9886 76.2126 49.6965 76.1937C49.7343 75.6397 49.9166 75.0195 49.7793 74.5413C49.6088 73.9377 49.3059 73.5637 48.8277 73.1565C48.3471 72.747 47.1019 72.8653 46.9125 72.2853C46.7397 71.7219 47.5683 71.6651 47.6062 70.9857C47.6512 70.3016 46.6095 69.17 46.5669 68.5569C46.5574 68.1284 46.6758 68.055 46.7634 67.8775Z" fill="#CF2B2B"/>
<path d="M41.9861 70.2257C41.5198 70.1334 41.1718 70.2446 40.5989 69.9653C39.8083 69.5842 39.0223 68.4408 38.0849 67.7969C37.9499 67.991 37.8979 68.2088 37.7392 68.41C36.3804 70.1973 39.2212 71.2318 39.1242 72.7421C37.9831 71.7976 38.9514 73.315 37.8222 72.9173C37.995 73.7316 37.4102 73.7624 36.7852 73.6961C36.958 74.0962 37.0219 74.5389 37.3084 74.7353C37.7842 75.062 38.0707 75.1094 38.7809 74.9081C39.4247 74.7282 40.0663 73.4594 40.8593 73.2582C40.8593 73.1019 40.7481 72.8889 40.9445 72.6521C41.3115 72.2118 43.0041 72.5835 43.113 71.9609C43.2172 71.3336 42.0738 71.3288 41.8963 71.0069C41.7211 70.6802 41.8253 70.5619 41.8963 70.3133C41.9128 70.2707 41.9719 70.2517 41.9861 70.2257Z" fill="#CF2B2B"/>
<path d="M42.3366 68.5713C42.1307 68.3819 41.8915 68.1594 41.8157 67.97C41.6548 67.5841 41.8702 67.4824 41.7282 67.0137C41.5861 66.5497 40.9139 65.8845 40.7743 65.366C40.6346 64.8452 40.4239 64.76 40.7743 64.1445C40.8382 64.0261 41.1955 64.0214 41.2973 63.8888C41.2405 63.7941 41.1932 63.9101 41.1245 63.7965C40.7907 63.2165 40.9163 62.388 40.0854 62.2341C39.5859 62.1442 38.9774 61.1618 39.6521 61.2801C41.0511 61.5334 40.5399 59.2679 40.7766 58.8537C39.7989 58.5814 38.1394 59.455 37.8269 60.4208C37.4008 61.7536 39.69 63.387 39.3917 65.1009C39.1976 66.2135 38.6769 66.9639 38.0874 67.7877C39.0248 68.4316 39.806 69.5798 40.6038 69.9562C41.1767 70.2379 41.5175 70.1313 41.9862 70.2166C42.1046 70.039 42.3295 69.9254 42.4242 69.6105C42.4928 69.3525 42.3627 68.9311 42.3366 68.5713Z" fill="#CF2B2B"/>
<path d="M46.5809 64.67C46.4104 64.4948 46.3301 64.3031 46.1502 64.1398C45.4353 63.5385 44.7368 63.252 44.0693 63.02C43.3094 63.7018 42.3673 65.366 41.2925 63.8912C41.1978 64.0285 40.845 64.0285 40.7717 64.1469C40.4189 64.7529 40.6296 64.8476 40.7717 65.3707C40.909 65.8868 41.5859 66.5544 41.7232 67.0184C41.8653 67.4847 41.6594 67.5889 41.811 67.9724C41.882 68.1594 42.121 68.3819 42.3364 68.576C42.3222 68.4245 42.2394 68.2043 42.3364 68.1428C42.6797 67.9321 42.8454 68.7181 43.2052 68.666C43.5674 68.6068 43.0844 68.1547 43.8988 67.7948C44.4575 67.5486 45.6672 67.738 46.7632 67.88C46.7916 67.8209 46.8579 67.7593 46.8508 67.6244C46.7987 67.1225 46.0625 66.2798 45.9749 65.804C45.8968 65.321 45.8399 65.1269 46.0625 64.8523C46.1714 64.7126 46.3915 64.7292 46.5809 64.67Z" fill="#CF2B2B"/>
<path d="M50.7522 52.4429C50.9984 53.6833 51.1783 54.9096 50.1414 55.4824C48.16 56.5761 49.152 58.4912 48.1482 60.3401C47.3221 61.8693 45.5702 61.9735 44.2422 62.8565C44.1901 62.892 44.1168 62.9819 44.0671 63.0316C44.7394 63.2636 45.4376 63.5548 46.1478 64.1537C46.3254 64.3147 46.4035 64.5041 46.5787 64.6816C46.8036 64.6177 47.0095 64.4852 47.1823 64.5088C47.5138 64.5609 47.5446 64.8805 47.876 64.9397C48.2145 65.0059 48.7614 64.9539 49.0975 64.6816C49.4266 64.4118 49.2774 63.6708 49.6207 63.4648C49.9545 63.2613 49.8124 63.1429 50.6575 63.5501C51.0694 63.7466 51.5901 64.568 52.1346 65.2001C52.3074 65.2214 52.5063 65.2569 52.653 65.1148C52.9158 64.8544 52.6365 64.3857 52.9159 63.8957C53.0839 63.6045 53.5361 63.3654 53.8699 63.1192C53.8178 63.0837 53.7468 63.0624 53.6971 63.0316C53.1526 62.7192 52.7052 62.4398 52.3951 61.9025C52.0803 61.3722 51.7512 60.5034 52.0495 59.9069C52.3431 59.3103 53.6236 59.547 53.7799 59.0381C53.9385 58.5244 53.2521 58.2995 53.2521 57.9089C53.2521 57.5183 53.7776 57.4378 53.69 56.8697C53.6024 56.3039 52.1181 55.8612 52.0377 55.2173C51.9595 54.5805 53.0366 54.9735 52.8164 53.9177C52.6862 53.2406 51.8222 53.0394 50.7522 52.4429Z" fill="#CF2B2B"/>
<path d="M59.0754 68.7484C58.0906 68.0997 57.0301 67.4108 56.7366 66.9279C56.0927 65.8579 56.7555 66.3172 56.5638 65.9739C56.3649 65.6283 55.8607 65.5833 55.5269 65.0223C55.3352 64.6932 55.38 64.0564 55.2664 63.5475C54.7622 63.4835 54.2675 63.3605 53.884 63.1143C53.5454 63.3628 53.0933 63.6066 52.9299 63.8978C52.6506 64.3807 52.93 64.8494 52.6696 65.1169C52.4092 65.375 52.0731 65.0744 51.718 65.2898C51.3605 65.5028 50.7782 65.9644 50.7687 66.5113C50.7592 67.0534 51.3959 67.5316 51.8078 67.8109C52.2197 68.095 52.6435 67.7943 53.0222 68.1589C53.401 68.5235 53.0957 69.2621 53.6284 69.977C53.858 70.2847 54.3763 70.512 54.8522 70.8458C54.8167 70.7416 54.7717 70.6777 54.8522 70.5025C55.1078 69.9012 55.9412 68.8217 56.8478 68.5022C57.532 68.237 58.306 68.6442 59.0754 68.7484Z" fill="#CF2B2B"/>
<path d="M62.4582 72.4795C61.8829 72.8204 61.3692 73.2418 60.7253 73.3507C59.9228 73.4809 59.0208 73.14 58.2988 72.9198C58.313 72.9672 58.3793 72.9553 58.3841 73.005C58.4314 73.5093 57.2359 73.8833 57.3425 74.3899C57.4514 74.8941 58.3059 74.7119 58.564 74.9936C58.8149 75.2847 58.5876 75.6469 58.9096 75.9452C59.0682 76.0849 59.473 76.1109 59.6908 76.1204C59.5156 74.3449 62.4795 75.7629 62.9884 76.2932C63.4785 75.5072 60.9574 74.0466 62.6405 73.6939C62.5245 73.5519 62.8133 73.5519 62.8133 73.4312C62.7636 73.3317 62.7659 73.1968 62.7256 73.0855C62.638 72.8843 62.4842 72.6381 62.4582 72.4795Z" fill="#CF2B2B"/>
<path d="M61.9328 71.1774C61.6819 71.3644 61.5255 71.5419 60.9811 71.6082C60.0412 71.7313 57.8989 70.5571 57.1698 71.0045C56.5377 71.3809 56.7177 71.7266 56.8219 72.0438C57.0515 72.0604 57.2882 72.0248 57.5179 72.129C57.8256 72.2734 58.183 72.5054 58.2966 72.9102C59.0163 73.1327 59.9134 73.4689 60.7207 73.3434C61.3622 73.2416 61.8783 72.8131 62.4535 72.4699C62.3967 72.1314 62.3139 71.7645 61.9328 71.1774Z" fill="#CF2B2B"/>
<path d="M56.8194 68.4885C55.9198 68.8057 55.0938 69.8852 54.8239 70.4841C54.7481 70.6664 54.7908 70.7208 54.8239 70.8297C55.456 71.2772 56.0643 71.805 56.4762 71.9589C56.7153 72.0536 56.7082 72.0347 56.8219 72.0465C56.7177 71.7269 56.5354 71.3813 57.1675 71.0073C57.9037 70.5599 60.0389 71.7388 60.9787 71.6109C61.5327 71.5447 61.6818 71.3671 61.9303 71.1801C61.8617 71.0617 61.9493 71.057 61.8498 70.9244C61.3669 70.2805 60.2448 69.5277 59.0706 68.756C58.306 68.6447 57.5319 68.2376 56.8194 68.4885Z" fill="#CF2B2B"/>
<path d="M61.1586 63.3701C60.1193 62.8872 58.8078 61.4787 57.7757 61.642C56.5305 61.8314 56.5164 63.5429 55.695 63.7181C55.5174 63.756 55.4227 63.5619 55.2593 63.5429C55.3753 64.0495 55.3186 64.6863 55.5222 65.0153C55.8583 65.5787 56.3601 65.6214 56.5613 65.967C56.7507 66.3103 56.0902 65.851 56.7341 66.921C57.0277 67.4063 58.0883 68.0904 59.0778 68.7438C59.2814 68.7651 59.4874 68.8858 59.6815 68.8219C60.6331 68.5331 61.8427 67.7803 62.0226 66.8263C62.2002 65.8723 60.9124 65.3728 60.8082 64.3975C60.7703 64.0684 61.1349 63.756 61.1586 63.3701Z" fill="#CF2B2B"/>
<path d="M68.4427 72.2164C67.6781 71.5039 66.5607 70.8576 65.9239 70.5664C65.1261 70.1971 64.9273 70.0409 64.5415 70.1309C64.1603 70.2303 64.1319 70.7156 63.8502 70.8245C63.5591 70.931 63.3649 70.886 62.979 70.7392C62.5955 70.5854 62.3707 70.0148 61.76 69.7852C61.4049 69.6455 60.8888 69.7166 60.3751 69.7C60.9172 70.1024 61.5966 70.5759 61.8475 70.9168C62.7258 72.0957 62.444 72.3798 62.7186 73.0828C62.766 73.1965 62.7659 73.329 62.8062 73.4284C62.837 72.6212 65.0291 72.3608 64.1911 74.2073C63.9425 74.7494 63.8432 78.0352 64.7924 78.2837C65.1665 78.3808 67.3017 76.3212 67.3088 75.8573C67.3325 75.1305 66.814 74.6239 66.7856 73.9469C66.7549 72.955 67.7136 72.6094 68.4427 72.2164Z" fill="#CF2B2B"/>
<path d="M63.0642 62.5889C62.2925 62.7617 62.8843 63.5855 61.845 63.7181C61.6699 63.7394 61.3599 63.4672 61.1563 63.3701C61.1279 63.756 60.768 64.0708 60.8107 64.4093C60.9053 65.3894 62.2002 65.8841 62.0203 66.8358C61.8499 67.7851 60.6354 68.5426 59.6838 68.829C59.4755 68.8882 59.2766 68.7722 59.0731 68.7462C59.6104 69.0989 59.9181 69.364 60.3773 69.6978C60.9029 69.7168 61.4071 69.6434 61.7646 69.783C62.3682 70.015 62.6002 70.5808 62.9837 70.7394C63.3672 70.8933 63.559 70.9335 63.8525 70.8246C64.1461 70.7157 64.1626 70.2304 64.5438 70.131C64.932 70.0363 65.1285 70.1973 65.9287 70.5642C66.5655 70.8554 67.6757 71.5017 68.445 72.2166C68.5066 72.1834 68.4829 72.0745 68.5326 72.0414C66.5204 70.737 65.1286 68.7911 64.4539 66.4901C64.2101 65.6521 64.0893 64.7644 64.1083 63.8862C64.1154 63.4601 64.2716 63.3938 64.5414 63.2825C63.9828 62.925 63.4951 62.4966 63.0642 62.5889Z" fill="#CF2B2B"/>
<path d="M19.8761 67.7021C19.3718 67.9554 19.3338 68.6893 19.9612 68.8266C20.9909 69.0633 20.4087 67.9105 19.8761 67.7021ZM18.922 69.1793C18.6805 69.2385 18.7185 69.4799 19.0073 69.8729C19.0877 69.6457 19.18 69.4066 19.2676 69.1793C19.1374 69.1627 19.0049 69.158 18.922 69.1793ZM21.2585 73.4285C20.4465 73.5043 19.4168 74.0701 18.8345 74.3021C20.056 75.6633 16.2943 78.8591 15.023 80.457C15.1248 80.6487 15.1059 81.0251 15.2811 81.2358C15.7972 81.8371 16.7678 82.6585 17.4472 82.275C18.1266 81.8892 17.4069 80.4475 17.7028 79.9315C17.9987 79.413 18.2308 79.3396 18.7421 79.1503C19.2582 78.9632 20.243 79.4793 20.7401 79.065C21.2325 78.6413 20.5909 77.692 21.1685 77.2446C21.7532 76.7972 22.9936 77.621 23.7772 77.3346C23.3487 77.086 22.783 76.9013 22.738 76.4563C22.6741 75.8503 23.673 75.7461 23.7772 75.0762C23.8364 74.7376 23.4482 74.5151 23.1664 74.2003C23.067 74.0819 23.1475 73.8334 23.086 73.6795C22.7451 73.6392 22.4042 73.7529 21.9568 73.5043C21.7461 73.393 21.5355 73.4049 21.2585 73.4285Z" fill="#CF2B2B"/>
<path d="M14.2371 98.1432C13.7305 99.0499 13.0487 98.7516 13.4606 99.9589C13.6713 100.603 13.9696 101.145 14.3294 101.694C14.604 102.111 16.4291 104.798 14.7626 104.211C15.4041 104.892 15.7664 105.413 16.763 105.513C17.253 105.567 17.5251 106.145 18.0625 106.036C18.8295 105.882 18.2307 105.276 17.8922 105.086C17.1323 104.672 16.5428 103.088 17.1109 102.31C17.769 101.41 19.0853 103.105 17.6389 102.655C17.8945 103.391 18.51 103.879 18.8556 104.563C19.277 105.404 19.0875 106.282 19.0307 107.172C19.9895 106.781 20.4558 105.818 21.2867 105.259C19.5799 104.13 20.7541 103.692 22.1603 104.393C22.3071 104.097 22.3758 103.758 22.416 103.436C22.0278 102.759 21.5803 102.142 21.1139 101.708C20.07 100.716 19.0545 100.967 18.2496 100.409C17.4566 99.85 17.3003 98.9032 16.3392 98.4984C15.7734 98.2616 14.978 98.1219 14.2371 98.1432ZM11.3751 101.697C11.368 101.917 11.3562 102.137 11.3751 102.39C11.6592 102.404 11.645 102.149 11.3751 101.697ZM22.0467 108.55C21.346 108.91 21.4311 112.131 22.4822 111.762C22.0443 110.744 22.5794 109.549 22.0467 108.55ZM19.5279 111.409C18.4247 111.601 19.3078 112.844 19.9635 112.974C21.2513 113.225 20.3635 111.551 19.5279 111.409Z" fill="#CF2B2B"/>
<path d="M34.6169 0.0648053C34.3139 0.266023 34.2144 0.748948 33.6652 0.32284C34.2002 1.2011 34.3375 2.20955 35.1353 2.92683C36.3284 3.99684 37.7132 5.19469 38.4352 6.65292C39.0673 7.93835 39.7657 9.29952 40.251 10.6418C40.7173 11.9225 39.42 12.4835 40.3361 13.5938C41.2735 14.7253 43.461 17.4098 40.4238 17.0571C39.0555 16.8984 37.4859 15.7219 36.1674 15.7574C35.3601 15.7764 36.2526 17.0547 36.5178 17.2322C37.2634 17.7365 38.0612 17.9661 37.8979 19.0479C37.6067 21.0057 35.4336 19.938 36.3356 22.5183C37.0197 24.4737 39.0247 24.3175 40.2415 25.726C41.0061 26.6137 40.6084 27.9299 41.2783 28.9336C42.3507 30.5197 42.7176 29.5089 43.9699 29.0212C43.1201 28.3513 43.9912 27.5228 44.7487 27.3689C44.9499 27.3286 47.5682 28.027 46.9149 26.9404C46.4485 26.1616 44.7204 25.7213 43.9676 25.2028C42.8692 24.4406 41.3731 24.6015 40.2391 23.818C39.6 23.3777 39.1265 22.3976 39.5502 21.6519C39.9621 20.9133 41.2262 21.5691 41.7162 21.8271C42.3625 22.1585 42.8809 22.7787 43.5343 23.0415C44.2326 23.3279 45.1465 21.7656 45.7928 21.3915C47.9209 20.1771 50.8256 22.8711 52.7288 23.5599C54.1113 24.0571 56.8999 25.9059 58.3676 25.7284C59.2624 25.6242 58.7914 24.7317 58.5428 24.2559C57.9439 23.1102 57.8704 22.2153 58.3676 20.9607C59.4234 18.2999 60.9953 18.2336 63.5733 18.8798C62.4299 17.4334 66.3145 19.0882 65.0433 17.4074C65.6445 17.1541 66.2861 16.934 66.9584 17.0594C66.8803 16.5197 67.1526 16.0344 67.6473 15.845C66.8259 14.8981 66.9323 16.1693 66.3452 16.451C65.9901 16.6262 65.3439 15.8663 65.2161 15.7574C64.9699 15.542 63.2228 13.8352 63.9164 13.9417C62.8275 13.5156 61.7125 13.2055 61.4924 11.8633C61.3219 10.8667 61.6297 8.9681 60.4532 8.47571C60.278 9.45813 60.0129 11.1555 58.8884 11.5177C57.5415 11.9485 55.4038 9.78955 54.6368 10.6441C54.4001 9.88897 53.8841 10.0097 53.252 10.121C52.369 10.2772 52.1654 9.62146 51.4339 9.33976C49.1424 8.4615 47.0616 7.68979 44.9311 6.39016C42.4596 4.89167 40.187 3.1399 37.7251 1.62484C36.9297 1.12535 35.8999 0.251822 34.9507 0.0600733C34.7992 0.0292988 34.7258 -0.00621277 34.6169 0.0648053ZM29.6763 0.32284C29.726 0.490916 30.4505 1.11588 30.6281 1.19637C30.4813 0.741854 30.1427 0.408062 29.6763 0.32284ZM31.672 1.79765C31.6152 2.55991 32.42 2.91263 32.9739 2.40366C32.6023 2.06988 32.1596 1.8734 31.672 1.79765ZM35.1376 24.0878C35.114 24.5873 35.4265 24.8477 35.9166 24.7815C35.9615 24.2583 35.6703 23.9624 35.1376 24.0878Z" fill="#CF2B2B"/>
<path d="M61.069 63.3896C60.302 63.553 59.6887 63.7684 59.2484 63.6476C58.3654 63.4085 58.7182 63.1316 58.2968 63.1198C57.8826 63.1127 57.3831 63.4109 57.0801 63.7258C56.7913 64.0453 57.3736 64.3081 56.5545 64.8526C56.0455 65.1935 54.8169 65.0633 53.6925 64.9402C53.7043 65.4042 53.2569 65.5273 53.2569 65.8918C53.2569 66.2848 53.9387 66.5121 53.7848 67.0187C53.6191 67.5252 52.3503 67.2932 52.0497 67.8851C51.7561 68.4769 52.0875 69.3457 52.3953 69.883C52.7078 70.418 53.1551 70.6974 53.6996 71.0075C54.2417 71.3152 54.869 71.8834 55.6952 71.7011C56.5214 71.5259 56.5308 69.8097 57.7737 69.6203C59.0117 69.4309 60.8227 71.8431 61.8501 71.7011C62.8798 71.5567 62.288 70.74 63.0645 70.5719C63.4977 70.4772 63.9854 70.9057 64.5369 71.2655C64.5961 71.2371 64.6293 71.2111 64.7122 71.1779C65.1075 70.998 64.6387 70.5956 64.6245 70.3044C64.4896 67.7999 62.3757 65.8871 61.1613 63.8868C61.0264 63.6974 61.1589 63.5979 61.069 63.3896Z" fill="#CF2B2B"/>
<path d="M57.1673 55.7358C57.4609 55.4375 57.9011 55.1179 58.294 55.1274C58.7083 55.1345 58.3556 55.4091 59.2433 55.653C59.6884 55.7737 60.2969 55.5535 61.0638 55.3949C60.1856 53.333 61.1135 51.6073 63.4902 53.1366C62.6948 52.2844 61.7551 49.5809 62.3635 48.2789C62.1315 48.3547 61.7787 48.1393 61.5823 48.2789C61.0449 48.6624 60.5904 49.1832 59.9347 49.1453C58.6422 49.0743 57.3022 47.6611 56.3813 47.7652C55.5481 47.8528 55.6949 48.5015 55.0794 48.7193C55.4463 49.304 56.0665 49.8058 56.289 50.2769C56.8548 51.4747 57.0157 52.3435 56.8997 53.1389C56.7885 53.9343 55.7825 54.1734 55.9458 54.8741C56.05 55.3026 56.6465 55.518 57.1673 55.7358Z" fill="#CF2B2B"/>
<path d="M57.1676 55.7363C56.6468 55.5186 56.0526 55.2984 55.9484 54.8628C55.7756 54.1621 56.784 53.9207 56.9 53.13C57.016 52.337 56.8527 51.4634 56.2964 50.268C56.0738 49.7921 55.4489 49.2903 55.0796 48.7056C55.0039 48.7292 55.004 48.7742 54.9045 48.7884C53.9647 48.895 52.3052 47.4462 51.2588 47.4059C50.738 47.3846 50.4492 47.664 50.1368 47.7516C50.1817 48.5896 50.5818 49.4087 50.4871 50.0952C50.3901 50.7462 50.5772 51.5936 50.7429 52.4364C51.8105 53.0329 52.6769 53.2318 52.8213 53.9065C53.0391 54.9623 51.9572 54.574 52.0424 55.2085C52.1205 55.8524 53.6095 56.2903 53.6947 56.8608C53.7042 56.9058 53.6947 56.9153 53.6947 56.9484C54.8121 57.0715 56.0455 57.2017 56.5569 56.8608C57.3665 56.3187 56.777 56.0559 57.0824 55.7387C57.0966 55.7198 57.1463 55.7553 57.1676 55.7363Z" fill="#CF2B2B"/>
<path d="M52.3976 38.393C51.9667 38.0521 51.6566 37.0152 51.0979 36.9229C50.4848 36.8211 50.4185 37.5408 49.7107 37.7041C48.9958 37.8627 47.7483 37.1833 46.9292 37.439C46.6073 37.5384 46.4344 37.7609 46.2403 38.0521C46.4249 38.2604 46.7705 38.4285 46.851 38.6557C47.102 39.4156 47.0926 41.2763 45.8119 40.3862C46.0628 41.2597 46.5647 41.1651 47.2796 41.1627C48.2383 41.1603 48.9319 42.2706 49.3603 42.9831C50.1108 44.2141 50.0611 46.044 50.1393 47.7484C50.4517 47.6585 50.7405 47.3768 51.2613 47.4028C52.3077 47.4525 53.967 48.8942 54.9021 48.7853C55.8419 48.6811 55.4489 47.8479 56.3769 47.7484C55.3353 46.8086 53.6641 45.6415 53.3398 44.8012C52.9539 43.788 53.567 44.1857 53.4273 43.3335C53.29 42.4718 52.1442 41.023 52.0424 39.8583C52.0046 39.3352 52.3858 38.8499 52.3976 38.393Z" fill="#CF2B2B"/>
<path d="M52.3974 38.3933C52.3832 38.8407 52.0044 39.3355 52.0518 39.8634C52.1536 41.0233 53.3017 42.4768 53.439 43.3338C53.5739 44.1931 52.9655 43.7883 53.3538 44.8063C53.6757 45.6443 55.3469 46.8089 56.3885 47.7535C57.3118 47.6541 58.6517 49.065 59.9419 49.136C60.5858 49.181 61.0544 48.6531 61.5918 48.2696C61.7859 48.1299 62.1387 48.3382 62.3707 48.2696C62.5057 47.9808 62.2807 47.3889 62.6263 47.3155C61.9445 46.764 62.5057 45.7484 62.0251 45.0572C61.625 44.5032 61.6391 43.8333 61.1539 43.2391C60.6118 42.5644 60.3325 41.6838 59.7691 40.9831C59.2554 40.3558 58.782 40.0315 58.3819 39.3379C57.8137 38.3602 56.7106 37.7944 55.695 37.1694C55.4086 37.3422 55.0511 37.4204 54.8214 37.5174C54.3267 37.7328 54.2983 37.2807 54.045 37.4298C53.7893 37.579 53.8959 38.1755 53.6095 38.3815C53.3207 38.5969 52.994 38.7555 52.4826 38.5566C52.44 38.5543 52.44 38.4264 52.3974 38.3933Z" fill="#CF2B2B"/>
<path d="M46.2378 38.052C46.4319 37.7561 46.6071 37.5383 46.9267 37.4389C47.7363 37.1879 48.9932 37.8579 49.7058 37.704C50.4183 37.5335 50.4751 36.821 51.093 36.9228C51.7014 37.0222 51.9642 38.3763 52.4756 38.568C52.9869 38.7645 53.3183 38.6107 53.6 38.3952C53.8911 38.1845 53.7705 37.5927 54.0356 37.4389C54.2936 37.2897 54.322 37.7442 54.8121 37.5241C55.044 37.427 55.399 37.3536 55.6855 37.1785C55.141 36.8423 54.6557 36.4328 54.2107 36.0516C52.5489 34.6242 51.3819 32.2451 50.8303 30.1548C50.0112 30.9076 48.1907 29.241 47.3622 29.4659C47.2415 29.4967 47.0876 29.6056 47.0166 29.7239C46.1667 31.1348 49.1164 33.0097 49.5306 31.0259C50.4917 31.4757 51.5168 33.0144 50.8351 34.0631C50.2267 33.6678 49.585 33.3032 48.9222 33.0239C49.1921 33.4524 49.1921 33.8951 48.9222 34.3259C47.8877 34.0702 47.5469 32.9718 46.9219 32.2451C46.2804 31.4828 45.3927 31.7929 44.6707 31.2058C44.647 32.1078 46.5194 33.9779 45.7098 34.6786C45.2932 35.0384 43.719 35.4646 44.5807 36.3262C45.0802 36.7997 45.7217 37.4318 46.2378 38.052Z" fill="#CF2B2B"/>
<path d="M32.1905 72.5624C31.3122 72.8252 30.4387 72.7044 29.5841 72.908L30.9713 74.3828L31.059 75.5949L30.1855 76.8992L30.6211 78.6273L31.8401 79.6666C32.1005 79.5695 32.3396 79.4512 32.6166 79.4085C33.9281 79.1884 34.991 80.4099 36.1699 80.1826C36.9038 80.0453 37.6305 79.6761 38.2507 80.0998C38.3927 79.8915 38.5063 79.7518 38.5111 79.4914C38.53 78.9611 38.1726 78.3504 37.9051 77.7633C37.7157 77.7917 37.5193 77.8367 37.2116 77.6781C36.6765 77.3845 36.1368 76.2033 35.5615 75.8576C34.9934 75.5144 34.3282 75.8292 34.0938 75.512C33.8547 75.1901 34.3873 75.1238 34.1766 74.6409C33.9683 74.1556 32.6711 73.7508 32.361 73.1661C32.2379 72.9412 32.3326 72.7636 32.2757 72.5601C32.2544 72.5719 32.2189 72.5577 32.1905 72.5624ZM35.7509 80.9709C35.0147 81.3095 34.6311 82.8174 35.2182 83.3193C36.4823 84.3633 36.0373 81.3095 36.0918 80.9709C35.9782 80.9662 35.8527 80.926 35.7509 80.9709Z" fill="#CF2B2B"/>
<path d="M41.5531 79.3258C41.984 79.617 42.4242 79.8301 42.7698 80.3651C43.3427 81.248 44.0056 83.0519 43.8139 83.9207C43.6174 84.7942 42.7816 84.6995 42.6846 85.1422C42.5899 85.5683 42.4976 85.5707 42.9474 86.0938C43.2362 86.4324 44.124 86.6975 44.8555 86.965C45.0307 86.2051 45.3999 85.618 45.4615 85.4002C45.5988 84.9197 45.4828 83.7621 45.8994 83.4046C46.6996 82.7134 47.8855 83.336 48.7566 82.8791C47.9754 81.8825 47.4145 81.2599 46.2379 80.7107C44.8129 80.0502 45.3029 79.3708 45.2887 78.109C45.2887 77.8842 45.4165 77.619 45.5467 77.4154C45.3313 77.0225 45.1016 76.5822 44.7726 76.3762C44.3275 76.0898 43.6458 76.4164 43.2978 76.1182C43.3617 76.6532 43.6789 77.2332 43.6457 77.5906C43.5984 78.0073 43.5464 78.0002 43.2978 78.1966C43.0445 78.3908 42.4597 78.2463 42.1733 78.4547C41.8797 78.6677 42.1094 79.0891 41.7378 79.3282C41.6952 79.3542 41.6028 79.3045 41.5531 79.3258Z" fill="#CF2B2B"/>
<path d="M41.5528 79.3256C41.6025 79.3043 41.6948 79.3493 41.7279 79.3256C42.0972 79.0865 41.87 78.6746 42.1659 78.4521C42.4571 78.2414 43.0418 78.3953 43.2927 78.194C43.5437 77.9976 43.591 78.0094 43.6383 77.588C43.6762 77.2306 43.3543 76.6506 43.2927 76.1132C43.2217 76.054 43.2336 75.9286 43.2052 75.8576C43.0915 75.5924 43.1341 75.3273 42.8571 74.9035C42.5115 74.3685 41.9553 73.1328 41.0392 73.0831C40.123 73.0334 39.4933 74.7023 38.7832 74.9035C39.0294 75.0503 39.1855 75.3604 39.3062 75.5948C39.5571 76.0848 39.5146 76.5441 39.7466 77.0696C39.9691 77.5999 40.2745 78.0568 40.7811 78.6344C40.9752 78.8616 41.2782 79.1386 41.5528 79.3256Z" fill="#CF2B2B"/>
<path d="M39.8225 79.2402C39.8462 79.9765 39.948 80.8429 40.1681 81.314C40.4853 81.9958 41.0607 81.8537 41.2003 82.4431C41.3518 83.0302 40.528 83.8185 40.6819 84.4435C40.8405 85.059 41.3566 85.4401 41.8963 85.6555C42.1733 85.7621 42.4668 85.5798 42.7674 85.568C42.7603 85.4685 42.6372 85.3265 42.6822 85.1371C42.7792 84.7062 43.6149 84.7938 43.809 83.918C44.0008 83.0492 43.3427 81.2548 42.7722 80.3623C42.4266 79.8273 41.9885 79.6024 41.5506 79.3231C41.1694 79.5077 40.6226 79.6119 40.0829 79.4107C39.9977 79.3823 39.9006 79.297 39.8225 79.2402Z" fill="#CF2B2B"/>
<path d="M40.7763 81.9293C40.3928 81.9625 40.014 82.1353 39.6518 82.1022C39.2352 82.0572 38.9227 81.811 38.5226 81.6689C38.2125 82.1637 37.7297 82.5874 37.3059 82.7958C37.9806 83.3047 38.6079 83.9818 38.5226 84.8695C38.4303 85.8803 39.6354 86.3348 40.3432 86.6923C41.1196 87.0829 41.3208 88.0322 42.1636 88.3423C42.8051 88.5766 43.4039 88.9507 44.0715 89.1164C44.5189 89.2324 44.6112 87.999 44.848 86.9503C44.1189 86.6899 43.2383 86.4201 42.9423 86.0792C42.689 85.7856 42.7743 85.6838 42.7672 85.5536C42.4737 85.5607 42.1731 85.7454 41.8961 85.6412C41.3611 85.4258 40.8403 85.0399 40.6817 84.4197C40.5207 83.809 41.3445 83.0088 41.2001 82.4241C41.148 82.1921 40.9444 82.0382 40.7763 81.9293Z" fill="#CF2B2B"/>
<path d="M37.9098 77.7635C38.1773 78.3483 38.5323 78.959 38.5157 79.4892C38.5063 79.7496 38.395 79.8964 38.2577 80.1024C38.395 80.1876 38.5726 80.0669 38.6885 80.2752C38.9418 80.7202 38.7951 81.2245 38.5157 81.6577C38.9229 81.7973 39.2283 82.053 39.6449 82.0909C40.0095 82.1264 40.3883 81.9512 40.7718 81.9181C40.5516 81.7737 40.3433 81.6861 40.1587 81.3097C39.9385 80.8315 39.8391 79.9651 39.8154 79.2312C39.3041 78.8619 38.8779 78.0618 38.4305 77.8464C38.2103 77.7446 38.0636 77.747 37.9098 77.7635Z" fill="#CF2B2B"/>
<path d="M32.2732 72.5621C32.3324 72.7704 32.2376 72.9408 32.3607 73.1681C32.6661 73.7457 33.9704 74.1647 34.1811 74.6382C34.3894 75.1235 33.8521 75.1803 34.0936 75.5141C34.3327 75.8313 34.9907 75.5164 35.5636 75.8597C36.1364 76.2053 36.6787 77.3937 37.2113 77.6801C37.751 77.9689 37.9048 77.5996 38.4351 77.8529C38.963 78.1039 39.4696 79.1975 40.0827 79.4201C40.6248 79.6142 41.1812 79.5124 41.5528 79.3325C41.2688 79.1455 40.9728 78.8685 40.7764 78.6412C40.2603 78.0613 39.9644 77.6115 39.7395 77.0765C39.5099 76.5486 39.562 76.0822 39.3016 75.6016C39.1785 75.3673 39.0245 75.0596 38.7759 74.9104C38.731 74.9246 38.7216 74.8986 38.6861 74.9104C38.0635 75.0761 37.7486 75.0477 37.3059 74.7376C37.0171 74.5411 36.9556 74.0937 36.7804 73.6984C35.8572 73.6013 34.7943 73.2107 35.5589 74.0464C35.1849 73.8049 34.271 73.8073 34.1764 73.2652C34.0722 72.6615 34.5197 71.7596 33.4828 72.0437C33.0709 72.162 32.6898 72.4248 32.2732 72.5621Z" fill="#CF2B2B"/>
<path d="M31.9252 80.9709C31.608 80.9472 31.3381 81.1816 31.1487 81.4988C31.4399 81.7805 32.0601 81.9083 32.2756 81.6716H32.3584C32.3702 81.6527 32.3489 81.6077 32.3584 81.5864C32.3891 81.4822 32.3584 81.3449 32.2756 81.1532C32.1596 81.0798 32.0341 80.9851 31.9252 80.9709ZM31.234 82.2752C30.1213 82.0764 29.0987 83.6222 28.2867 83.144C28.9756 83.7643 28.8879 84.1738 28.5423 84.5289C28.8382 84.6283 29.1934 84.6615 29.4159 84.8745C29.4396 84.91 29.475 84.9337 29.5034 84.9621C29.7118 84.6922 29.9154 84.4744 30.1924 84.3561C31.0304 83.9939 32.1524 84.3987 32.8815 84.0128C33.3361 83.7666 33.4686 83.3547 33.7503 82.9736C32.9289 82.744 32.1454 82.4362 31.234 82.2752Z" fill="#CF2B2B"/>
<path d="M35.5686 87.4784C35.2821 87.2677 35.1235 86.9434 34.7921 86.7871C33.9091 86.3658 32.9361 86.1148 32.278 85.9136C30.9618 85.523 30.3511 85.6224 29.4113 85.826C28.4738 86.0391 27.3778 86.6238 26.8097 87.2132C26.2439 87.8003 26.0048 88.4892 25.9385 89.0337C25.8817 89.5687 26.3836 89.8551 26.2842 90.2481C26.1895 90.6411 25.5882 90.6955 25.5077 91.124C25.4296 91.5382 25.9503 91.7466 25.9409 92.4236C25.9409 92.594 25.7871 92.8308 25.6853 93.0343C26.5209 92.9207 26.6606 93.9032 27.3305 94.1565C27.8324 94.3458 28.3461 94.0996 28.8053 94.2417C28.0454 93.1693 28.7721 91.0672 29.2385 90.0848C30.5854 87.2251 32.9575 89.3225 34.6975 90.4304C34.8726 89.777 34.6761 89.0834 34.8726 88.4324C34.9909 88.0583 35.3153 87.7861 35.5686 87.4784Z" fill="#CF2B2B"/>
<path d="M29.764 85.8311C29.6693 85.6654 29.6597 85.1257 29.4183 84.8771C29.2028 84.6641 28.8525 84.6333 28.5424 84.5315C28.3293 84.7611 28.0808 85.0073 27.5908 85.1422C25.7893 85.6299 26.0237 84.4629 24.3832 84.1812C24.2364 85.0073 24.3216 87.4622 23.4292 87.7415C22.9841 88.7618 21.7413 88.9962 21.0879 89.8176C21.862 89.8721 22.3378 89.2163 23.0006 88.9488C23.1403 89.3039 23.5049 90.3739 24.0376 90.3313C24.7336 90.2745 24.9821 90.7456 24.0376 90.9373C24.7407 91.1717 24.7406 93.1436 25.6852 93.0134C25.7893 92.8075 25.9432 92.5731 25.9455 92.4098C25.955 91.728 25.427 91.5315 25.5099 91.1054C25.5904 90.6911 26.1846 90.6272 26.2864 90.2366C26.3858 89.8437 25.8816 89.5643 25.9408 89.0198C25.9999 88.4777 26.2367 87.7865 26.8143 87.2018C27.3754 86.61 28.4761 86.0205 29.4183 85.8146C29.5272 85.8075 29.6599 85.8524 29.764 85.8311Z" fill="#CF2B2B"/>
<path d="M29.5037 84.9623C29.6788 85.2369 29.6789 85.6843 29.7617 85.831C30.5216 85.6724 31.1182 85.5801 32.2758 85.9234C32.9291 86.1151 33.9044 86.3684 34.7922 86.7922C35.1236 86.946 35.2822 87.2751 35.5686 87.4834C35.8456 87.1544 36.0516 86.7945 36.2623 86.4442C36.6576 85.8003 35.0052 84.1266 34.9602 83.2365C34.4962 83.3336 34.1388 83.0827 33.7435 82.9785C33.4641 83.3596 33.3339 83.7739 32.8747 84.0177C32.1479 84.406 31.0211 83.9988 30.1807 84.3633C29.9203 84.4793 29.7096 84.6924 29.5037 84.9623Z" fill="#CF2B2B"/>
<path d="M1.31419 79.8486C-0.058825 80.1398 0.909296 82.1922 1.842 82.4503C1.36618 81.7093 1.50831 80.6724 1.31419 79.8486ZM0.880875 82.8835C1.07262 84.3275 2.2634 84.2304 1.75444 83.2267C1.56506 82.8598 1.27147 82.7201 0.880875 82.8835ZM11.9858 85.4827C10.8472 85.6248 9.34867 86.5598 10.1677 88.0015C8.65033 87.9423 9.33919 88.0583 8.34967 89.1307C8.52248 89.4953 8.77576 89.8385 9.0409 90.0018C9.84577 90.48 11.3987 89.0218 11.9077 89.7438C12.232 90.2054 11.7728 90.8943 11.3822 91.3891C11.8296 91.6826 12.213 92.2365 12.5989 92.6934C13.2096 92.3478 13.8038 91.7797 14.3269 91.3062C14.0949 90.8398 13.9292 90.1179 14.0737 89.6562C14.2252 89.1402 14.7507 89.1307 15.0206 88.7046C15.1484 88.5081 15.1531 88.2737 15.1957 88.011C14.7625 88.0086 14.3483 87.8003 13.8915 87.1422C13.2239 86.1763 13.3825 85.5703 12.6723 85.4898C12.4995 85.4685 12.3078 85.4425 11.9858 85.4827ZM5.74097 86.2687C5.55869 86.2876 5.41186 86.3278 5.21301 86.3539C5.35505 86.8297 5.67221 87.0688 6.1646 86.877C6.0273 86.664 5.88774 86.4675 5.74097 86.2687Z" fill="#CF2B2B"/>
<path d="M5.31254 89.8223C5.13736 90.2365 5.09244 90.6721 5.13742 91.1243C5.5872 90.9491 5.87596 90.5869 5.74339 90.0851C5.60136 90.0022 5.44747 89.9028 5.31254 89.8223ZM6.69744 89.8223C6.44177 89.8223 6.22403 89.8791 6.09146 89.9951C5.73874 90.2886 6.70208 91.2118 6.86779 91.3776C7.41463 91.9433 8.25034 91.9646 8.94868 92.2511C9.49079 92.4618 9.52162 93.3874 9.98798 93.7259C9.59738 93.5223 9.04106 93.7093 8.68124 93.4631C8.2717 93.1838 8.23855 92.5872 7.90477 92.2464C6.70456 93.1767 9.32752 94.0573 9.37723 95.0208C9.55951 94.6728 11.0792 93.4347 11.3727 94.2372C11.5266 94.6728 11.2662 95.4587 12.064 95.2765C12.9517 95.08 12.1872 92.7198 10.7644 93.6265C11.1006 92.9968 10.7502 92.5186 10.3288 92.0617C9.77251 91.9315 8.64095 91.6024 8.07281 91.1077C7.78163 90.8615 7.51409 90.4165 7.29157 89.9856C7.159 89.9075 6.9247 89.8223 6.69744 89.8223ZM3.56786 91.5575C3.5868 92.1375 3.30747 93.0134 4.17153 93.1199C3.97504 92.7293 3.83302 92.3481 3.82591 91.9031C3.75016 91.7989 3.66018 91.6593 3.56786 91.5575ZM1.75224 93.9839C1.80906 94.1922 1.85877 94.3864 1.92505 94.59C2.0008 94.8717 2.06226 95.1912 2.18773 95.4587C2.58779 95.1865 3.02345 94.9545 3.48507 94.8551C3.08974 94.107 2.3843 94.3295 1.75224 93.9839ZM11.3752 101.696C11.2781 101.905 11.2189 102.099 11.1195 102.303C11.2141 102.331 11.3089 102.388 11.3752 102.39C11.3563 102.137 11.3705 101.921 11.3752 101.696Z" fill="#CF2B2B"/>
<path d="M17.9702 93.2881C17.537 94.1261 17.1393 95.1416 17.279 95.6317C17.5394 96.5596 18.5076 96.1809 18.7467 96.6662C19.0024 97.1609 19.1231 97.4923 18.7467 98.1386C18.5668 98.4677 17.8708 98.8843 17.279 99.1778C17.5796 99.5803 17.7762 100.073 18.2307 100.397C19.0261 100.96 20.0487 100.7 21.095 101.697C21.559 102.137 22.0113 102.748 22.3971 103.432C22.6197 101.616 21.4123 99.398 21.5283 97.6249C21.552 97.2462 21.2584 95.6743 21.4454 95.3689C21.836 94.7155 22.3829 94.0622 22.2219 93.4585C21.8834 93.5982 21.4786 93.7118 21.1827 93.8018C20.4323 94.0409 19.7174 93.9107 19.0143 93.7236C18.6616 93.6242 18.3111 93.4869 17.9702 93.2881Z" fill="#CF2B2B"/>
<path d="M17.0116 87.3933C16.3866 87.5661 15.7948 87.9993 15.1935 87.997C15.1438 88.2597 15.1367 88.4965 15.0207 88.6906C14.7461 89.1167 14.2253 89.1332 14.0714 89.6422C13.9175 90.1559 14.1424 91.0223 14.4193 91.4603C14.6845 91.9006 14.8975 92.2509 15.3686 92.2438C15.8421 92.2367 16.164 91.0578 16.6683 91.2046C17.1749 91.3419 16.7156 92.1184 17.1062 92.5871C17.5015 93.0605 18.316 93.5174 19.0191 93.7139C19.7174 93.9104 20.4346 94.0359 21.1851 93.7992C21.4786 93.7045 21.8881 93.5956 22.2219 93.4512C22.158 93.186 21.9899 92.8925 21.5307 92.6771C21.6727 92.464 21.8147 92.1846 21.9686 91.9834C21.0525 92.0284 21.043 91.4484 20.4938 90.9442C19.8192 90.3311 18.7373 90.7477 18.0698 90.0778C19.0404 89.6091 19.251 87.9756 18.1573 87.4691C17.762 87.3033 17.369 87.2891 17.0116 87.3933Z" fill="#CF2B2B"/>
<path d="M7.73661 88.5227C7.44543 88.6813 7.25843 89.4743 7.39099 89.9975C7.36732 89.9809 7.32476 90.0093 7.29636 89.9975C7.52125 90.4259 7.79347 90.8757 8.07991 91.1243C8.64568 91.6119 9.77961 91.9481 10.3359 92.0759C10.1844 91.9102 10.0589 91.6853 9.90029 91.5504C10.272 91.0177 10.8283 91.0272 11.3704 91.3752C11.7634 90.8828 12.2178 90.1892 11.8983 89.7252C11.394 89.0032 9.84359 90.4638 9.03872 89.9833C8.77122 89.8223 8.50838 89.4814 8.34504 89.1097C8.09884 88.57 7.90705 88.4232 7.73661 88.5227Z" fill="#CF2B2B"/>
<path d="M16.6707 91.2091C16.1689 91.0647 15.8398 92.2388 15.3711 92.2483C14.8953 92.253 14.6845 91.9027 14.4193 91.4624C14.3909 91.4127 14.3602 91.344 14.3295 91.2872C13.7992 91.7654 13.2051 92.3312 12.6014 92.672C12.9541 93.0839 13.302 93.4698 13.4701 93.7089C14.3318 94.9281 15.1083 96.6065 14.249 98.1286C14.9899 98.1097 15.7853 98.2493 16.3274 98.4742C16.7393 98.6494 17.0519 98.8743 17.2815 99.1678C17.8804 98.8743 18.5692 98.4529 18.7515 98.1286C19.1255 97.4776 19.0048 97.1462 18.7515 96.6562C18.5006 96.1709 17.5348 96.552 17.2815 95.6217C17.1418 95.1364 17.5395 94.1185 17.9727 93.2781C17.6318 93.0792 17.3051 92.8236 17.1039 92.5845C16.7062 92.1229 17.1726 91.3511 16.6707 91.2091ZM13.1151 95.9768C12.8902 96.0573 12.6606 96.2017 12.5091 96.41C12.663 97.1912 13.7778 96.5449 13.8086 95.9768C13.5553 95.8963 13.3376 95.9034 13.1151 95.9768ZM11.2922 96.1519C11.0626 96.1567 10.9632 96.249 11.1194 96.5851C11.1975 97.2267 11.5267 97.8043 11.7208 98.4056C13.5909 97.3829 11.9835 96.1472 11.2922 96.1519Z" fill="#CF2B2B"/>
<path d="M20.314 83.1438C19.7648 82.6182 19.4901 83.255 18.8439 82.8881C18.432 82.6466 17.9657 81.9909 17.5396 81.4157C17.5538 81.7447 17.7076 82.1401 17.4543 82.2868C16.7726 82.668 15.7972 81.8442 15.2859 81.2476C15.1131 81.0369 15.1297 80.6629 15.0255 80.4688C14.8575 80.6818 14.3817 81.1127 14.3343 81.2476C13.9058 82.4786 11.3515 81.4204 11.3846 82.6324C11.4107 83.5415 12.1375 84.5144 12.6015 85.3193L12.689 85.4069C12.8642 84.3771 14.4194 85.5749 15.3805 85.2341C17.4022 84.5239 18.7515 85.0897 20.5838 86.1857C20.0654 85.7786 19.9234 84.112 20.314 83.1438Z" fill="#CF2B2B"/>
<path d="M21.1802 77.2449C20.5979 77.6947 21.237 78.644 20.7423 79.0654C20.2522 79.482 19.2604 78.9659 18.7443 79.1506C18.2259 79.34 17.9986 79.4204 17.705 79.9341C17.5251 80.2584 17.5251 80.8408 17.5322 81.4042C17.9559 81.9818 18.4105 82.6375 18.8319 82.8766C19.4805 83.2459 19.7599 82.6115 20.3091 83.1323C20.4275 82.8411 20.3635 82.2872 20.6547 82.2683C21.3412 82.2162 21.6869 83.1276 22.3047 83.3075C22.7474 83.4353 24.7691 82.3985 25.0792 82.0836C25.091 82.4056 25.2448 82.6257 25.5099 82.692C25.6851 82.4719 25.7231 82.1901 25.5976 81.9155C26.1113 82.2754 26.7007 82.1238 26.6344 81.3876C26.7291 81.4444 26.8096 81.3663 26.8948 81.3876C26.3243 80.5662 25.8177 79.4962 25.3325 79.1293C24.7004 78.6534 24.5204 79.0819 24.2955 78.7837C24.0658 78.4901 24.4375 78.1161 24.2079 77.6568C24.1464 77.5219 23.9522 77.4083 23.7771 77.3136C23.003 77.6237 21.7554 76.7951 21.1802 77.2449ZM24.4684 82.8837C24.2956 82.9311 24.376 83.1086 24.7311 83.4874V82.8837C24.6175 82.8601 24.5323 82.8672 24.4684 82.8837ZM21.4406 83.0518C20.7209 83.3122 20.7706 83.5016 21.6134 83.6602C21.5495 83.4543 21.4974 83.2601 21.4406 83.0518Z" fill="#CF2B2B"/>
<path d="M23.7797 77.335C23.9549 77.4297 24.1513 77.5457 24.2129 77.6806C24.4425 78.1351 24.0708 78.5068 24.3005 78.8027C24.5277 79.0986 24.7076 78.6701 25.3373 79.1483C25.8202 79.5176 26.3339 80.5852 26.9021 81.4067C27.4821 81.5369 27.991 81.08 28.6349 81.3191C29.5794 81.6623 30.3276 80.5473 29.6742 80.5402C30.427 80.2869 31.1183 79.9366 31.8427 79.6691L30.6235 78.6299L30.1878 76.9018L30.7963 76.0282C30.1784 75.9691 29.5345 75.9951 29.1462 75.8554C28.5047 75.614 28.4077 75.0861 28.0218 75.0742C27.6289 75.0577 27.6644 75.4601 27.2406 75.5974C26.8216 75.7347 26.1304 75.4246 25.5078 75.6826C24.8805 75.9501 24.5562 77.0414 23.7797 77.335Z" fill="#CF2B2B"/>
<path d="M23.7795 77.3349C24.5559 77.0413 24.8896 75.9548 25.5098 75.6825C26.1419 75.4174 26.8214 75.737 27.238 75.5949C27.6618 75.46 27.631 75.067 28.0168 75.0765C28.4098 75.0883 28.5069 75.6162 29.1437 75.8529C29.5248 75.9902 30.1711 75.9571 30.796 76.0257L31.0516 75.5925L30.9641 74.3781L29.5816 72.9033C29.3757 72.9554 29.1698 72.9743 28.9756 73.0761C28.2536 73.4454 27.5245 73.6585 26.7196 73.765C25.9574 73.8692 24.4375 73.3744 23.8575 73.765C23.5237 73.9923 23.3154 73.7082 23.0787 73.6822C23.1379 73.836 23.0575 74.0846 23.1617 74.203C23.4505 74.5131 23.822 74.7332 23.7699 75.0789C23.661 75.7535 22.6597 75.8529 22.7331 76.459C22.7876 76.904 23.351 77.0887 23.7795 77.3349Z" fill="#CF2B2B"/>
<path d="M45.1135 53.1367C44.4507 53.3687 43.6742 54.8056 44.5832 55.2152C45.4023 55.5845 45.2366 55.7762 45.1135 56.69C46.1267 56.6592 46.5742 55.7194 46.0652 54.8719C45.8901 54.6991 45.6959 54.5807 45.4616 54.5239C45.1396 54.3511 45.2413 53.4563 45.1135 53.1367Z" fill="#CF2B2B"/>
<path d="M21.0076 85.9237C21.1259 85.8977 21.2395 85.8503 21.3532 85.8314L21.4384 85.6562C21.2632 85.7178 21.1306 85.7722 21.0028 85.8314C20.9933 85.8622 21.017 85.8811 21.0076 85.9237Z" fill="#CF2B2B"/>
<path d="M21.0073 85.9229C21.0215 85.8874 20.9931 85.8637 21.0073 85.8306C20.9576 85.859 20.8605 85.9016 20.8345 85.9229C20.8913 85.9182 20.9481 85.9276 21.0073 85.9229Z" fill="#CF2B2B"/>
</svg>
