<svg width="72" height="45" viewBox="0 0 72 45" fill="none" xmlns="http://www.w3.org/2000/svg">
<rect width="71.8507" height="44.1493" rx="22.0746" fill="#DF3737"/>
<rect x="0.216418" y="0.216418" width="71.4179" height="43.7164" rx="21.8582" stroke="black" stroke-opacity="0.1" stroke-width="0.432836"/>
<path fill-rule="evenodd" clip-rule="evenodd" d="M29.1238 31.8955C29.5222 31.8955 29.622 31.3545 29.2755 31.1577C25.8794 29.2288 23.6329 25.8813 23.6329 22.0746C23.6329 18.268 25.8794 14.9204 29.2755 12.9916C29.622 12.7948 29.5222 12.2537 29.1238 12.2537C22.5211 12.2537 17.4479 16.7932 17.4479 22.0746C17.4479 27.356 22.5211 31.8955 29.1238 31.8955ZM24.6329 22.0746C24.6329 26.3455 27.8501 30.1074 32.4497 31.4098C32.5532 31.4391 32.6631 31.4396 32.7669 31.411C33.2027 31.291 33.6264 31.15 34.0365 30.9897C34.4783 30.817 34.5235 30.2262 34.1548 29.9277C31.7189 27.9557 30.1997 25.1666 30.1997 22.0746C30.1997 18.9826 31.7189 16.1935 34.1548 14.2216C34.5235 13.9231 34.4784 13.3323 34.0365 13.1595C33.6265 12.9992 33.2028 12.8583 32.7669 12.7382C32.6632 12.7097 32.5532 12.7102 32.4497 12.7395C27.8501 14.0418 24.6329 17.8038 24.6329 22.0746ZM36.321 14.3412C36.1262 14.2122 35.8732 14.2122 35.6784 14.3412C32.9274 16.1632 31.1997 18.9926 31.1997 22.0746C31.1997 25.1566 32.9273 27.986 35.6784 29.808C35.8732 29.9371 36.1261 29.9371 36.321 29.808C39.072 27.986 40.7997 25.1566 40.7997 22.0746C40.7997 18.9926 39.072 16.1633 36.321 14.3412ZM37.9629 30.9897C37.521 30.817 37.4759 30.2262 37.8446 29.9277C40.2805 27.9557 41.7997 25.1666 41.7997 22.0746C41.7997 18.9826 40.2805 16.1935 37.8446 14.2216C37.4759 13.9231 37.521 13.3323 37.9629 13.1595C38.3729 12.9992 38.7966 12.8583 39.2325 12.7382C39.3362 12.7097 39.4462 12.7102 39.5497 12.7395C44.1493 14.0418 47.3664 17.8038 47.3664 22.0746C47.3664 26.3455 44.1493 30.1074 39.5497 31.4098C39.4462 31.4391 39.3362 31.4396 39.2325 31.411C38.7966 31.291 38.3729 31.15 37.9629 30.9897ZM36.1616 31.2547C36.0595 31.2001 35.9399 31.2001 35.8378 31.2547C35.529 31.4196 35.6118 31.8945 35.9618 31.8955C35.9745 31.8955 35.9871 31.8955 35.9997 31.8955C36.0123 31.8955 36.0249 31.8955 36.0375 31.8955C36.3876 31.8945 36.4704 31.4196 36.1616 31.2547ZM39.5433 32.5177C39.4459 32.4951 39.3446 32.4954 39.2473 32.5186C38.2124 32.7644 37.1235 32.8955 35.9997 32.8955C34.8758 32.8955 33.787 32.7643 32.7521 32.5185C32.6548 32.4954 32.5535 32.4951 32.456 32.5177C31.3942 32.7641 30.277 32.8955 29.1238 32.8955C22.1231 32.8955 16.4479 28.0508 16.4479 22.0746C16.4479 16.0984 22.1231 11.2537 29.1238 11.2537C30.277 11.2537 31.3942 11.3852 32.4561 11.6315C32.5535 11.6541 32.6548 11.6538 32.7521 11.6307C33.787 11.3849 34.8758 11.2537 35.9997 11.2537C37.1235 11.2537 38.2124 11.3849 39.2473 11.6307C39.3446 11.6538 39.4459 11.6541 39.5433 11.6315C40.6052 11.3852 41.7224 11.2537 42.8756 11.2537C49.8763 11.2537 55.5515 16.0984 55.5515 22.0746C55.5515 28.0508 49.8763 32.8955 42.8756 32.8955C41.7224 32.8955 40.6052 32.7641 39.5433 32.5177ZM42.7239 31.1577C42.3774 31.3545 42.4771 31.8955 42.8756 31.8955C49.4783 31.8955 54.5515 27.356 54.5515 22.0746C54.5515 16.7932 49.4783 12.2537 42.8756 12.2537C42.4771 12.2537 42.3774 12.7948 42.7239 12.9916C46.12 14.9204 48.3664 18.268 48.3664 22.0746C48.3664 25.8813 46.12 29.2288 42.7239 31.1577ZM36.1616 12.8946C36.4704 12.7296 36.3876 12.2548 36.0375 12.2538C36.0249 12.2537 36.0123 12.2537 35.9997 12.2537C35.9871 12.2537 35.9745 12.2537 35.9619 12.2538C35.6118 12.2548 35.529 12.7296 35.8378 12.8946C35.9399 12.9491 36.0595 12.9491 36.1616 12.8946Z" fill="#0B0B0B"/>
</svg>
