<svg width="20" height="20" viewBox="0 0 20 20" fill="none" xmlns="http://www.w3.org/2000/svg">
<path fill-rule="evenodd" clip-rule="evenodd" d="M11.3137 1.41421C10.5326 0.633165 9.26631 0.633165 8.48526 1.41421L1.41419 8.48528C0.633145 9.26633 0.633145 10.5327 1.41419 11.3137L8.48526 18.3848C9.26631 19.1658 10.5326 19.1658 11.3137 18.3848L18.3848 11.3137C19.1658 10.5327 19.1658 9.26633 18.3848 8.48528L11.3137 1.41421ZM7.69959 12.0992C8.91455 13.3142 10.8844 13.3142 12.0994 12.0992C13.3143 10.8843 13.3143 8.91443 12.0994 7.69946C10.8844 6.4845 8.91455 6.4845 7.69959 7.69946C6.48462 8.91443 6.48462 10.8843 7.69959 12.0992Z" fill="#181010"/>
</svg>
