<svg width="71" height="46" viewBox="0 0 71 46" fill="none" xmlns="http://www.w3.org/2000/svg">
<rect y="0.925354" width="70.1194" height="44.1493" rx="22.0746" fill="#DF3737"/>
<rect x="0.216418" y="1.14177" width="69.6866" height="43.7164" rx="21.8582" stroke="black" stroke-opacity="0.1" stroke-width="0.432836"/>
<path fill-rule="evenodd" clip-rule="evenodd" d="M31.7088 16.468C32.0584 16.1184 31.8108 15.5207 31.3165 15.5207L19.4527 15.5207C19.1765 15.5207 18.9527 15.2968 18.9527 15.0207C18.9527 14.7445 19.1765 14.5207 19.4527 14.5207L33.8633 14.5207C34.1395 14.5207 34.3633 14.7445 34.3633 15.0207L34.3633 29.4314C34.3633 29.7075 34.1395 29.9314 33.8633 29.9314C33.5872 29.9314 33.3633 29.7075 33.3633 29.4314L33.3633 17.5674C33.3633 17.073 32.7656 16.8254 32.416 17.175L18.2816 31.3095C18.0863 31.5047 17.7697 31.5047 17.5745 31.3095C17.3792 31.1142 17.3792 30.7976 17.5745 30.6024L31.7088 16.468Z" fill="#0B0B0B"/>
<path fill-rule="evenodd" clip-rule="evenodd" d="M41.7088 16.4679C42.0584 16.1183 41.8108 15.5206 41.3165 15.5206L29.4527 15.5206C29.1765 15.5206 28.9527 15.2968 28.9527 15.0206C28.9527 14.7445 29.1765 14.5206 29.4527 14.5206L43.8633 14.5206C44.1395 14.5206 44.3633 14.7445 44.3633 15.0206L44.3633 29.4313C44.3633 29.7074 44.1395 29.9313 43.8633 29.9313C43.5872 29.9313 43.3633 29.7074 43.3633 29.4313L43.3633 17.5673C43.3633 17.073 42.7656 16.8254 42.416 17.175L28.2816 31.3094C28.0863 31.5047 27.7697 31.5047 27.5745 31.3094C27.3792 31.1141 27.3792 30.7976 27.5745 30.6023L41.7088 16.4679Z" fill="#0B0B0B"/>
<path fill-rule="evenodd" clip-rule="evenodd" d="M50.7088 16.4679C51.0584 16.1183 50.8108 15.5206 50.3165 15.5206L38.4527 15.5206C38.1765 15.5206 37.9527 15.2968 37.9527 15.0206C37.9527 14.7445 38.1765 14.5206 38.4527 14.5206L52.8633 14.5206C53.1395 14.5206 53.3633 14.7445 53.3633 15.0206L53.3633 29.4313C53.3633 29.7074 53.1395 29.9313 52.8633 29.9313C52.5872 29.9313 52.3633 29.7074 52.3633 29.4313L52.3633 17.5673C52.3633 17.073 51.7656 16.8254 51.416 17.175L37.2816 31.3094C37.0863 31.5047 36.7697 31.5047 36.5745 31.3094C36.3792 31.1141 36.3792 30.7976 36.5745 30.6023L50.7088 16.4679Z" fill="#0B0B0B"/>
</svg>
