<svg width="73" height="45" viewBox="0 0 73 45" fill="none" xmlns="http://www.w3.org/2000/svg">
<rect width="72.0735" height="44.1493" rx="22.0746" fill="#DF3737"/>
<rect x="0.216418" y="0.216418" width="71.6406" height="43.7164" rx="21.8582" stroke="black" stroke-opacity="0.1" stroke-width="0.432836"/>
<path fill-rule="evenodd" clip-rule="evenodd" d="M20.741 22.4157C21.3125 22.5904 21.6341 23.1953 21.4594 23.7668L19.4583 30.3122C19.3775 30.5763 19.5262 30.8558 19.7902 30.9365C20.0543 31.0173 20.3338 30.8687 20.4146 30.6046L22.4157 24.0591C22.5904 23.4877 23.1953 23.1661 23.7668 23.3408L30.3123 25.3419C30.5763 25.4227 30.8559 25.274 30.9366 25.0099C31.0173 24.7459 30.8687 24.4663 30.6046 24.3856L24.0592 22.3845C23.4877 22.2097 23.1661 21.6048 23.3408 21.0334L25.3419 14.4879C25.4227 14.2238 25.274 13.9443 25.01 13.8636C24.7459 13.7828 24.4664 13.9315 24.3856 14.1955L22.3845 20.741C22.2098 21.3125 21.6049 21.6341 21.0334 21.4594L14.488 19.4583C14.2239 19.3775 13.9444 19.5261 13.8636 19.7902C13.7829 20.0543 13.9315 20.3338 14.1956 20.4146L20.741 22.4157Z" fill="#0B0B0B"/>
<path fill-rule="evenodd" clip-rule="evenodd" d="M34.741 22.4157C35.3125 22.5904 35.6341 23.1953 35.4594 23.7668L33.4583 30.3122C33.3775 30.5763 33.5262 30.8558 33.7902 30.9365C34.0543 31.0173 34.3338 30.8687 34.4146 30.6046L36.4157 24.0591C36.5904 23.4877 37.1953 23.1661 37.7668 23.3408L44.3123 25.3419C44.5763 25.4227 44.8559 25.274 44.9366 25.0099C45.0173 24.7459 44.8687 24.4663 44.6046 24.3856L38.0592 22.3845C37.4877 22.2097 37.1661 21.6048 37.3408 21.0334L39.3419 14.4879C39.4227 14.2238 39.274 13.9443 39.01 13.8636C38.7459 13.7828 38.4664 13.9315 38.3856 14.1955L36.3845 20.741C36.2098 21.3125 35.6049 21.6341 35.0334 21.4594L28.488 19.4583C28.2239 19.3775 27.9444 19.5261 27.8636 19.7902C27.7829 20.0543 27.9315 20.3338 28.1956 20.4146L34.741 22.4157Z" fill="#0B0B0B"/>
<path fill-rule="evenodd" clip-rule="evenodd" d="M47.741 22.4157C48.3125 22.5904 48.6341 23.1953 48.4594 23.7668L46.4583 30.3122C46.3775 30.5763 46.5262 30.8558 46.7902 30.9365C47.0543 31.0173 47.3338 30.8687 47.4146 30.6046L49.4157 24.0591C49.5904 23.4877 50.1953 23.1661 50.7668 23.3408L57.3123 25.3419C57.5763 25.4227 57.8559 25.274 57.9366 25.0099C58.0173 24.7459 57.8687 24.4663 57.6046 24.3856L51.0592 22.3845C50.4877 22.2097 50.1661 21.6048 50.3408 21.0334L52.3419 14.4879C52.4227 14.2238 52.274 13.9443 52.01 13.8636C51.7459 13.7828 51.4664 13.9315 51.3856 14.1955L49.3845 20.741C49.2098 21.3125 48.6049 21.6341 48.0334 21.4594L41.488 19.4583C41.2239 19.3775 40.9444 19.5261 40.8636 19.7902C40.7829 20.0543 40.9315 20.3338 41.1956 20.4146L47.741 22.4157Z" fill="#0B0B0B"/>
</svg>
