<svg width="149" height="99" viewBox="0 0 149 99" fill="none" xmlns="http://www.w3.org/2000/svg">
<path d="M99.7101 49.4973C90.6614 55.1424 87.7343 56.5962 78.5738 62.1392C78.3257 62.285 78.041 62.357 77.7533 62.3467C77.4657 62.3363 77.1869 62.2441 76.9498 62.0808C69.0389 57.4957 59.4749 52.0062 51.6661 47.494C46.3176 44.601 50.8881 36.4761 56.0956 39.5053C62.8055 43.3611 71.8396 48.6075 78.462 52.4244C79.5706 53.2607 81.4814 51.3693 82.4199 50.9657C91.4734 45.4811 93.0148 44.7663 102.102 39.2622C103.104 38.6593 103.187 36.7533 102.17 36.165L79.8964 23.2994C78.7084 22.6054 77.3623 22.2276 75.9867 22.2021C74.6111 22.1765 73.2519 22.5041 72.0389 23.1535C71.6946 23.3161 71.3686 23.515 71.0665 23.7467L50.8346 35.9024C44.5137 38.3335 43.8816 47.1828 49.7503 50.5427C57.4181 54.9576 67.4441 60.7534 75.18 65.2267C80.3583 68.1052 75.7002 76.1862 70.6095 73.1327C65.0665 69.9236 52.6191 62.8053 47.5721 59.6837C45.8654 60.3498 45.3257 62.6594 47.0421 63.6611L68.8201 76.2397C70.2005 77.0427 71.7873 77.4203 73.3815 77.3252C74.9756 77.2301 76.5062 76.6664 77.7813 75.7049L98.6307 63.3207C103.94 60.7534 104.543 52.8766 99.7101 49.4973Z" fill="#ED5656"/>
</svg>
