<svg width="41" height="41" viewBox="0 0 41 41" fill="none" xmlns="http://www.w3.org/2000/svg">
<path d="M37.9868 0V13.1688H35.8308L35.4995 12.8396V10.6775L27.7549 2.93086H25.5929L25.2476 2.58558V0H22.7443H19.8134V2.93086V16.0996H22.7443V2.93086H24.9023L25.2476 3.27613V5.44015L32.9782 13.1688H35.1402L35.4995 13.5301V16.0996H37.9868H40.9116H40.9176V0H37.9868Z" fill="#FFE3CE"/>
<path d="M7.36122 18.2978C6.40768 18.2978 5.45415 18.1452 4.50062 17.8401V12.9881C5.36783 13.2772 6.0082 13.4217 6.42374 13.4217C6.83928 13.4217 7.19861 13.3635 7.55393 13.2451C7.90925 13.1286 8.20434 12.9941 8.43921 12.8416C8.67408 12.689 8.98322 12.5284 9.36464 12.3618C9.74806 12.1932 10.1495 12.0747 10.5711 12.0045C10.8762 11.9422 11.2657 11.9101 11.7434 11.9101V11.6752H4.95832L1.16025 0H7.09222L8.41713 4.82989C8.97118 6.86141 9.25021 8.59584 9.25021 10.0352H9.44895C9.44895 8.53561 9.71795 6.79918 10.2579 4.82989L11.6029 0H17.5349L13.6204 12.7532C13.3936 13.4799 13.1406 14.1323 12.8636 14.7105C12.5866 15.2886 12.3136 15.7684 12.0426 16.1518C11.7736 16.5352 11.4684 16.8645 11.1292 17.1415C10.7899 17.4185 10.4768 17.6293 10.1917 17.7738C9.90664 17.9184 9.58144 18.0308 9.21809 18.1131C8.85475 18.1954 8.54159 18.2456 8.28062 18.2657C8.01965 18.2857 7.71252 18.2958 7.36122 18.2958V18.2978Z" fill="#FFE3CE"/>
<path d="M7.74268 27.6359C7.94543 27.7925 8.12409 27.919 8.29272 28.0595C9.36067 28.9568 9.90067 30.1492 10.0934 31.4882C10.4507 33.9835 9.87859 36.2779 8.41517 38.3316C7.81896 39.1687 7.07621 39.8693 6.03636 40.1081C4.94632 40.3591 3.89041 40.2587 3.02721 39.4597C2.3748 38.8555 2.11182 38.0385 1.99941 37.1793C1.76052 35.3626 2.12587 33.6161 2.68595 31.9017C2.90677 31.2292 3.19182 30.5768 3.44677 29.9164C3.46283 29.8742 3.47688 29.8301 3.509 29.7357C2.78431 29.9445 2.19413 30.3018 1.61398 30.7535C1.07398 30.0569 0.544015 29.3744 0 28.6738C0.61829 28.1679 1.27673 27.7805 1.98535 27.4733C2.92283 27.0678 3.89643 26.837 4.92424 26.837C5.02662 26.837 5.16112 26.7145 5.22535 26.6142C6.48201 24.685 7.92134 22.9084 9.67584 21.4049C10.9887 20.2807 12.416 19.3472 14.1384 18.9839C16.3305 18.5202 18.2918 18.9417 19.8034 20.6982C21.3531 22.4989 21.6622 24.5826 20.7509 26.7306C19.3477 30.0388 16.8062 32.0242 13.2451 32.6144C12.5866 32.7228 11.892 32.6043 11.2135 32.5843C11.1292 32.5823 11.0449 32.5441 10.9305 32.516C11.1232 31.6729 11.3139 30.8478 11.5046 30.0168C11.5508 30.0087 11.5889 29.9907 11.6251 29.9967C13.1146 30.2316 14.4013 29.6956 15.6138 28.9227C16.6858 28.2382 17.5731 27.3629 18.1332 26.2046C18.8358 24.7533 18.5306 23.1674 17.3663 22.1918C16.3204 21.3145 15.1481 21.3266 13.9477 21.7983C12.5806 22.3363 11.4705 23.2517 10.4487 24.2835C9.43896 25.3033 8.55368 26.4214 7.74268 27.6379V27.6359ZM6.38364 29.9585C6.32342 30.0669 6.27725 30.1412 6.23911 30.2215C5.54454 31.707 5.1029 33.2728 4.83591 34.8848C4.71747 35.6035 4.63115 36.3342 4.82186 37.0588C4.97242 37.6249 5.43814 37.8177 5.92394 37.4824C6.1568 37.3218 6.37762 37.109 6.5342 36.8721C7.53391 35.3485 7.84907 33.6703 7.54996 31.8857C7.42149 31.1208 7.09026 30.4403 6.38164 29.9585H6.38364Z" fill="#FFE3CE"/>
<path d="M39.5345 25.7371C39.5204 25.6889 39.5044 25.6407 39.4964 25.5905C39.4662 25.4159 39.4462 25.2392 39.408 25.0666C39.3498 24.7956 39.2816 24.5346 39.2033 24.2797L39.1993 24.2697C38.7938 22.9427 38.1253 21.8427 37.1737 20.9895C36.4671 20.3552 35.6039 19.8593 34.5761 19.514C32.6149 18.8536 30.6195 18.8717 28.6622 19.5522C28.4474 19.6265 28.2427 19.7068 28.0419 19.7971C26.1911 20.6141 24.9244 22.0374 24.2378 24.0127C23.7159 25.5143 23.6276 27.062 23.9407 28.6137C24.4647 31.2094 25.8739 33.0582 28.2306 34.0358C28.4615 34.1322 28.7024 34.2205 28.9513 34.2988C30.7018 34.8529 32.4844 34.8428 34.2509 34.349C35.2667 34.0659 36.168 33.6042 36.9409 32.9578C37.3805 32.5905 37.778 32.1649 38.1313 31.6771C38.7817 30.7798 39.1832 29.7861 39.402 28.7242C39.4502 28.4853 39.4903 28.2424 39.5204 27.9975C39.5265 27.9533 39.5385 27.9111 39.5485 27.867C39.5887 27.5378 39.6088 27.2025 39.6088 26.8633C39.6088 26.4819 39.5827 26.1065 39.5345 25.7391V25.7371ZM32.7353 27.9232H30.6335V25.8214H32.7353V27.9232Z" fill="#FFE3CE"/>
</svg>
