<svg width="149" height="99" viewBox="0 0 149 99" fill="none" xmlns="http://www.w3.org/2000/svg">
<path d="M61.9384 42.8848C61.9384 39.3955 63.3245 36.0492 65.7917 33.5819C68.259 31.1146 71.6054 29.7285 75.0946 29.7285C78.5839 29.7285 81.9302 31.1146 84.3975 33.5819C86.8648 36.0492 88.2509 39.3955 88.2509 42.8848H61.9384Z" fill="#EBEBEB"/>
<path d="M114.561 56.041C114.561 59.5303 113.175 62.8766 110.708 65.3439C108.24 67.8112 104.894 69.1973 101.405 69.1973C97.9156 69.1973 94.5693 67.8112 92.102 65.3439C89.6347 62.8766 88.2486 59.5303 88.2486 56.041H114.561Z" fill="#EBEBEB"/>
<path d="M88.2494 56.0384C88.248 59.0806 87.1919 62.0282 85.261 64.3791C83.33 66.7299 80.6437 68.3386 77.6597 68.9309C74.6757 69.5232 71.5786 69.0627 68.8961 67.6276C66.2137 66.1925 64.1117 63.8718 62.9485 61.0607C61.7852 58.2497 61.6326 55.1223 62.5166 52.2113C63.4006 49.3004 65.2665 46.786 67.7965 45.0965C70.3265 43.407 73.364 42.647 76.3915 42.946C79.419 43.2449 82.2492 44.5843 84.3999 46.736C86.8663 49.2035 88.2516 52.5496 88.2511 56.0384" fill="#EBEBEB"/>
<path d="M114.563 42.8819C114.562 45.9243 113.507 48.8724 111.576 51.2239C109.646 53.5753 106.96 55.1847 103.975 55.7777C100.991 56.3708 97.8941 55.9109 95.2111 54.4764C92.5281 53.0419 90.4255 50.7215 89.2615 47.9106C88.0974 45.0997 87.944 41.9721 88.8274 39.0608C89.7107 36.1494 91.5762 33.6344 94.1059 31.9442C96.6356 30.254 99.6731 29.4932 102.701 29.7914C105.729 30.0896 108.559 31.4283 110.711 33.5796C113.177 36.0469 114.563 39.393 114.563 42.8819Z" fill="#EBEBEB"/>
<path d="M35.6261 42.8843C35.6261 39.395 37.0122 36.0487 39.4795 33.5814C41.9468 31.1141 45.2931 29.728 48.7824 29.728C52.2716 29.728 55.618 31.1141 58.0853 33.5814C60.5525 36.0487 61.9386 39.395 61.9386 42.8843H35.6261Z" fill="#EBEBEB"/>
<path d="M61.9364 56.0381C61.9356 59.0803 60.8801 62.0281 58.9497 64.3794C57.0193 66.7306 54.3333 68.3398 51.3495 68.9328C48.3657 69.5257 45.2685 69.0659 42.5858 67.6315C39.903 66.197 37.8006 63.8768 36.6366 61.0661C35.4727 58.2554 35.3193 55.1281 36.2026 52.2169C37.0858 49.3058 38.9511 46.791 41.4806 45.1009C44.0101 43.4107 47.0473 42.65 50.0749 42.9481C53.1024 43.2462 55.9329 44.5848 58.0842 46.7358C60.5509 49.2031 61.9365 52.5492 61.9364 56.0381Z" fill="#EBEBEB"/>
</svg>
