<svg width="149" height="99" viewBox="0 0 149 99" fill="none" xmlns="http://www.w3.org/2000/svg">
<path d="M83.8554 42.7667L84.4373 40.5744C84.49 40.3746 84.4962 40.1653 84.4554 39.9628C84.4146 39.7602 84.3279 39.5697 84.2019 39.4059C84.0759 39.2421 83.914 39.1094 83.7287 39.0179C83.5434 38.9265 83.3396 38.8788 83.1329 38.8784H50.5704C50.5224 38.8787 50.4751 38.8888 50.4312 38.9081C50.3873 38.9274 50.3479 38.9555 50.3153 38.9906C50.2828 39.0258 50.2577 39.0672 50.2418 39.1125C50.2259 39.1577 50.2195 39.2057 50.2229 39.2535L50.438 42.2869C51.0695 51.1749 54.4807 58.2428 61.2536 64.0725C61.2713 64.0877 61.2926 64.0983 61.3155 64.1032C61.3384 64.1081 61.3621 64.1072 61.3846 64.1007C61.407 64.0941 61.4275 64.082 61.4441 64.0655C61.4607 64.0491 61.4729 64.0287 61.4797 64.0063L65.528 49.9256C65.6854 49.3773 66.017 48.895 66.4727 48.5518C66.9284 48.2085 67.4835 48.0229 68.054 48.0229H77.0495C78.6052 48.0214 80.1165 47.5049 81.3478 46.5541C82.579 45.6032 83.4608 44.2715 83.8554 42.7667Z" fill="#ED3236"/>
<path d="M99.1986 38.873C99.3314 34.7722 99.1914 30.6671 98.7794 26.5848C98.7485 26.3024 98.6131 26.0417 98.3999 25.8539C98.1866 25.6661 97.9108 25.5649 97.6267 25.57H51.5074C51.2236 25.5649 50.9482 25.6663 50.7354 25.8541C50.5226 26.0419 50.3878 26.3026 50.3575 26.5848C50.2637 27.6052 50.1341 29.3287 50.0569 31.4852C50.055 31.532 50.0627 31.5787 50.0793 31.6224C50.0959 31.6662 50.1212 31.7061 50.1537 31.7399C50.1861 31.7736 50.2251 31.8004 50.2681 31.8188C50.3112 31.8371 50.3576 31.8465 50.4044 31.8465H85.7164C86.6955 31.8463 87.6616 32.0711 88.5401 32.5034C89.4187 32.9358 90.1861 33.5642 90.7833 34.3402C91.3805 35.1162 91.7914 36.019 91.9844 36.9789C92.1773 37.9389 92.1472 38.9303 91.8963 39.8768L90.6526 44.5648C89.8543 47.5637 88.088 50.2151 85.6281 52.107C83.1682 53.9989 80.1523 55.0256 77.049 55.0274H71.666C71.5818 55.0266 71.4995 55.053 71.4314 55.1027C71.3634 55.1524 71.3131 55.2227 71.2882 55.3032L67.4606 68.62C67.4516 68.6482 67.4521 68.6786 67.462 68.7066C67.472 68.7345 67.4909 68.7583 67.5157 68.7744C69.7223 70.2617 72.0254 71.6003 74.4099 72.7813C74.4582 72.8058 74.5116 72.8186 74.5657 72.8186C74.6198 72.8186 74.6732 72.8058 74.7215 72.7813C80.6836 69.9189 86.8939 65.7024 91.2675 60.7248C96.645 54.6524 98.8594 46.8565 99.1986 38.873Z" fill="#ED3236"/>
</svg>
