<svg width="149" height="99" viewBox="0 0 149 99" fill="none" xmlns="http://www.w3.org/2000/svg">
<g clip-path="url(#clip0_559_335)">
<path d="M29.8063 48.7319C24.9585 51.7562 23.3903 52.5351 18.4827 55.5047C18.3497 55.5828 18.1972 55.6214 18.0431 55.6158C17.889 55.6103 17.7396 55.5609 17.6126 55.4734C13.3744 53.017 8.25052 50.076 4.06702 47.6586C1.20161 46.1087 3.65025 41.7559 6.44012 43.3787C10.0349 45.4445 14.8749 48.2552 18.4228 50.3C19.0167 50.7481 20.0404 49.7348 20.5431 49.5186C25.3935 46.5802 26.2193 46.1973 31.0879 43.2485C31.6245 42.9255 31.6688 41.9044 31.1244 41.5892L19.1912 34.6965C18.5547 34.3247 17.8336 34.1223 17.0966 34.1087C16.3596 34.095 15.6315 34.2705 14.9816 34.6184C14.7972 34.7055 14.6225 34.812 14.4606 34.9362L3.62157 41.4485C0.235175 42.751 -0.103459 47.4919 3.04068 49.2919C7.14864 51.6572 12.52 54.7623 16.6644 57.1588C19.4387 58.7009 16.9432 63.0303 14.2158 61.3944C11.2462 59.6751 4.57759 55.8615 1.87368 54.1892C0.959354 54.546 0.6702 55.7834 1.58974 56.32L13.2572 63.0589C13.9967 63.4892 14.8468 63.6915 15.7009 63.6405C16.5549 63.5895 17.3749 63.2875 18.0581 62.7724L29.228 56.1377C32.0725 54.7623 32.3955 50.5423 29.8063 48.7319Z" fill="#ED5656"/>
<path d="M52.1161 57.2179C47.923 57.2179 45.2712 55.0194 45.5432 51.5743H48.8297C48.7163 53.4328 49.9629 54.5207 52.1841 54.5207C54.1107 54.5207 55.2666 53.6821 55.2666 52.4582C55.2666 48.9224 45.7472 51.9369 45.7472 45.704C45.7472 42.5535 48.195 40.6723 51.9801 40.6723C56.1052 40.6723 58.5984 42.9161 58.1904 46.2933H54.9039C55.1759 44.4347 54.02 43.3694 51.9121 43.3694C50.1669 43.3694 49.0563 44.1401 49.0563 45.3413C49.0563 48.8771 58.5984 45.9533 58.5984 52.0956C58.5984 55.2914 56.0599 57.2179 52.1161 57.2179ZM67.7243 45.5453V48.1745H64.4832V53.1155C64.4832 53.9314 64.7099 54.5661 65.8658 54.5661C66.5004 54.5661 66.931 54.3848 67.4977 54.0674V56.7419C66.9537 57.0366 66.2058 57.2179 65.2765 57.2179C61.6727 57.2179 61.4007 54.5887 61.4007 53.1382V48.1745H59.1569V45.5453H61.4007V42.4628H64.4832V45.5453H67.7243ZM74.0083 57.2179C70.4272 57.2179 68.0473 54.8154 68.0473 51.2116C68.0473 47.6078 70.4272 45.2053 74.0083 45.2053C77.5894 45.2053 79.9692 47.6078 79.9692 51.2116C79.9692 54.8154 77.5894 57.2179 74.0083 57.2179ZM74.0083 54.5661C75.6628 54.5661 76.7734 53.2288 76.7734 51.2116C76.7734 49.1717 75.6628 47.8572 74.0083 47.8572C72.3537 47.8572 71.2431 49.1717 71.2431 51.2116C71.2431 53.2288 72.3537 54.5661 74.0083 54.5661ZM87.2023 45.2053C89.1062 45.2053 90.3301 46.6106 90.3301 48.7184C90.3301 49.625 90.1034 50.5543 89.7181 51.3249H86.5223C86.953 50.5997 87.1796 49.9424 87.1796 49.3304C87.1796 48.4465 86.7037 47.8798 85.9557 47.8798C84.8451 47.8798 84.0292 49.2171 84.0292 51.3023V56.8779H80.9693V45.5453H84.0292V47.4718C84.6184 46.0439 85.729 45.2053 87.2023 45.2053ZM96.0318 53.7728L98.5023 45.5453H101.721L97.5957 57.7165C97.1198 59.0991 96.0318 61.7283 92.7227 61.7283C92.1334 61.7283 91.4534 61.6376 90.8188 61.3883V58.7818C91.4081 58.9858 91.9294 59.0991 92.3827 59.0991C93.6746 59.0991 94.3093 58.2832 94.6719 57.4899L90.0709 45.5453H93.3347L96.0318 53.7728ZM122.252 56.8779H118.898L117.697 53.7048H110.625L109.424 56.8779H105.933L112.098 41.0123H116.065L122.252 56.8779ZM114.161 44.276L111.622 51.0303H116.699L114.161 44.276ZM129.718 45.2053C132.755 45.2053 134.931 47.6078 134.931 51.2116C134.931 54.8154 132.755 57.2179 129.74 57.2179C128.04 57.2179 126.726 56.47 125.887 55.178V61.411H122.827V45.5453H125.887V47.2452C126.726 45.9533 128.04 45.2053 129.718 45.2053ZM128.811 54.5887C130.556 54.5887 131.758 53.2288 131.758 51.2116C131.758 49.1944 130.556 47.8572 128.811 47.8572C127.043 47.8572 125.887 49.1944 125.887 51.2116C125.887 53.2288 127.043 54.5887 128.811 54.5887ZM142.827 45.2053C145.864 45.2053 148.04 47.6078 148.04 51.2116C148.04 54.8154 145.864 57.2179 142.85 57.2179C141.15 57.2179 139.835 56.47 138.997 55.178V61.411H135.937V45.5453H138.997V47.2452C139.835 45.9533 141.15 45.2053 142.827 45.2053ZM141.921 54.5887C143.666 54.5887 144.867 53.2288 144.867 51.2116C144.867 49.1944 143.666 47.8572 141.921 47.8572C140.153 47.8572 138.997 49.1944 138.997 51.2116C138.997 53.2288 140.153 54.5887 141.921 54.5887Z" fill="#ED5656"/>
</g>
<defs>
<clipPath id="clip0_559_335">
<rect width="147.803" height="98.3121" fill="white" transform="translate(0.870056)"/>
</clipPath>
</defs>
</svg>
